# Blender v2.90.0 OBJ File: 'arenamodkit.blend'
# www.blender.org
mtllib Arch_Large.mtl
o Arch_Scene.037
v 1.000001 9.980155 -5.000000
v 1.000001 4.758773 -3.917617
v 1.000000 2.660955 -4.582005
v 0.999998 -8.500000 -5.000000
v 1.000001 6.380381 -2.460485
v 1.000001 9.980155 -2.000000
v 1.000001 5.964100 -5.000000
v 1.000000 4.499999 -5.000000
v 1.000000 2.500000 -5.000000
v 0.999998 -8.500000 -4.582005
v 0.511191 4.443679 -3.378768
v 0.511191 5.964101 -2.000000
v 0.511191 2.500000 -4.000000
v 0.511189 -8.500000 -4.000000
v 1.000000 1.190211 -5.000000
v 1.000000 1.279299 -4.582005
v 0.511190 1.190210 -4.000000
v 1.000001 7.253448 -1.333629
v 0.511191 6.793807 -0.933874
v 1.000002 9.980155 5.000000
v 1.000001 4.758773 3.917617
v 1.000001 2.660955 4.582005
v 0.999999 -8.500000 5.000000
v 1.000001 6.380381 2.460485
v 1.000001 9.980155 -0.000000
v 1.000001 9.980155 2.000000
v 1.000001 5.964100 5.000000
v 1.000001 4.499999 5.000000
v 1.000001 2.500000 5.000000
v 0.999999 -8.500000 4.582005
v 1.000001 8.225132 -0.000000
v 0.511191 4.443679 3.378768
v 0.511191 5.964101 2.000000
v 0.511191 2.500000 4.000000
v 0.511191 7.500000 -0.000000
v 0.511190 -8.500000 4.000000
v 1.000000 1.190211 5.000000
v 1.000000 1.279299 4.582005
v 0.511191 1.190210 4.000000
v 1.000001 7.253448 1.333629
v 0.511191 6.793807 0.933874
v 1.000001 8.938858 -1.984506
v 1.000001 8.938858 -0.000000
v 1.000001 8.938858 1.984506
v 1.000001 8.948562 -5.000000
v 1.000002 8.948562 5.000000
v 0.999998 -8.500000 -4.275792
v 0.814162 -8.500000 -4.000000
v 1.000001 4.591908 -3.632257
v 0.814164 4.443679 -3.378768
v 0.814163 2.500000 -4.000000
v 1.000000 2.576164 -4.275405
v 1.000001 6.158278 -2.214796
v 0.814164 5.964101 -2.000000
v 1.000000 1.232412 -4.275697
v 0.814163 1.190211 -4.000000
v 0.814164 6.793808 -0.933874
v 1.000001 7.008746 -1.120808
v 0.814162 -8.500000 4.000000
v 0.999999 -8.500000 4.275792
v 1.000001 7.847720 -0.000000
v 0.814164 7.500000 -0.000000
v 0.814164 4.443679 3.378768
v 1.000001 4.591908 3.632257
v 1.000001 2.576164 4.275405
v 0.814164 2.500000 4.000000
v 0.814164 5.964101 2.000000
v 1.000001 6.158278 2.214796
v 0.814164 1.190211 4.000000
v 1.000000 1.232412 4.275697
v 1.000001 7.008746 1.120808
v 0.814164 6.793808 0.933874
v -0.999998 9.980155 -5.000000
v -0.999999 4.758773 -3.917617
v -1.000000 2.660956 -4.582005
v -1.000002 -8.500000 -5.000000
v -0.999999 6.380381 -2.460485
v -0.999998 9.980155 -2.000000
v -0.999999 5.964100 -5.000000
v -0.999999 4.499999 -5.000000
v -1.000000 2.500000 -5.000000
v -1.000002 -8.500000 -4.582005
v -0.511190 4.443679 -3.378768
v -0.511189 5.964101 -2.000000
v -0.511190 2.500000 -4.000000
v -0.511192 -8.500000 -4.000000
v -1.000000 1.190211 -5.000000
v -1.000000 1.279299 -4.582005
v -0.511190 1.190211 -4.000000
v -0.999999 7.253448 -1.333629
v -0.511189 6.793807 -0.933874
v -0.999998 9.980155 5.000000
v -0.999999 4.758773 3.917617
v -0.999999 2.660956 4.582005
v -1.000001 -8.500000 5.000000
v -0.999999 6.380381 2.460485
v -0.999998 9.980155 0.000000
v -0.999998 9.980155 2.000000
v -0.999999 5.964100 5.000000
v -0.999999 4.499999 5.000000
v -0.999999 2.500000 5.000000
v -1.000001 -8.500000 4.582005
v -0.999999 8.225132 0.000000
v -0.511189 4.443679 3.378768
v -0.511189 5.964101 2.000000
v -0.511190 2.500000 4.000000
v -0.511189 7.500000 0.000000
v -0.511192 -8.500000 4.000000
v -1.000000 1.190211 5.000000
v -1.000000 1.279299 4.582005
v -0.511190 1.190211 4.000000
v -0.999999 7.253448 1.333629
v -0.511189 6.793807 0.933874
v -0.999999 8.938858 -1.984506
v -0.999998 8.938858 0.000000
v -0.999998 8.938858 1.984506
v -0.999999 8.948562 -5.000000
v -0.999998 8.948562 5.000000
v -1.000002 -8.500000 -4.275792
v -0.814165 -8.500000 -4.000000
v -0.999999 4.591908 -3.632257
v -0.814163 4.443679 -3.378768
v -0.814163 2.500000 -4.000000
v -1.000000 2.576165 -4.275405
v -0.999999 6.158278 -2.214796
v -0.814162 5.964101 -2.000000
v -1.000000 1.232412 -4.275697
v -0.814163 1.190211 -4.000000
v -0.814162 6.793808 -0.933874
v -0.999999 7.008746 -1.120808
v -0.814164 -8.500000 4.000000
v -1.000001 -8.500000 4.275792
v -0.999999 7.847720 0.000000
v -0.814162 7.500000 0.000000
v -0.814162 4.443679 3.378768
v -0.999999 4.591908 3.632257
v -0.999999 2.576165 4.275405
v -0.814163 2.500000 4.000000
v -0.814162 5.964101 2.000000
v -0.999999 6.158278 2.214796
v -0.814163 1.190211 4.000000
v -1.000000 1.232412 4.275697
v -0.999999 7.008746 1.120808
v -0.814162 6.793808 0.933874
v 1.000001 4.758773 -3.917617
v 1.000000 2.660955 -4.582005
v 1.000001 6.380381 -2.460485
v 1.000000 1.279299 -4.582005
v 0.999998 -8.500000 -4.582005
v 1.000001 7.253448 -1.333629
v 1.000001 8.225132 -0.000000
v 0.511191 6.793807 -0.933874
v 0.511191 7.500000 -0.000000
v 0.511190 1.190210 -4.000000
v 0.511191 2.500000 -4.000000
v 0.511191 4.443679 -3.378768
v 0.511191 5.964101 -2.000000
v 0.511189 -8.500000 -4.000000
v 1.000001 4.758773 3.917617
v 1.000001 2.660955 4.582005
v 1.000001 6.380381 2.460485
v 1.000000 1.279299 4.582005
v 0.999999 -8.500000 4.582005
v 1.000001 7.253448 1.333629
v 0.511191 6.793807 0.933874
v 0.511191 1.190210 4.000000
v 0.511191 2.500000 4.000000
v 0.511191 4.443679 3.378768
v 0.511191 5.964101 2.000000
v 0.511190 -8.500000 4.000000
v -0.999999 4.758773 -3.917617
v -1.000000 2.660956 -4.582005
v -0.999999 6.380381 -2.460485
v -1.000000 1.279299 -4.582005
v -1.000002 -8.500000 -4.582005
v -0.999999 7.253448 -1.333629
v -0.999999 8.225132 0.000000
v -0.511189 6.793807 -0.933874
v -0.511189 7.500000 0.000000
v -0.511190 1.190211 -4.000000
v -0.511190 2.500000 -4.000000
v -0.511190 4.443679 -3.378768
v -0.511189 5.964101 -2.000000
v -0.511192 -8.500000 -4.000000
v -0.999999 4.758773 3.917617
v -0.999999 2.660956 4.582005
v -0.999999 6.380381 2.460485
v -1.000000 1.279299 4.582005
v -1.000001 -8.500000 4.582005
v -0.999999 7.253448 1.333629
v -0.511189 6.793807 0.933874
v -0.511190 1.190211 4.000000
v -0.511190 2.500000 4.000000
v -0.511189 4.443679 3.378768
v -0.511189 5.964101 2.000000
v -0.511192 -8.500000 4.000000
vt 0.892578 0.793945
vt 0.958496 0.584473
vt 1.000000 0.568359
vt 1.000000 0.768066
vt 0.127930 -1.543457
vt 0.000000 -1.543457
vt 0.000000 -1.798340
vt 0.127930 -1.798340
vt 0.127930 -1.118164
vt 0.000000 -1.118164
vt 0.000000 -1.287109
vt 0.127930 -1.287109
vt 0.746582 0.956055
vt 1.000000 0.915039
vt 1.000000 1.252930
vt 0.698730 1.252441
vt 0.958496 0.446289
vt 0.958496 -0.532715
vt 1.000000 -0.532715
vt 1.000000 0.436523
vt 0.127930 -1.961914
vt 0.000000 -1.961914
vt 0.000000 -3.172363
vt 0.127930 -3.172363
vt 0.127930 -0.972168
vt 0.000000 -0.972168
vt 0.108398 0.793945
vt 0.000000 0.768066
vt 0.000000 0.568359
vt 0.041504 0.584473
vt 0.127930 -0.145508
vt 0.000000 -0.145508
vt 0.000000 -0.400391
vt 0.127930 -0.400391
vt 0.127930 -0.656738
vt 0.000000 -0.656738
vt 0.000000 -0.825684
vt 0.127930 -0.825684
vt 0.253906 0.956055
vt 0.301758 1.252441
vt 0.000000 1.252930
vt 0.000000 0.915039
vt 0.041504 0.446289
vt 0.000000 0.436523
vt 0.000000 -0.532715
vt 0.041504 -0.532715
vt 0.127930 1.229004
vt 0.000000 1.229004
vt 0.000000 0.018066
vt 0.127930 0.018066
vt 0.500977 1.252441
vt 0.367188 1.043945
vt 0.500977 1.140625
vt 0.633789 1.043945
vt 0.892578 0.793945
vt 1.000000 0.768066
vt 1.000000 0.568359
vt 0.958496 0.584473
vt 0.746582 0.956055
vt 0.698730 1.252441
vt 1.000000 1.252930
vt 1.000000 0.915039
vt 0.958496 0.446289
vt 1.000000 0.436523
vt 1.000000 -0.532715
vt 0.958496 -0.532715
vt 0.108398 0.793945
vt 0.041504 0.584473
vt 0.000000 0.568359
vt 0.000000 0.768066
vt 0.253906 0.956055
vt 0.000000 0.915039
vt 0.000000 1.252930
vt 0.301758 1.252441
vt 0.041504 0.446289
vt 0.041504 -0.532715
vt 0.000000 -0.532715
vt 0.000000 0.436523
vt 0.500977 1.252441
vt 0.500977 1.140625
vt 0.367188 1.043945
vt 0.633789 1.043945
vt 0.935059 0.450195
vt 0.935059 0.500488
vt 0.625977 0.500488
vt 0.625977 0.450195
vt 0.437988 0.450195
vt 0.437988 0.500488
vt 0.282715 0.500488
vt 0.282715 0.450195
vt 0.437988 0.500488
vt 0.437988 0.450195
vt 1.059082 0.450195
vt 1.059082 0.500488
vt 0.935059 0.500488
vt 0.935059 0.450195
vt -0.942383 0.500488
vt -0.942383 0.450195
vt 0.625977 0.450195
vt 0.625977 0.500488
vt 1.308594 0.450195
vt 1.268555 0.500488
vt 1.059082 0.450195
vt 1.059082 0.500488
vt 0.282715 0.500488
vt 0.282715 0.450195
vt 0.282715 0.450195
vt -0.942383 0.450195
vt -0.942383 0.500488
vt 0.282715 0.500488
vt 1.231934 0.450195
vt 1.231934 0.500488
vt 0.500488 0.251465
vt 0.500488 0.098633
vt 0.749023 0.098633
vt 0.749023 0.251465
vt 0.935059 0.450195
vt 0.625977 0.450195
vt 0.625977 0.500488
vt 0.935059 0.500488
vt 0.625977 0.450195
vt 0.437988 0.450195
vt 0.437988 0.500488
vt 0.625977 0.500488
vt 1.059082 0.450195
vt 1.059082 0.500488
vt 0.935059 0.450195
vt 0.935059 0.500488
vt 0.282715 0.450195
vt -0.942383 0.450195
vt -0.942383 0.500488
vt 0.282715 0.500488
vt 1.059082 0.450195
vt 1.059082 0.500488
vt 0.437988 0.450195
vt 0.437988 0.500488
vt 0.250488 0.251465
vt 0.250488 0.098633
vt 1.000000 0.098633
vt 1.000000 0.250488
vt 0.749023 0.250488
vt 0.000000 0.098633
vt 0.000000 0.251465
vt 0.725098 0.451660
vt 0.052734 0.451660
vt 0.052734 0.400391
vt 0.725098 0.400391
vt 1.396973 0.400391
vt 1.396973 0.451660
vt 1.732422 0.400391
vt 2.299316 0.399414
vt 2.200195 0.451660
vt 1.732422 0.451660
vt -0.367188 0.451660
vt -3.680664 0.451660
vt -3.680664 0.400391
vt -0.367188 0.400391
vt 0.725098 0.400391
vt 0.052734 0.400391
vt 0.052734 0.451660
vt 0.725098 0.451660
vt 1.396973 0.451660
vt 1.396973 0.400391
vt 1.732422 0.451660
vt 1.732422 0.400391
vt -0.367188 0.400391
vt -3.680664 0.400391
vt -3.680664 0.451660
vt -0.367188 0.451660
vt -0.942383 0.500488
vt -0.942383 0.450195
vt 0.935059 0.450195
vt 0.625977 0.450195
vt 0.625977 0.500488
vt 0.935059 0.500488
vt 0.437988 0.450195
vt 0.282715 0.450195
vt 0.282715 0.500488
vt 0.437988 0.500488
vt 0.437988 0.450195
vt 0.437988 0.500488
vt 1.059082 0.450195
vt 0.935059 0.450195
vt 0.935059 0.500488
vt 1.059082 0.500488
vt -0.942383 0.450195
vt -0.942383 0.500488
vt 0.625977 0.450195
vt 0.625977 0.500488
vt 1.308594 0.450195
vt 1.268555 0.500488
vt 1.059082 0.450195
vt 1.059082 0.500488
vt 0.282715 0.450195
vt 0.282715 0.500488
vt 0.282715 0.450195
vt 0.282715 0.500488
vt -0.942383 0.500488
vt -0.942383 0.450195
vt 1.231934 0.450195
vt 1.231934 0.500488
vt 0.500488 0.251465
vt 0.749023 0.251465
vt 0.749023 0.098633
vt 0.500488 0.098633
vt 0.935059 0.450195
vt 0.935059 0.500488
vt 0.625977 0.500488
vt 0.625977 0.450195
vt 0.625977 0.450195
vt 0.625977 0.500488
vt 0.437988 0.500488
vt 0.437988 0.450195
vt 1.059082 0.500488
vt 1.059082 0.450195
vt 0.935059 0.500488
vt 0.935059 0.450195
vt 0.282715 0.450195
vt 0.282715 0.500488
vt -0.942383 0.500488
vt -0.942383 0.450195
vt 1.059082 0.450195
vt 1.059082 0.500488
vt 0.437988 0.450195
vt 0.437988 0.500488
vt 0.250488 0.098633
vt 0.250488 0.251465
vt 0.749023 0.250488
vt 1.000000 0.250488
vt 1.000000 0.098633
vt 0.000000 0.098633
vt 0.000000 0.251465
vt 0.725098 0.451660
vt 0.725098 0.400391
vt 0.052734 0.400391
vt 0.052734 0.451660
vt 1.396973 0.451660
vt 1.396973 0.400391
vt 1.732422 0.400391
vt 1.732422 0.451660
vt 2.200195 0.451660
vt 2.299316 0.399414
vt -0.367188 0.451660
vt -0.367188 0.400391
vt -3.680664 0.400391
vt -3.680664 0.451660
vt 0.725098 0.400391
vt 0.725098 0.451660
vt 0.052734 0.451660
vt 0.052734 0.400391
vt 1.396973 0.400391
vt 1.396973 0.451660
vt 1.732422 0.451660
vt 1.732422 0.400391
vt -0.367188 0.400391
vt -0.367188 0.451660
vt -3.680664 0.451660
vt -3.680664 0.400391
vt -0.942383 0.450195
vt -0.942383 0.500488
vn 1.0000 0.0000 0.0000
vn 0.0000 -0.4994 0.8663
vn 0.0000 -0.1541 0.9880
vn 0.0000 -0.7934 0.6087
vn 0.0000 -0.7332 0.6800
vn 0.0000 0.0000 1.0000
vn 0.0000 -1.0000 0.0000
vn 0.0000 -0.1541 -0.9880
vn 0.0000 -0.4994 -0.8663
vn 0.0000 -0.7332 -0.6800
vn 0.0000 -0.7934 -0.6087
vn 0.0000 0.0000 -1.0000
vn -1.0000 0.0000 0.0000
vn 0.4895 -0.6402 0.5920
vn 0.5123 -0.4284 0.7443
vn 0.9658 -0.0421 0.2557
vn 0.9563 0.0000 0.2922
vn 0.4961 -0.1303 0.8584
vn 0.9585 -0.2263 0.1732
vn 0.9633 -0.1959 0.1831
vn 0.9564 0.0000 0.2922
vn 0.9701 -0.1212 0.2102
vn 0.9895 -0.1446 0.0000
vn 0.4757 -0.6982 0.5350
vn 0.4696 0.0000 0.8829
vn 0.4696 0.0000 -0.8829
vn 0.4696 0.0000 -0.8828
vn 0.6298 -0.7767 0.0000
vn 0.4895 -0.6402 -0.5920
vn 0.5123 -0.4284 -0.7443
vn 0.9658 -0.0421 -0.2557
vn 0.9701 -0.1212 -0.2102
vn 0.9585 -0.2263 -0.1732
vn 0.9633 -0.1959 -0.1831
vn 0.9564 0.0000 -0.2922
vn 0.9563 0.0000 -0.2922
vn 0.4757 -0.6982 -0.5350
vn 0.4961 -0.1303 -0.8584
vn 0.4696 0.0000 0.8828
vn -0.4895 -0.6402 0.5920
vn -0.5123 -0.4284 0.7443
vn -0.9563 0.0000 0.2922
vn -0.9658 -0.0421 0.2557
vn -0.4961 -0.1303 0.8584
vn -0.9633 -0.1959 0.1831
vn -0.9585 -0.2263 0.1732
vn -0.9564 0.0000 0.2922
vn -0.9701 -0.1212 0.2102
vn -0.9895 -0.1446 0.0000
vn -0.4757 -0.6982 0.5350
vn -0.4696 0.0000 0.8829
vn -0.4696 0.0000 -0.8829
vn -0.4696 0.0000 -0.8828
vn -0.6298 -0.7767 0.0000
vn -0.4895 -0.6402 -0.5920
vn -0.5123 -0.4284 -0.7443
vn -0.9701 -0.1212 -0.2102
vn -0.9658 -0.0421 -0.2557
vn -0.9585 -0.2263 -0.1732
vn -0.9633 -0.1959 -0.1831
vn -0.9563 0.0000 -0.2922
vn -0.9564 0.0000 -0.2922
vn -0.4757 -0.6982 -0.5350
vn -0.4961 -0.1303 -0.8584
vn -0.4696 0.0000 0.8828
usemtl Arena_Brick_1
s 1
f 145/1/1 146/2/1 9/3/1 8/4/1
f 156/5/2 182/6/2 181/7/3 13/8/3
f 19/9/4 178/10/4 183/11/5 157/12/5
f 147/13/1 7/14/1 45/15/1 42/16/1
f 147/13/1 145/1/1 8/4/1 7/14/1
f 157/12/5 183/11/5 182/6/2 156/5/2
f 148/17/1 149/18/1 4/19/1 15/20/1
f 146/2/1 148/17/1 15/20/1 9/3/1
f 17/21/6 180/22/6 184/23/6 158/24/6
f 13/8/3 181/7/3 180/22/6 17/21/6
f 35/25/7 179/26/7 178/10/4 19/9/4
f 159/27/1 28/28/1 29/29/1 160/30/1
f 34/31/8 193/32/8 194/33/9 168/34/9
f 169/35/10 195/36/10 113/37/11 41/38/11
f 161/39/1 44/40/1 46/41/1 27/42/1
f 161/39/1 27/42/1 28/28/1 159/27/1
f 168/34/9 194/33/9 195/36/10 169/35/10
f 162/43/1 37/44/1 23/45/1 163/46/1
f 160/30/1 29/29/1 37/44/1 162/43/1
f 36/47/12 196/48/12 192/49/12 39/50/12
f 39/50/12 192/49/12 193/32/8 34/31/8
f 43/51/1 44/40/1 40/52/1 151/53/1
f 42/16/1 43/51/1 151/53/1 18/54/1
f 42/16/1 18/54/1 147/13/1
f 44/40/1 161/39/1 40/52/1
f 171/55/13 80/56/13 81/57/13 172/58/13
f 173/59/13 114/60/13 117/61/13 79/62/13
f 173/59/13 79/62/13 80/56/13 171/55/13
f 174/63/13 87/64/13 76/65/13 175/66/13
f 172/58/13 81/57/13 87/64/13 174/63/13
f 185/67/13 186/68/13 101/69/13 100/70/13
f 187/71/13 99/72/13 118/73/13 116/74/13
f 187/71/13 185/67/13 100/70/13 99/72/13
f 188/75/13 189/76/13 95/77/13 109/78/13
f 186/68/13 188/75/13 109/78/13 101/69/13
f 115/79/13 177/80/13 112/81/13 116/74/13
f 114/60/13 90/82/13 177/80/13 115/79/13
f 114/60/13 173/59/13 90/82/13
f 116/74/13 112/81/13 187/71/13
f 41/38/11 113/37/11 179/26/7 35/25/7
usemtl Dec_Trim
f 54/83/14 12/84/5 11/85/2 50/86/15
f 3/87/1 52/88/16 55/89/17 16/90/1
f 50/86/15 11/85/2 155/91/3 51/92/18
f 150/93/1 58/94/19 53/95/20 5/96/1
f 16/90/1 55/89/17 47/97/21 10/98/1
f 2/99/1 49/100/22 52/88/16 3/87/1
f 5/96/1 53/95/20 49/100/22 2/99/1
f 31/101/1 61/102/23 58/94/19 150/93/1
f 57/103/24 152/104/4 12/84/5 54/83/14
f 51/92/18 155/91/3 154/105/6 56/106/25
f 69/107/26 59/108/27 170/109/12 166/110/12
f 62/111/28 153/112/7 152/104/4 57/103/24
f 25/113/1 43/114/1 42/115/1 6/116/1
f 67/117/29 63/118/30 32/119/9 33/120/10
f 21/121/1 22/122/1 65/123/31 64/124/32
f 31/101/1 164/125/1 71/126/33 61/102/23
f 164/125/1 24/127/1 68/128/34 71/126/33
f 38/129/1 30/130/1 60/131/35 70/132/36
f 24/127/1 21/121/1 64/124/32 68/128/34
f 22/122/1 38/129/1 70/132/36 65/123/31
f 72/133/37 67/117/29 33/120/10 165/134/11
f 66/135/38 69/107/26 166/110/12 167/136/8
f 63/118/30 66/135/38 167/136/8 32/119/9
f 62/111/28 72/133/37 165/134/11 153/112/7
f 25/113/1 26/137/1 44/138/1 43/114/1
f 42/115/1 45/139/1 1/140/1 6/141/1
f 46/142/1 44/138/1 26/137/1 20/143/1
f 50/144/15 51/145/18 52/146/16 49/147/22
f 49/147/22 53/148/20 54/149/14 50/144/15
f 58/150/19 61/151/23 62/152/28 57/153/24
f 56/154/25 48/155/39 47/156/21 55/157/17
f 51/145/18 56/154/25 55/157/17 52/146/16
f 53/148/20 58/150/19 57/153/24 54/149/14
f 64/158/32 65/159/31 66/160/38 63/161/30
f 63/161/30 67/162/29 68/163/34 64/158/32
f 72/164/37 62/152/28 61/151/23 71/165/33
f 70/166/36 60/167/35 59/168/27 69/169/26
f 65/159/31 70/166/36 69/169/26 66/160/38
f 67/162/29 72/164/37 71/165/33 68/163/34
f 56/106/25 154/105/6 14/170/6 48/171/39
f 126/172/40 122/173/41 83/174/2 84/175/5
f 75/176/13 88/177/13 127/178/42 124/179/43
f 122/173/41 123/180/44 85/181/3 83/174/2
f 176/182/13 77/183/13 125/184/45 130/185/46
f 88/177/13 82/186/13 119/187/47 127/178/42
f 74/188/13 75/176/13 124/179/43 121/189/48
f 77/183/13 74/188/13 121/189/48 125/184/45
f 103/190/13 176/182/13 130/185/46 133/191/49
f 129/192/50 126/172/40 84/175/5 91/193/4
f 123/180/44 128/194/51 89/195/6 85/181/3
f 141/196/52 111/197/12 108/198/12 131/199/53
f 134/200/54 129/192/50 91/193/4 107/201/7
f 97/202/13 78/203/13 114/204/13 115/205/13
f 139/206/55 105/207/10 104/208/9 135/209/56
f 93/210/13 136/211/57 137/212/58 94/213/13
f 103/190/13 133/191/49 143/214/59 190/215/13
f 190/215/13 143/214/59 140/216/60 96/217/13
f 110/218/13 142/219/61 132/220/62 102/221/13
f 96/217/13 140/216/60 136/211/57 93/210/13
f 94/213/13 137/212/58 142/219/61 110/218/13
f 144/222/63 191/223/11 105/207/10 139/206/55
f 138/224/64 106/225/8 111/197/12 141/196/52
f 135/209/56 104/208/9 106/225/8 138/224/64
f 134/200/54 107/201/7 191/223/11 144/222/63
f 97/202/13 115/205/13 116/226/13 98/227/13
f 114/204/13 78/228/13 73/229/13 117/230/13
f 118/231/13 92/232/13 98/227/13 116/226/13
f 122/233/41 121/234/48 124/235/43 123/236/44
f 121/234/48 122/233/41 126/237/40 125/238/45
f 130/239/46 129/240/50 134/241/54 133/242/49
f 128/243/51 127/244/42 119/245/47 120/246/65
f 123/236/44 124/235/43 127/244/42 128/243/51
f 125/238/45 126/237/40 129/240/50 130/239/46
f 136/247/57 135/248/56 138/249/64 137/250/58
f 135/248/56 136/247/57 140/251/60 139/252/55
f 144/253/63 143/254/59 133/242/49 134/241/54
f 142/255/61 141/256/52 131/257/53 132/258/62
f 137/250/58 138/249/64 141/256/52 142/255/61
f 139/252/55 140/251/60 143/254/59 144/253/63
f 128/194/51 120/259/65 86/260/6 89/195/6
