# Blender v2.90.0 OBJ File: 'arenamodkit.blend'
# www.blender.org
mtllib HorizontalPillar3.mtl
o Cube.002_Cube.015
v 0.000000 0.081635 0.000000
v 0.081635 0.000000 0.000000
v 0.000000 0.618720 0.000000
v 0.081635 0.700355 0.000000
v 0.500000 0.081635 0.000000
v 0.418365 0.000000 0.000000
v 0.500000 0.618720 0.000000
v 0.418365 0.700355 0.000000
v 0.081635 0.700355 -3.000000
v 0.000000 0.618720 -3.000000
v 0.418365 0.000000 -3.000000
v 0.500000 0.081635 -3.000000
v 0.081635 0.000000 -3.000000
v 0.000000 0.081635 -3.000000
v 0.418365 0.700355 -3.000000
v 0.500000 0.618720 -3.000000
v 0.380676 0.700355 0.000000
v 0.119324 0.700355 0.000000
v 0.119324 0.700355 -3.000000
v 0.380676 0.700355 -3.000000
v 0.119324 0.000000 0.000000
v 0.380676 0.000000 0.000000
v 0.380676 0.000000 -3.000000
v 0.119324 0.000000 -3.000000
v 0.500000 0.123219 0.000000
v 0.500000 0.577136 0.000000
v 0.500000 0.577136 -3.000000
v 0.500000 0.123219 -3.000000
v 0.000000 0.577136 0.000000
v 0.000000 0.123219 0.000000
v 0.000000 0.123219 -3.000000
v 0.000000 0.577136 -3.000000
vt 0.023438 0.250000
vt 0.030979 0.250000
vt 0.030979 0.999023
vt 0.023438 0.999023
vt 0.113770 0.250000
vt 0.126775 0.250000
vt 0.126775 0.999023
vt 0.113770 0.999023
vt 0.305176 0.250000
vt 0.312718 0.250000
vt 0.312718 0.999023
vt 0.305176 0.999023
vt 0.000000 0.999023
vt 0.000000 0.250000
vt 0.281738 0.999023
vt 0.281738 0.250000
vt 0.090820 0.999023
vt 0.090820 0.250000
vt 0.372559 0.999023
vt 0.372559 0.250000
vt 0.395996 0.250000
vt 0.395996 0.999023
vt 0.083278 0.250000
vt 0.083278 0.999023
vt 0.365017 0.250000
vt 0.365017 0.999023
vt 0.563965 0.999023
vt 0.550960 0.999023
vt 0.550960 0.250000
vt 0.563965 0.250000
vt 0.409001 0.999023
vt 0.409001 0.250000
vt 0.268733 0.250000
vt 0.268733 0.999023
vn -0.3827 -0.9239 0.0000
vn 0.0000 -1.0000 0.0000
vn 0.9239 -0.3827 0.0000
vn 1.0000 0.0000 0.0000
vn 0.3827 0.9239 0.0000
vn 0.0000 1.0000 0.0000
vn -0.9239 -0.3827 0.0000
vn 0.9239 0.3827 0.0000
vn 0.3827 -0.9239 0.0000
vn -0.3827 0.9239 0.0000
vn -0.9239 0.3827 0.0000
vn -1.0000 0.0000 0.0000
usemtl Material.006
s 1
f 13/1/1 24/2/2 21/3/2 2/4/1
f 12/5/3 28/6/4 25/7/4 5/8/3
f 15/9/5 20/10/6 17/11/6 8/12/5
f 13/1/1 2/4/1 1/13/7 14/14/7
f 15/9/5 8/12/5 7/15/8 16/16/8
f 6/17/9 11/18/9 12/5/3 5/8/3
f 4/19/10 9/20/10 10/21/11 3/22/11
f 23/23/2 11/18/9 6/17/9 22/24/2
f 19/25/6 18/26/6 17/11/6 20/10/6
f 23/23/2 22/24/2 21/3/2 24/2/2
f 19/25/6 9/20/10 4/19/10 18/26/6
f 1/27/7 30/28/12 31/29/12 14/30/7
f 29/31/12 3/22/11 10/21/11 32/32/12
f 27/33/4 26/34/4 25/7/4 28/6/4
f 29/31/12 32/32/12 31/29/12 30/28/12
f 27/33/4 16/16/8 7/15/8 26/34/4
