# Blender v2.90.0 OBJ File: 'arenamodkit.blend'
# www.blender.org
mtllib HorizontalPillar12.mtl
o Cube.001_Cube.008
v -0.250000 0.081635 0.000000
v -0.168365 0.000000 0.000000
v -0.168365 1.000000 0.000000
v -0.250000 0.918365 0.000000
v 0.168365 0.000000 0.000000
v 0.250000 0.081635 0.000000
v 0.250000 0.918365 0.000000
v 0.168365 1.000000 0.000000
v -0.168365 0.000000 -12.000000
v -0.250000 0.081635 -12.000000
v -0.250000 0.918365 -12.000000
v -0.168365 1.000000 -12.000000
v 0.250000 0.081635 -12.000000
v 0.168365 0.000000 -12.000000
v 0.168365 1.000000 -12.000000
v 0.250000 0.918365 -12.000000
v -0.168365 1.000000 -3.000000
v -0.250000 0.918365 -3.000000
v 0.168365 0.000000 -3.000000
v 0.250000 0.081635 -3.000000
v -0.250000 0.081635 -3.000000
v 0.250000 0.918365 -3.000000
v -0.168365 0.000000 -3.000000
v 0.168365 1.000000 -3.000000
v -0.168365 1.000000 -6.000000
v 0.168365 0.000000 -6.000000
v -0.168365 0.000000 -6.000000
v 0.168365 1.000000 -6.000000
v -0.250000 0.918365 -6.000000
v 0.250000 0.081635 -6.000000
v -0.250000 0.081635 -6.000000
v 0.250000 0.918365 -6.000000
v -0.168365 1.000000 -9.000000
v 0.168365 0.000000 -9.000000
v -0.168365 0.000000 -9.000000
v 0.168365 1.000000 -9.000000
v -0.250000 0.918365 -9.000000
v 0.250000 0.081635 -9.000000
v -0.250000 0.081635 -9.000000
v 0.250000 0.918365 -9.000000
vt 0.660156 0.999023
vt 0.660156 0.250000
vt 0.701172 0.250000
vt 0.701172 0.999023
vt 0.163086 0.250488
vt 0.163086 0.999023
vt 0.043457 0.999023
vt 0.043457 0.250488
vt 0.038086 0.999023
vt -0.003418 0.999023
vt -0.003418 0.250000
vt 0.038086 0.250000
vt 0.158203 0.999023
vt 0.158203 0.250000
vt 0.199707 0.250000
vt 0.199707 0.999023
vt 0.661621 0.250488
vt 0.661621 0.999023
vt 0.541992 0.999023
vt 0.541992 0.250488
vt 0.539551 0.999023
vt 0.498535 0.999023
vt 0.498535 0.250000
vt 0.539551 0.250000
vt 1.000488 0.999023
vt 1.000488 0.250000
vt 1.000000 0.999023
vt 0.702637 0.999023
vt 0.702637 0.250488
vt 1.000000 0.250488
vt 0.501465 0.999023
vt 0.204102 0.999023
vt 0.204102 0.250488
vt 0.501465 0.250488
vt 0.660156 0.250000
vt 0.660156 0.999512
vt 0.539551 0.999512
vt 0.539551 0.250000
vt 0.000000 0.999023
vt 0.000000 0.250488
vt 0.158203 0.250000
vt 0.158203 0.999512
vt 0.038086 0.999512
vt 0.038086 0.250000
vt 0.151855 0.250000
vt 0.151855 0.999512
vt 0.031738 0.999512
vt 0.031738 0.250000
vt 0.653809 0.250000
vt 0.653809 0.999512
vt 0.533203 0.999512
vt 0.533203 0.250000
vt 1.000488 0.999512
vt 0.701172 0.999512
vt 0.701172 0.250000
vt 1.000488 0.250000
vt 0.498535 0.999512
vt 0.199707 0.999512
vt 0.199707 0.250000
vt 0.498535 0.250000
vt -0.003418 0.999512
vt -0.003418 0.250000
vt 0.994141 0.999512
vt 0.694824 0.999512
vt 0.694824 0.250000
vt 0.994141 0.250000
vt 0.492188 0.999512
vt 0.193359 0.999512
vt 0.193359 0.250000
vt 0.492188 0.250000
vt -0.009766 0.999512
vt -0.009766 0.250000
vn -0.3827 0.9239 0.0000
vn -0.9239 0.3827 0.0000
vn 0.3827 -0.9239 0.0000
vn -0.3827 -0.9239 0.0000
vn -0.9239 -0.3827 0.0000
vn 0.9239 -0.3827 0.0000
vn 0.3827 0.9239 0.0000
vn 0.9239 0.3827 0.0000
usemtl Material.002
s 1
f 33/1/1 12/2/1 11/3/2 37/4/2
f 19/5/3 5/6/3 2/7/4 23/8/4
f 35/9/4 39/10/5 10/11/5 9/12/4
f 34/13/3 14/14/3 13/15/6 38/16/6
f 17/17/1 3/18/1 8/19/7 24/20/7
f 36/21/7 40/22/8 16/23/8 15/24/7
f 40/22/8 38/16/6 13/15/6 16/23/8
f 39/25/5 37/4/2 11/3/2 10/26/5
f 1/27/5 4/28/2 18/29/2 21/30/5
f 7/31/8 6/32/6 20/33/6 22/34/8
f 8/19/7 7/31/8 22/34/8 24/20/7
f 25/35/1 17/36/1 24/37/7 28/38/7
f 5/6/3 19/5/3 20/33/6 6/32/6
f 2/7/4 1/39/5 21/40/5 23/8/4
f 26/41/3 19/42/3 23/43/4 27/44/4
f 3/18/1 17/17/1 18/29/2 4/28/2
f 34/45/3 26/46/3 27/47/4 35/48/4
f 33/49/1 25/50/1 28/51/7 36/52/7
f 21/53/5 18/54/2 29/55/2 31/56/5
f 22/57/8 20/58/6 30/59/6 32/60/8
f 24/37/7 22/57/8 32/60/8 28/38/7
f 19/42/3 26/41/3 30/59/6 20/58/6
f 23/43/4 21/61/5 31/62/5 27/44/4
f 17/36/1 25/35/1 29/55/2 18/54/2
f 12/2/1 33/1/1 36/21/7 15/24/7
f 14/14/3 34/13/3 35/9/4 9/12/4
f 31/63/5 29/64/2 37/65/2 39/66/5
f 32/67/8 30/68/6 38/69/6 40/70/8
f 28/51/7 32/67/8 40/70/8 36/52/7
f 26/46/3 34/45/3 38/69/6 30/68/6
f 27/47/4 31/71/5 39/72/5 35/48/4
f 25/50/1 33/49/1 37/65/2 29/64/2
