# Blender v2.90.0 OBJ File: 'arenamodkit.blend'
# www.blender.org
mtllib HorizontalPillar.mtl
o Cube.002_Cube.015
v 0.081635 0.000000 -3.000000
v 0.418365 0.000000 -3.000000
v 0.418365 0.000000 0.000000
v 0.081635 0.000000 0.000000
v 0.500000 0.081635 -3.000000
v 0.500000 0.559182 -3.000000
v 0.500000 0.559182 0.000000
v 0.500000 0.081635 0.000000
v 0.418365 0.640818 -3.000000
v 0.081635 0.640818 -3.000000
v 0.081635 0.640818 0.000000
v 0.418365 0.640818 0.000000
v 0.000000 0.081635 0.000000
v 0.000000 0.081635 -3.000000
v 0.000000 0.559182 -3.000000
v 0.000000 0.559182 0.000000
v 0.500000 0.525912 -3.000000
v 0.500000 0.114906 -3.000000
v 0.500000 0.114905 0.000000
v 0.500000 0.525912 0.000000
v 0.000000 0.522239 0.000000
v 0.000000 0.111233 0.000000
v 0.000000 0.111233 -3.000000
v 0.000000 0.522240 -3.000000
v 0.128731 0.640818 -3.000000
v 0.371269 0.640818 -3.000000
v 0.371269 0.640818 0.000000
v 0.128731 0.640818 0.000000
v 0.371269 0.000000 -3.000000
v 0.128731 0.000000 -3.000000
v 0.128731 0.000000 0.000000
v 0.371269 0.000000 0.000000
vt 0.023438 0.250000
vt 0.032862 0.250000
vt 0.032862 0.999023
vt 0.023438 0.999023
vt 0.113770 0.250000
vt 0.125472 0.250000
vt 0.125472 0.999023
vt 0.113770 0.999023
vt 0.305176 0.250000
vt 0.314600 0.250000
vt 0.314600 0.999023
vt 0.305176 0.999023
vt 0.000000 0.999023
vt 0.000000 0.250000
vt 0.281738 0.999023
vt 0.281738 0.250000
vt 0.090820 0.999023
vt 0.090820 0.250000
vt 0.372559 0.999023
vt 0.372559 0.250000
vt 0.395996 0.250000
vt 0.395996 0.999023
vt 0.563965 0.999023
vt 0.553555 0.999023
vt 0.553555 0.250000
vt 0.563965 0.250000
vt 0.408990 0.999023
vt 0.408990 0.250000
vt 0.270036 0.250000
vt 0.270036 0.999023
vt 0.081396 0.250000
vt 0.081396 0.999023
vt 0.363135 0.250000
vt 0.363135 0.999023
vn -0.3827 -0.9239 -0.0000
vn 0.0000 -1.0000 -0.0000
vn 0.9239 -0.3827 -0.0000
vn 1.0000 0.0000 0.0000
vn 0.3827 0.9239 0.0000
vn 0.0000 1.0000 0.0000
vn -0.9239 -0.3827 -0.0000
vn 0.9239 0.3827 0.0000
vn 0.3827 -0.9239 -0.0000
vn -0.3827 0.9239 0.0000
vn -0.9239 0.3827 0.0000
vn -1.0000 0.0000 0.0000
usemtl Arena_Trim_2
s 1
f 1/1/1 30/2/2 31/3/2 4/4/1
f 5/5/3 18/6/4 19/7/4 8/8/3
f 9/9/5 26/10/6 27/11/6 12/12/5
f 1/1/1 4/4/1 13/13/7 14/14/7
f 9/9/5 12/12/5 7/15/8 6/16/8
f 3/17/9 2/18/9 5/5/3 8/8/3
f 11/19/10 10/20/10 15/21/11 16/22/11
f 13/23/7 22/24/12 23/25/12 14/26/7
f 21/27/12 16/22/11 15/21/11 24/28/12
f 17/29/4 20/30/4 19/7/4 18/6/4
f 21/27/12 24/28/12 23/25/12 22/24/12
f 17/29/4 6/16/8 7/15/8 20/30/4
f 29/31/2 2/18/9 3/17/9 32/32/2
f 25/33/6 28/34/6 27/11/6 26/10/6
f 29/31/2 32/32/2 31/3/2 30/2/2
f 25/33/6 10/20/10 11/19/10 28/34/6
