# Blender v2.90.0 OBJ File: 'awning.blend'
# www.blender.org
mtllib LargestPillar.mtl
o Cube__42__Scene.015
v -0.249881 0.000002 1.500000
v 0.000000 0.000002 1.249779
v -2.000000 0.000002 1.249779
v -1.750119 0.000002 1.500000
v -1.750119 0.000000 -2.000000
v -2.000000 0.000000 -1.750119
v 0.000000 0.000000 -1.750119
v -0.249881 0.000000 -2.000000
v 0.000000 28.585333 -0.243463
v -0.292997 28.714621 -0.371463
v -0.371361 28.714621 -0.292992
v -0.249881 28.585340 0.006758
v -1.750119 28.585340 0.006758
v -1.628639 28.714621 -0.292992
v -1.707003 28.714621 -0.371463
v -2.000000 28.585333 -0.243463
v -2.000000 28.585327 -1.750115
v -1.707003 28.714621 -1.628751
v -1.628756 28.714621 -1.706998
v -1.750119 28.585325 -1.999995
v -0.249881 28.585325 -1.999995
v -0.371244 28.714621 -1.706998
v -0.292997 28.714621 -1.628751
v 0.000000 28.585327 -1.750115
v -0.129333 28.714621 -0.303737
v -0.303504 28.714621 -0.129329
v -1.696496 28.714621 -0.129329
v -1.870667 28.714621 -0.303737
v -1.870667 28.714621 -1.696543
v -1.696548 28.714621 -1.870662
v -0.303452 28.714621 -1.870662
v -0.129333 28.714621 -1.696543
v -1.000000 0.000002 1.500000
v -1.000000 28.585340 0.006758
v -1.000000 28.714621 -0.129329
v -1.000000 28.714621 -0.292992
v -0.249881 28.180754 0.027893
v 0.000000 28.180746 -0.222328
v 0.000000 28.180740 -1.750115
v -1.750119 28.180754 0.027893
v -2.000000 28.180746 -0.222328
v -2.000000 28.180740 -1.750115
v -1.750119 28.180737 -1.999995
v -0.249881 28.180737 -1.999995
v -1.000000 28.180754 0.027893
vt 1.447754 -2.480493
vt 1.447754 -2.555222
vt 1.010254 -2.555222
vt 1.010254 -2.480493
vt -0.388184 -2.480495
vt -0.284180 -2.480497
vt -0.284180 -2.555225
vt -0.388184 -2.555223
vt -1.145020 -2.480493
vt -1.041504 -2.480494
vt -1.041504 -2.555223
vt -1.145020 -2.555222
vt 0.252930 -2.480495
vt 0.252930 -2.555224
vt 0.153320 -2.555225
vt 0.153320 -2.480496
vt 0.146498 -0.185734
vt 0.146499 -0.814378
vt 0.185622 -0.853501
vt 0.814378 -0.853501
vt 0.853501 -0.814378
vt 0.853502 -0.185734
vt 0.814319 -0.146499
vt 0.500000 -0.146499
vt 0.185681 -0.146499
vt 0.910156 -2.480494
vt 0.910156 -2.555223
vt -0.065430 -2.480496
vt -0.065430 -2.555225
vt 0.124940 0.000000
vt 0.001688 -0.123420
vt 0.064667 -0.151871
vt 0.151752 -0.064667
vt 0.998312 -0.123420
vt 0.875060 0.000000
vt 0.848248 -0.064667
vt 0.935333 -0.151871
vt 0.875060 -1.000000
vt 1.000000 -0.875060
vt 0.935333 -0.848274
vt 0.848274 -0.935333
vt 0.000000 -0.875060
vt 0.124940 -1.000000
vt 0.151726 -0.935333
vt 0.064667 -0.848274
vt 0.500000 0.000000
vt 0.500000 -0.064667
vt 0.000000 -0.125111
vt 1.000000 -0.125111
vt 0.153320 2.724609
vt -0.065430 2.724609
vt 0.910156 2.724609
vt 1.010254 2.724609
vt -0.284180 2.724609
vt -0.388184 2.724609
vt -1.041504 2.724609
vt 0.252930 2.724609
vt -1.145020 2.724609
vt 1.447754 2.724609
vn -0.3827 0.0000 -0.9239
vn -0.3557 0.3689 -0.8587
vn 0.3557 0.3689 -0.8587
vn 0.3827 0.0000 -0.9239
vn -0.9239 0.0200 0.3822
vn -0.3827 0.0482 0.9226
vn -0.3530 0.3995 0.8460
vn -0.8560 0.3815 0.3489
vn -0.9239 0.0000 -0.3827
vn -0.8587 0.3689 -0.3557
vn 0.9239 0.0200 0.3822
vn 0.8560 0.3815 0.3489
vn 0.3530 0.3995 0.8460
vn 0.3827 0.0482 0.9226
vn 0.0000 1.0000 0.0000
vn 0.9239 0.0000 -0.3827
vn 0.8587 0.3689 -0.3557
vn 0.0000 0.0522 0.9986
vn 0.0000 0.4183 0.9083
vn 0.4018 0.9014 0.1612
vn 0.1650 0.9045 0.3931
vn -0.1650 0.9045 0.3931
vn -0.4018 0.9014 0.1612
vn -0.4043 0.8991 -0.1675
vn -0.1675 0.8991 -0.4043
vn 0.1675 0.8991 -0.4043
vn 0.4043 0.8991 -0.1675
vn 0.0000 0.9287 0.3708
vn 0.3781 0.0483 0.9245
vn -0.3781 0.0483 0.9245
vn -0.9193 0.0205 0.3930
vn 0.9193 0.0205 0.3930
usemtl TEMP_Brick_triplanar.001
s 1
f 43/1/1 20/2/2 21/3/3 44/4/4
f 41/5/5 40/6/6 13/7/7 16/8/8
f 43/9/1 42/10/9 17/11/10 20/12/2
f 38/13/11 9/14/12 12/15/13 37/16/14
f 10/17/15 23/18/15 22/19/15 19/20/15 18/21/15 15/22/15 14/23/15 36/24/15 11/25/15
f 39/26/16 24/27/17 9/14/12 38/13/11
f 41/5/5 16/8/8 17/11/10 42/10/9
f 45/28/18 34/29/19 13/7/7 40/6/6
f 12/30/13 9/31/12 25/32/20 26/33/21
f 16/34/8 13/35/7 27/36/22 28/37/23
f 20/38/2 17/39/10 29/40/24 30/41/25
f 24/42/17 21/43/3 31/44/26 32/45/27
f 34/46/19 12/30/13 26/33/21 35/47/28
f 9/48/12 24/42/17 32/45/27 25/32/20
f 17/39/10 16/49/8 28/37/23 29/40/24
f 30/41/25 31/44/26 21/43/3 20/38/2
f 39/26/16 44/4/4 21/3/3 24/27/17
f 10/17/15 11/25/15 26/33/21 25/32/20
f 14/23/15 15/22/15 28/37/23 27/36/22
f 18/21/15 19/20/15 30/41/25 29/40/24
f 22/19/15 23/18/15 32/45/27 31/44/26
f 36/24/15 14/23/15 27/36/22 35/47/28
f 23/18/15 10/17/15 25/32/20 32/45/27
f 15/22/15 18/21/15 29/40/24 28/37/23
f 19/20/15 22/19/15 31/44/26 30/41/25
f 11/25/15 36/24/15 35/47/28 26/33/21
f 13/35/7 34/46/19 35/47/28 27/36/22
f 37/16/14 12/15/13 34/29/19 45/28/18
f 1/50/29 37/16/14 45/28/18 33/51/18
f 7/52/16 8/53/4 44/4/4 39/26/16
f 33/51/18 45/28/18 40/6/6 4/54/30
f 3/55/31 41/5/5 42/10/9 6/56/9
f 7/52/16 39/26/16 38/13/11 2/57/32
f 2/57/32 38/13/11 37/16/14 1/50/29
f 5/58/1 6/56/9 42/10/9 43/9/1
f 3/55/31 4/54/30 40/6/6 41/5/5
f 5/59/1 43/1/1 44/4/4 8/53/4
