# Blender v2.90.0 OBJ File: 'arenamodkit.blend'
# www.blender.org
mtllib point.mtl
o Cube.006_Cube.001
v 0.185174 0.204057 0.283278
v 0.185174 0.333494 -0.500003
v -0.185174 0.333494 0.500003
v -0.185174 0.204057 -0.283278
v 0.185174 0.447508 0.000000
v -0.185174 0.447508 0.000000
v 0.185174 0.333494 0.500003
v 0.185174 0.204057 -0.283278
v -0.185174 0.333494 -0.500003
v -0.185174 0.204057 0.283278
v -0.185174 0.742928 0.000000
v 0.185174 0.742928 0.000000
v 0.000000 0.333494 -0.500003
v 0.000000 0.742928 0.000000
v 0.000000 0.333494 0.500003
v 0.185174 -0.222548 0.500003
v 0.185174 -0.222548 -0.500003
v -0.185174 -0.222548 -0.500003
v -0.185174 -0.222548 0.500003
v 0.185174 -0.259229 0.283278
v 0.185174 -0.259229 -0.283278
v -0.185174 -0.259229 -0.283278
v -0.185174 -0.259229 0.283278
v 0.000000 -0.222548 -0.500003
v 0.000000 -0.222548 0.500003
v 0.185174 -0.662906 -0.500003
v -0.185174 -0.662906 -0.500003
v -0.185174 -0.662906 0.500003
v 0.185174 -0.662906 -0.283278
v -0.185174 -0.662906 -0.283278
v -0.185174 -0.662906 0.283278
v 0.185174 -0.662906 0.500003
v 0.185174 -0.662906 0.283278
v 0.000000 -0.662906 -0.500003
v 0.000000 -0.662906 0.500003
vt 0.812694 0.000000
vt 0.812694 0.027832
vt 0.687500 0.027832
vt 0.687500 0.000000
vt 0.437012 0.149902
vt 0.437012 0.122559
vt 0.562012 0.122559
vt 0.562012 0.149902
vt 0.562012 0.027832
vt 0.562012 0.000000
vt 0.687500 0.122559
vt 0.687500 0.149902
vt 0.437012 0.027832
vt 0.437012 0.000000
vt 0.687500 0.075195
vt 0.562012 0.075195
vt 0.437012 0.075195
vt 0.311035 0.149902
vt 0.311035 0.122559
vt 0.311035 0.075195
vt 0.311035 0.027832
vt 0.812694 0.075195
vt 0.812694 0.122559
vt 0.311035 0.000000
vt 0.218968 0.149902
vt 0.218968 0.122559
vt 0.812694 0.149902
vt 0.904666 0.000000
vt 0.904666 0.027832
vt 0.218968 0.075195
vt 0.218968 0.027832
vt 0.904666 0.075195
vt 0.904666 0.122559
vt 0.904666 0.149902
vt 0.218968 0.000000
vt 0.216797 0.544434
vt 0.354980 0.544434
vt 0.354980 0.657227
vt 0.216797 0.657227
vt 0.216797 0.657227
vt 0.285645 0.716797
vt 0.354980 0.657227
vt 0.285645 0.716797
vt 0.354980 0.544434
vt 0.216797 0.544434
vt 0.354980 0.445801
vt 0.216797 0.445801
vt 0.216797 0.445801
vt 0.354980 0.445801
vn 1.0000 0.0000 0.0000
vn 0.7071 0.0000 -0.7071
vn 0.6222 0.3351 -0.7074
vn -1.0000 0.0000 0.0000
vn -0.6222 0.3351 0.7074
vn -0.5885 0.8085 0.0000
vn 0.5885 0.8085 0.0000
vn -0.6222 0.3351 -0.7074
vn 0.6222 0.3351 0.7074
vn 0.0000 0.4280 -0.9037
vn 0.0000 1.0000 0.0000
vn 0.0000 0.4280 0.9037
vn -0.7071 0.0000 0.7071
vn 0.0000 0.0000 1.0000
vn 0.7071 0.0000 0.7071
vn 0.0000 0.0000 -1.0000
vn -0.7071 0.0000 -0.7071
usemtl Arena_Trim_2.001
s 1
f 21/1/1 17/2/2 2/3/3 8/4/1
f 10/5/4 3/6/5 11/7/6 6/8/4
f 8/4/1 2/3/3 12/9/7 5/10/1
f 6/8/4 11/7/6 9/11/8 4/12/4
f 5/10/1 12/9/7 7/13/9 1/14/1
f 13/15/10 9/11/8 11/7/6 14/16/11
f 15/17/12 7/13/9 12/9/7 14/16/11
f 3/6/5 15/17/12 14/16/11 11/7/6
f 2/3/3 13/15/10 14/16/11 12/9/7
f 23/18/4 19/19/13 3/6/5 10/5/4
f 7/13/9 15/17/12 25/20/14 16/21/15
f 9/11/8 13/15/10 24/22/16 18/23/17
f 13/15/10 2/3/3 17/2/2 24/22/16
f 1/14/1 7/13/9 16/21/15 20/24/1
f 15/17/12 3/6/5 19/19/13 25/20/14
f 31/25/4 28/26/13 19/19/13 23/18/4
f 4/12/4 9/11/8 18/23/17 22/27/4
f 29/28/1 26/29/2 17/2/2 21/1/1
f 16/21/15 25/20/14 35/30/14 32/31/15
f 18/23/17 24/22/16 34/32/16 27/33/17
f 24/22/16 17/2/2 26/29/2 34/32/16
f 25/20/14 19/19/13 28/26/13 35/30/14
f 22/27/4 18/23/17 27/33/17 30/34/4
f 20/24/1 16/21/15 32/31/15 33/35/1
usemtl Arena_Brick_1
f 20/36/1 21/37/1 8/38/1 1/39/1
f 10/40/4 6/41/4 4/42/4
f 8/38/1 5/43/1 1/39/1
f 22/44/4 23/45/4 10/40/4 4/42/4
f 30/46/4 31/47/4 23/45/4 22/44/4
f 33/48/1 29/49/1 21/37/1 20/36/1
