# Blender v2.90.0 OBJ File: 'arenamodkit.blend'
# www.blender.org
mtllib stair_03.mtl
o Cube.005_Cube.066
v -0.092779 0.750000 0.000000
v -2.907221 0.750000 0.000000
v -3.000000 0.606239 0.000000
v 0.000000 0.606239 0.000000
v -0.032472 0.691073 0.000399
v 0.000000 0.000000 0.000000
v -2.967528 0.691073 0.000399
v -3.000000 0.000000 0.000000
v -2.907221 0.750000 4.000000
v -3.000000 0.606239 4.000000
v 0.000000 -0.000000 4.000000
v -2.967528 0.691073 4.000000
v -3.000000 -0.000000 4.000000
v -0.032472 0.691073 4.000000
v 0.000000 0.606239 4.000000
v -0.092779 0.750000 4.000000
vt 0.000000 0.266113
vt 0.000000 0.000000
vt 1.000488 0.000000
vt 1.000488 0.266113
vt 0.000000 0.266113
vt -0.000000 0.000000
vt 1.000488 0.000000
vt 1.000488 0.266113
vt 1.000000 -0.000000
vt 1.000000 0.640625
vt 0.000000 0.640625
vt 0.000000 -0.000000
vt 0.877441 0.230469
vt 0.000488 0.230469
vt 0.000488 0.184570
vt 0.877441 0.184570
vt 1.750000 0.124023
vt 1.750000 0.195801
vt 0.876953 0.195801
vt 0.876953 0.124023
vt 1.750000 0.249023
vt 0.876953 0.249023
vt 0.877441 0.123047
vt 0.000488 0.123047
vn -1.0000 0.0000 0.0000
vn -0.9833 0.1817 0.0000
vn -0.9834 0.1815 0.0000
vn 1.0000 0.0000 0.0000
vn 0.9834 0.1815 0.0000
vn 0.9833 0.1817 0.0000
vn 0.3768 0.9263 0.0000
vn -0.3768 0.9263 0.0000
vn -0.3773 0.9261 0.0000
vn 0.3773 0.9261 0.0000
vn 0.8357 0.5491 0.0000
vn -0.8357 0.5491 0.0000
usemtl Material.001
s 1
f 13/1/1 10/2/2 3/3/3 8/4/1
f 6/5/4 4/6/5 15/7/6 11/8/4
f 1/9/7 2/10/8 9/11/9 16/12/10
usemtl Material.005
f 1/13/7 16/14/10 14/15/11 5/16/11
f 10/17/2 12/18/12 7/19/12 3/20/3
f 9/21/9 2/22/8 7/19/12 12/18/12
f 4/23/5 5/16/11 14/15/11 15/24/6
