# Blender v2.90.0 OBJ File: 'arenamodkit.blend'
# www.blender.org
mtllib stair_01.mtl
o Cube.004_Cube.007
v -0.092779 0.750000 0.000000
v -2.907221 0.750000 0.000000
v -3.000000 0.606239 0.000000
v 0.000000 0.606239 0.000000
v -0.032472 0.691073 0.000399
v 0.000000 0.000000 0.000000
v -2.967528 0.691073 0.000399
v -3.000000 0.000000 0.000000
v -3.000000 0.000000 -1.908870
v -2.909819 0.000000 -2.000000
v -2.815176 0.750000 -1.899343
v -2.907221 0.750000 -1.805863
v -0.090181 0.000000 -2.000000
v 0.000000 0.000000 -1.908870
v -0.092779 0.750000 -1.805863
v -0.184824 0.750000 -1.899343
v -3.000000 0.606239 -1.908597
v -2.909584 0.606239 -2.000000
v -0.090416 0.606239 -2.000000
v 0.000000 0.606239 -1.908597
v -2.967528 0.691073 -1.866057
v -2.878360 0.691073 -1.956304
v -0.121640 0.691073 -1.956304
v -0.032472 0.691073 -1.866057
v -0.092779 0.750000 -1.715570
v 0.000000 0.000000 -1.813426
v 0.000000 0.606239 -1.813167
v -0.032472 0.691073 -1.772734
v -0.194770 0.000000 -2.000000
v -0.194987 0.606239 -2.000000
v -0.282391 0.750000 -1.899343
v -0.223894 0.691073 -1.956304
v -2.779180 0.000000 -2.000000
v -2.693307 0.750000 -1.899343
v -2.750636 0.691073 -1.956304
v -2.778966 0.606239 -2.000000
v -3.000000 0.000000 -1.789443
v -3.000000 0.606239 -1.789187
v -2.907221 0.750000 -1.692881
v -2.967528 0.691073 -1.749284
vt -0.028098 0.000000
vt -0.004883 0.020951
vt -0.004883 0.043160
vt -0.004883 0.591934
vt -0.004883 0.619674
vt -0.028098 0.640625
vt -0.056155 0.640625
vt -0.476562 0.640625
vt -0.476562 0.000000
vt -0.050521 0.000000
vt 1.373108 0.265625
vt 1.373046 0.000000
vt 1.402899 0.000000
vt 1.402966 0.265625
vt 1.482005 0.265625
vt 1.482079 0.000000
vt 2.000000 0.000000
vt 2.000000 0.265625
vt 0.598078 0.000000
vt 0.598011 0.265625
vt 0.546190 0.265625
vt 0.546112 0.000000
vt 1.454820 0.000000
vt 1.454742 0.265625
vt 0.512018 0.265625
vt 0.511945 0.000000
vt 0.635306 0.265625
vt 0.635367 0.000000
vt 0.000000 0.265625
vt 0.000000 0.000000
vt 0.233887 0.125488
vt 0.240234 0.185547
vt 0.214844 0.185547
vt 0.207520 0.125488
vt 0.228516 0.125488
vt 0.235352 0.185547
vt 0.625488 0.185547
vt 0.625488 0.125488
vt 0.113281 0.125488
vt 0.119141 0.185059
vt 0.087891 0.185059
vt 0.081543 0.125488
vt 0.252930 0.249023
vt 0.228027 0.249023
vt 0.139648 0.250000
vt 0.109863 0.250000
vt 0.248047 0.249023
vt 0.625488 0.250000
vt 0.912109 0.185059
vt 0.912598 0.125488
vt 0.938477 0.125488
vt 0.938477 0.185059
vt 0.214844 0.185547
vt 0.214355 0.125488
vt 0.194824 0.125488
vt 0.194824 0.185547
vt 0.885254 0.250000
vt 0.925293 0.217285
vt 0.911621 0.250000
vt 0.235840 0.249023
vt 0.204102 0.214355
vt 0.215820 0.249023
vt 0.228027 0.249023
vt 0.207520 0.125488
vt 0.870605 0.250000
vt 0.888184 0.185059
vt 0.896484 0.125488
vt 0.936035 0.125488
vt 0.927246 0.185059
vt 0.907715 0.250000
vt 0.625977 0.250000
vt 0.625977 0.185547
vt 0.625977 0.125488
vn 0.3810 0.9180 -0.1101
vn 0.1101 0.9133 -0.3922
vn 0.0000 0.9206 -0.3905
vn -0.1101 0.9133 -0.3922
vn -0.3810 0.9180 -0.1101
vn -0.3773 0.9261 0.0000
vn -0.3779 0.9258 0.0000
vn 0.3779 0.9258 0.0000
vn 0.3773 0.9261 0.0000
vn 0.0000 0.0000 -1.0000
vn 0.0000 0.2356 -0.9718
vn 0.3815 0.2580 -0.8876
vn 0.3852 0.0002 -0.9228
vn 1.0000 0.0000 0.0000
vn 0.9833 0.1817 0.0000
vn 0.9833 0.1820 0.0000
vn -0.3815 0.2580 -0.8876
vn -0.3852 0.0002 -0.9228
vn -0.9248 0.0002 -0.3803
vn -0.8886 0.2394 -0.3911
vn 0.8886 0.2394 -0.3911
vn 0.9248 0.0002 -0.3803
vn -1.0000 0.0000 0.0000
vn -0.9833 0.1817 0.0000
vn -0.9833 0.1820 0.0000
vn -0.8357 0.5491 0.0000
vn -0.7316 0.6247 -0.2728
vn 0.8357 0.5491 0.0000
vn 0.8358 0.5491 0.0000
vn 0.0000 0.5827 -0.8127
vn 0.2916 0.6524 -0.6995
vn -0.2916 0.6524 -0.6995
vn 0.7316 0.6247 -0.2728
vn -0.8358 0.5491 0.0000
usemtl Material.001
s 1
f 15/1/1 16/2/2 31/3/3 34/4/3 11/5/4 12/6/5 39/7/6 2/8/7 1/9/8 25/10/9
f 29/11/10 30/12/11 19/13/12 13/14/13
f 26/15/14 27/16/15 4/17/16 6/18/14
f 18/19/17 10/20/18 9/21/19 17/22/20
f 20/23/21 14/24/22 13/14/13 19/13/12
f 37/25/23 38/26/24 17/22/20 9/21/19
f 14/24/22 20/23/21 27/16/15 26/15/14
f 33/27/10 36/28/11 30/12/11 29/11/10
f 10/20/18 18/19/17 36/28/11 33/27/10
f 8/29/23 3/30/25 38/26/24 37/25/23
usemtl Material.005
f 38/31/24 40/32/26 21/33/27 17/34/20
f 27/35/15 28/36/28 5/37/29 4/38/16
f 30/39/11 32/40/30 23/41/31 19/42/12
f 39/43/6 12/44/5 21/33/27 40/32/26
f 31/45/3 16/46/2 23/41/31 32/40/30
f 25/47/9 1/48/8 5/37/29 28/36/28
f 22/49/32 18/50/17 17/51/20 21/52/27
f 24/53/33 20/54/21 19/55/12 23/56/31
f 11/57/4 22/49/32 21/58/27 12/59/5
f 15/60/1 24/53/33 23/61/31 16/62/2
f 15/63/1 25/47/9 28/36/28 24/53/33
f 20/64/21 24/53/33 28/36/28 27/35/15
f 34/65/3 31/45/3 32/40/30 35/66/30
f 36/67/11 35/66/30 32/40/30 30/39/11
f 18/68/17 22/69/32 35/66/30 36/67/11
f 11/70/4 34/65/3 35/66/30 22/69/32
f 2/71/7 39/43/6 40/32/26 7/72/34
f 3/73/25 7/72/34 40/32/26 38/31/24
