# Blender v2.90.0 OBJ File: 'table.blend'
# www.blender.org
mtllib barrel.mtl
o Cylinder__15__Scene.005
v 0.353553 -0.002173 -0.353554
v 0.500000 -0.002173 -0.000000
v -0.000000 -0.002173 -0.500000
v -0.353554 -0.002173 -0.353554
v -0.500000 -0.002173 0.000000
v -0.353553 -0.002173 0.353554
v 0.000000 -0.002173 0.500000
v 0.353553 -0.002173 0.353554
v 0.391653 0.599999 -0.391656
v 0.553881 0.599999 -0.000000
v -0.000000 0.599999 -0.553881
v -0.391653 0.599999 -0.391656
v -0.553881 0.599999 0.000000
v -0.391653 0.599999 0.391656
v 0.000000 0.599999 0.553881
v 0.391653 0.599999 0.391656
v 0.500000 1.202174 -0.000000
v 0.353553 1.202174 -0.353554
v -0.000000 1.202174 -0.500000
v -0.353553 1.202174 -0.353554
v -0.500000 1.202174 0.000000
v -0.353553 1.202174 0.353554
v 0.000000 1.202174 0.500000
v 0.353554 1.202174 0.353554
v 0.430097 1.202174 -0.000000
v 0.304125 1.202174 -0.304125
v -0.000000 1.202174 -0.430097
v -0.304125 1.202174 -0.304125
v -0.430097 1.202174 0.000000
v -0.304125 1.202174 0.304125
v 0.000000 1.202174 0.430097
v 0.304125 1.202174 0.304125
v 0.430097 1.174798 -0.000000
v 0.304125 1.174798 -0.304125
v -0.000000 1.174798 -0.430097
v -0.304125 1.174798 -0.304125
v -0.430097 1.174798 0.000000
v -0.304125 1.174798 0.304125
v 0.000000 1.174798 0.430097
v 0.304125 1.174798 0.304125
v 0.430097 -0.002175 0.000000
v 0.304125 -0.002175 0.304125
v -0.000000 -0.002175 0.430097
v -0.304125 -0.002175 0.304125
v -0.430097 -0.002175 -0.000000
v -0.304125 -0.002175 -0.304125
v 0.000000 -0.002175 -0.430097
v 0.304125 -0.002175 -0.304125
v 0.430097 0.025200 0.000000
v 0.304125 0.025200 0.304125
v -0.000000 0.025200 0.430097
v -0.304125 0.025200 0.304125
v -0.430097 0.025200 -0.000000
v -0.304125 0.025200 -0.304125
v 0.000000 0.025200 -0.430097
v 0.304125 0.025200 -0.304125
v 0.571354 0.525256 -0.000000
v 0.404008 0.525256 -0.404009
v -0.000000 0.525256 -0.571354
v -0.404008 0.525256 -0.404009
v -0.571354 0.525256 0.000000
v -0.404008 0.525256 0.404009
v 0.000000 0.525256 0.571354
v 0.404008 0.525256 0.404009
v 0.571354 0.681679 -0.000000
v 0.404008 0.681679 -0.404009
v -0.000000 0.681679 -0.571354
v -0.404008 0.681679 -0.404009
v -0.571354 0.681679 0.000000
v -0.404008 0.681679 0.404009
v 0.000000 0.681679 0.571354
v 0.404008 0.681679 0.404009
v 0.525315 0.508614 -0.000000
v 0.371454 0.508614 -0.371454
v -0.000000 0.508614 -0.525315
v -0.371454 0.508614 -0.371454
v -0.525315 0.508614 0.000000
v -0.371454 0.508614 0.371454
v 0.000000 0.508614 0.525315
v 0.371454 0.508614 0.371454
v 0.525315 0.697762 -0.000000
v 0.371454 0.697762 -0.371454
v -0.000000 0.697762 -0.525315
v -0.371454 0.697762 -0.371454
v -0.525315 0.697762 0.000000
v -0.371454 0.697762 0.371454
v 0.000000 0.697762 0.525315
v 0.371454 0.697762 0.371454
v -0.525562 0.044506 0.000000
v -0.371628 0.044506 0.371629
v 0.000000 0.044506 0.525562
v 0.371628 0.044506 0.371628
v 0.525561 0.044506 -0.000000
v 0.371628 0.044506 -0.371629
v -0.000000 0.044506 -0.525562
v -0.371628 0.044506 -0.371628
v -0.541192 0.134424 0.000000
v -0.382681 0.134424 0.382681
v 0.000000 0.134424 0.541192
v 0.382681 0.134424 0.382681
v 0.541192 0.134424 -0.000000
v 0.382680 0.134424 -0.382681
v -0.000000 0.134424 -0.541192
v -0.382681 0.134424 -0.382681
v -0.483212 0.025194 0.000000
v -0.341683 0.025194 0.341683
v 0.000000 0.025194 0.483212
v 0.341683 0.025194 0.341683
v 0.483212 0.025194 -0.000000
v 0.341682 0.025194 -0.341683
v -0.000000 0.025194 -0.483212
v -0.341683 0.025194 -0.341683
v -0.497584 0.153735 0.000000
v -0.351845 0.153735 0.351845
v 0.000000 0.153735 0.497584
v 0.351845 0.153735 0.351845
v 0.497584 0.153735 -0.000000
v 0.351844 0.153735 -0.351845
v -0.000000 0.153735 -0.497584
v -0.351845 0.153735 -0.351845
v 0.525562 1.155493 0.000000
v 0.371628 1.155493 0.371629
v -0.000000 1.155493 0.525562
v -0.371628 1.155493 0.371629
v -0.525562 1.155493 -0.000000
v -0.371628 1.155493 -0.371629
v 0.000000 1.155493 -0.525562
v 0.371628 1.155493 -0.371628
v 0.541192 1.065575 0.000000
v 0.382681 1.065575 0.382681
v -0.000000 1.065575 0.541193
v -0.382681 1.065575 0.382681
v -0.541192 1.065575 -0.000000
v -0.382680 1.065575 -0.382681
v 0.000000 1.065575 -0.541192
v 0.382681 1.065575 -0.382681
v 0.483212 1.174804 0.000000
v 0.341683 1.174804 0.341683
v -0.000000 1.174804 0.483213
v -0.341683 1.174804 0.341683
v -0.483212 1.174804 -0.000000
v -0.341683 1.174804 -0.341683
v 0.000000 1.174804 -0.483212
v 0.341683 1.174804 -0.341683
v 0.497584 1.046264 0.000000
v 0.351845 1.046264 0.351845
v -0.000000 1.046264 0.497584
v -0.351845 1.046264 0.351845
v -0.497584 1.046264 -0.000000
v -0.351845 1.046264 -0.351845
v 0.000000 1.046264 -0.497584
v 0.351845 1.046264 -0.351845
v 0.353553 -0.002173 -0.353554
v -0.000000 -0.002173 -0.500000
v 0.500000 -0.002173 -0.000000
v -0.353554 -0.002173 -0.353554
v -0.500000 -0.002173 0.000000
v -0.353553 -0.002173 0.353554
v 0.000000 -0.002173 0.500000
v 0.353553 -0.002173 0.353554
v 0.500000 1.202174 -0.000000
v 0.353553 1.202174 -0.353554
v -0.000000 1.202174 -0.500000
v -0.353553 1.202174 -0.353554
v -0.500000 1.202174 0.000000
v -0.353553 1.202174 0.353554
v 0.000000 1.202174 0.500000
v 0.353554 1.202174 0.353554
v 0.430097 1.202174 -0.000000
v 0.304125 1.202174 -0.304125
v -0.000000 1.202174 -0.430097
v -0.304125 1.202174 -0.304125
v -0.430097 1.202174 0.000000
v -0.304125 1.202174 0.304125
v 0.000000 1.202174 0.430097
v 0.304125 1.202174 0.304125
v 0.430097 1.174798 -0.000000
v 0.304125 1.174798 -0.304125
v -0.000000 1.174798 -0.430097
v -0.304125 1.174798 -0.304125
v -0.430097 1.174798 0.000000
v -0.304125 1.174798 0.304125
v 0.000000 1.174798 0.430097
v 0.304125 1.174798 0.304125
v 0.430097 -0.002175 0.000000
v 0.304125 -0.002175 0.304125
v -0.000000 -0.002175 0.430097
v -0.304125 -0.002175 0.304125
v -0.430097 -0.002175 -0.000000
v -0.304125 -0.002175 -0.304125
v 0.000000 -0.002175 -0.430097
v 0.304125 -0.002175 -0.304125
v 0.430097 0.025200 0.000000
v 0.304125 0.025200 0.304125
v -0.000000 0.025200 0.430097
v -0.304125 0.025200 0.304125
v -0.430097 0.025200 -0.000000
v -0.304125 0.025200 -0.304125
v 0.000000 0.025200 -0.430097
v 0.304125 0.025200 -0.304125
vt -0.197266 0.529297
vt 0.319336 0.529297
vt 0.319336 0.718262
vt -0.197266 0.718262
vt 0.651367 0.529785
vt 1.167969 0.529785
vt 1.167969 0.718750
vt 0.651367 0.718750
vt 0.134766 0.529785
vt 0.134766 0.718750
vt 0.835938 0.529297
vt 0.835938 0.718262
vt 1.167969 0.718750
vt 0.651367 0.529785
vt 1.167969 0.529785
vt 0.250977 0.777832
vt 0.767578 0.777832
vt 0.767578 0.966797
vt 0.250977 0.966797
vt 0.767578 0.777832
vt 0.767578 0.966797
vt 0.250977 0.966797
vt -0.265625 0.966797
vt -0.265625 0.777832
vt -0.265625 0.966797
vt -0.265625 0.777832
vt 0.250977 0.777832
vt 0.767578 0.777832
vt 0.767578 0.966797
vt -0.466797 0.467773
vt -0.466797 0.278809
vt 0.049805 0.278809
vt 0.049805 0.467773
vt 0.566406 0.278809
vt 0.566406 0.467773
vt -0.466797 0.278809
vt 0.049805 0.467773
vt -0.466797 0.467773
vt 0.566406 0.278809
vt 0.566406 0.467773
vt -0.265625 0.777832
vt -0.265625 0.966797
vt 0.746094 0.095703
vt 0.505859 0.095703
vt 0.505859 0.003906
vt 0.746094 0.003906
vt 0.246582 0.094238
vt 0.006348 0.094238
vt 0.006348 0.002441
vt 0.246582 0.002441
vt 0.994629 0.095703
vt 0.754395 0.095703
vt 0.754395 0.003906
vt 0.994629 0.003906
vt 0.493652 0.095703
vt 0.253418 0.095703
vt 0.253418 0.003906
vt 0.493652 0.003906
vt 0.493652 0.095703
vt 0.253418 0.095703
vt 0.253418 0.003906
vt 0.493652 0.003906
vt 0.253418 0.003906
vt 0.493652 0.003906
vt 0.493652 0.095703
vt 0.253418 0.095703
vt 0.253418 0.003906
vt 0.493652 0.003906
vt 0.493652 0.095703
vt 0.253418 0.095703
vt 0.493652 0.095703
vt 0.253418 0.095703
vt 0.253418 0.003906
vt 0.493652 0.003906
vt 0.320312 0.179688
vt 0.320312 0.238281
vt 0.306641 0.238281
vt 0.306641 0.179688
vt 0.804688 0.238281
vt 0.804688 0.179688
vt 0.818359 0.179688
vt 0.818359 0.238281
vt 0.481445 0.179688
vt 0.481445 0.238281
vt 0.467773 0.238281
vt 0.467773 0.179688
vt 0.765625 0.179688
vt 0.765625 0.238281
vt 0.751953 0.238281
vt 0.751953 0.179688
vt 0.134766 0.718750
vt 0.134766 0.529785
vt 0.433594 0.177734
vt 0.319336 0.242188
vt 0.205078 0.177734
vt 0.562988 0.277832
vt 0.664062 0.471191
vt -0.025879 0.471191
vt 0.075195 0.277832
vt 0.319336 0.177734
vt 0.451172 0.244141
vt 0.187500 0.244141
vt 1.208008 0.268555
vt 1.106445 0.475586
vt 0.619141 0.475586
vt 0.517578 0.268555
vt 0.158203 0.179688
vt 0.158203 0.238281
vt 0.144531 0.238281
vt 0.144531 0.179688
vt 0.068359 0.238281
vt 0.068359 0.179688
vt 0.082031 0.179688
vt 0.082031 0.238281
vt 0.641602 0.238281
vt 0.641602 0.179688
vt 0.655273 0.179688
vt 0.655273 0.238281
vt 0.641602 0.238281
vt 0.641602 0.179688
vt 0.655273 0.179688
vt 0.655273 0.238281
vt 0.742188 0.094727
vt 0.501953 0.094727
vt 0.501953 0.002930
vt 0.742188 0.002930
vt 0.241211 0.094727
vt 0.000977 0.094727
vt 0.000977 0.002930
vt 0.241211 0.002930
vt 0.994629 0.094727
vt 0.754395 0.094727
vt 0.754395 0.002930
vt 0.994629 0.002930
vt 0.493652 0.094727
vt 0.253418 0.094727
vt 0.253418 0.002930
vt 0.493652 0.002930
vt 0.493652 0.094727
vt 0.253418 0.094727
vt 0.253418 0.002930
vt 0.493652 0.002930
vt 0.253418 0.002930
vt 0.493652 0.002930
vt 0.493652 0.094727
vt 0.253418 0.094727
vt 0.253418 0.002930
vt 0.493652 0.002930
vt 0.493652 0.094727
vt 0.253418 0.094727
vt 0.493652 0.094727
vt 0.253418 0.094727
vt 0.253418 0.002930
vt 0.493652 0.002930
vt 0.320312 0.182617
vt 0.320312 0.241211
vt 0.306641 0.241211
vt 0.306641 0.182617
vt 0.804688 0.241211
vt 0.804688 0.182617
vt 0.818359 0.182617
vt 0.818359 0.241211
vt 0.481445 0.182617
vt 0.481445 0.241211
vt 0.467773 0.241211
vt 0.467773 0.182617
vt 0.765625 0.182617
vt 0.765625 0.241211
vt 0.751953 0.241211
vt 0.751953 0.182617
vt 0.408203 0.179688
vt 0.328125 0.244141
vt 0.247070 0.179688
vt 0.876953 0.270508
vt 0.977539 0.471680
vt 0.288086 0.471680
vt 0.388672 0.270508
vt 0.319336 0.176758
vt 0.417969 0.244141
vt 0.220703 0.244141
vt 0.664062 0.270020
vt 0.562988 0.474121
vt 0.075195 0.474121
vt -0.025879 0.270020
vt 0.158203 0.182617
vt 0.158203 0.241211
vt 0.144531 0.241211
vt 0.144531 0.182617
vt 0.068359 0.241211
vt 0.068359 0.182617
vt 0.082031 0.182617
vt 0.082031 0.241211
vt 0.641602 0.241211
vt 0.641602 0.182617
vt 0.655273 0.182617
vt 0.655273 0.241211
vt 0.641602 0.241211
vt 0.641602 0.182617
vt 0.655273 0.182617
vt 0.655273 0.241211
vt 1.000000 0.115234
vt 0.875000 0.115234
vt 0.875000 0.159180
vt 1.000000 0.159180
vt 0.750977 0.115234
vt 0.750977 0.159180
vt 0.624023 0.115234
vt 0.624023 0.159180
vt 0.499023 0.115234
vt 0.499023 0.159180
vt 0.375000 0.115234
vt 0.375000 0.159180
vt 0.250000 0.115234
vt 0.250000 0.159180
vt 0.124023 0.115234
vt 0.124023 0.159180
vt 0.000000 0.115234
vt 0.000000 0.159180
vt 0.375000 0.173828
vt 0.499023 0.173828
vt 0.499023 0.100586
vt 0.375000 0.100586
vt 0.624023 0.173828
vt 0.624023 0.100586
vt 0.750977 0.173828
vt 0.750977 0.100586
vt 0.875000 0.173828
vt 0.875000 0.100586
vt 1.000000 0.173828
vt 0.000000 0.173828
vt 0.124023 0.173828
vt 1.000000 0.100586
vt 0.124023 0.100586
vt 0.000000 0.100586
vt 0.250000 0.173828
vt 0.250000 0.100586
vt 1.000000 0.115234
vt 0.875000 0.115234
vt 0.875000 0.159180
vt 1.000000 0.159180
vt 0.750977 0.115234
vt 0.750977 0.159180
vt 0.624023 0.115234
vt 0.624023 0.159180
vt 0.499023 0.115234
vt 0.499023 0.159180
vt 0.375000 0.115234
vt 0.375000 0.159180
vt 0.250000 0.115234
vt 0.250000 0.159180
vt 0.124023 0.115234
vt 0.124023 0.159180
vt 0.000000 0.115234
vt 0.000000 0.159180
vt 0.375000 0.173828
vt 0.499023 0.173828
vt 0.499023 0.100586
vt 0.375000 0.100586
vt 0.624023 0.173828
vt 0.624023 0.100586
vt 0.750977 0.173828
vt 0.750977 0.100586
vt 0.875000 0.173828
vt 0.875000 0.100586
vt 1.000000 0.173828
vt 0.000000 0.173828
vt 0.124023 0.173828
vt 1.000000 0.100586
vt 0.124023 0.100586
vt 0.000000 0.100586
vt 0.250000 0.173828
vt 0.250000 0.100586
vt 1.000000 0.115234
vt 0.875000 0.115234
vt 0.875000 0.159180
vt 1.000000 0.159180
vt 0.750977 0.115234
vt 0.750977 0.159180
vt 0.624023 0.115234
vt 0.624023 0.159180
vt 0.499023 0.115234
vt 0.499023 0.159180
vt 0.375000 0.115234
vt 0.375000 0.159180
vt 0.250000 0.115234
vt 0.250000 0.159180
vt 0.124023 0.115234
vt 0.124023 0.159180
vt 0.000000 0.115234
vt 0.000000 0.159180
vt 0.375000 0.173828
vt 0.499023 0.173828
vt 0.499023 0.100586
vt 0.375000 0.100586
vt 0.624023 0.173828
vt 0.624023 0.100586
vt 0.750977 0.173828
vt 0.750977 0.100586
vt 0.875000 0.173828
vt 0.875000 0.100586
vt 1.000000 0.173828
vt 0.000000 0.173828
vt 0.124023 0.173828
vt 1.000000 0.100586
vt 0.124023 0.100586
vt 0.000000 0.100586
vt 0.250000 0.173828
vt 0.250000 0.100586
vn 0.0000 -0.0891 -0.9960
vn 0.0000 0.0000 -1.0000
vn 0.7071 0.0000 -0.7071
vn 0.7043 -0.0891 -0.7043
vn 0.7043 0.0891 -0.7043
vn 0.9960 0.0891 0.0000
vn 1.0000 0.0000 0.0000
vn 0.9960 -0.0891 0.0000
vn 0.0000 0.0891 -0.9960
vn 0.7071 0.0000 0.7071
vn 0.7043 -0.0891 0.7043
vn -0.7071 0.0000 -0.7071
vn -0.7043 0.0891 -0.7043
vn -0.7043 -0.0891 -0.7043
vn -0.9960 -0.0891 0.0000
vn -1.0000 0.0000 0.0000
vn -0.9960 0.0891 0.0000
vn -0.7043 -0.0891 0.7043
vn -0.7071 0.0000 0.7071
vn -0.7043 0.0891 0.7043
vn 0.0000 -0.0891 0.9960
vn 0.0000 0.0000 1.0000
vn 0.0000 0.0891 0.9960
vn 0.7043 0.0891 0.7043
vn 0.0000 1.0000 0.0000
vn 0.0000 -1.0000 0.0000
vn 0.8539 0.5204 0.0000
vn 0.6038 0.5204 0.6038
vn 0.6054 -0.5166 0.6054
vn 0.8562 -0.5166 0.0000
vn 0.0000 0.5204 0.8539
vn 0.0000 -0.5166 0.8562
vn -0.6038 0.5204 0.6038
vn -0.6054 -0.5166 0.6054
vn -0.8539 0.5204 0.0000
vn -0.8562 -0.5166 0.0000
vn -0.6038 0.5204 -0.6038
vn -0.6054 -0.5166 -0.6054
vn 0.0000 0.5204 -0.8539
vn 0.0000 -0.5166 -0.8562
vn 0.6038 0.5204 -0.6038
vn 0.6054 -0.5166 -0.6054
vn -0.2404 -0.9404 -0.2404
vn -0.3399 -0.9404 0.0000
vn -0.3298 0.9440 0.0000
vn -0.2332 0.9440 -0.2332
vn -0.2404 -0.9404 0.2404
vn -0.2332 0.9440 0.2332
vn 0.0000 -0.9404 0.3399
vn 0.0000 0.9440 0.3298
vn 0.2404 -0.9404 0.2404
vn 0.2332 0.9440 0.2332
vn 0.3399 -0.9404 0.0000
vn 0.2404 -0.9404 -0.2404
vn 0.3298 0.9440 0.0000
vn 0.2332 0.9440 -0.2332
vn 0.0000 -0.9404 -0.3399
vn 0.0000 0.9440 -0.3298
vn -0.9083 0.4183 0.0000
vn -0.6423 0.4183 -0.6423
vn -0.5852 -0.5612 -0.5852
vn -0.8276 -0.5612 0.0000
vn 0.0000 0.4183 -0.9083
vn 0.0000 -0.5612 -0.8276
vn 0.6423 0.4183 -0.6423
vn 0.5852 -0.5612 -0.5852
vn 0.9083 0.4183 0.0000
vn 0.8276 -0.5612 0.0000
vn 0.6423 0.4183 0.6423
vn 0.5852 -0.5612 0.5852
vn 0.0000 0.4183 0.9083
vn 0.0000 -0.5612 0.8276
vn -0.6423 0.4183 0.6423
vn -0.5852 -0.5612 0.5852
vn 0.2934 -0.9098 0.2934
vn 0.4149 -0.9098 0.0000
vn 0.4049 0.9143 0.0000
vn 0.2863 0.9143 0.2863
vn 0.2934 -0.9098 -0.2934
vn 0.2863 0.9143 -0.2863
vn 0.0000 -0.9098 -0.4149
vn 0.0000 0.9143 -0.4049
vn -0.2934 -0.9098 -0.2934
vn -0.2863 0.9143 -0.2863
vn -0.4149 -0.9098 0.0000
vn -0.2934 -0.9098 0.2934
vn -0.4049 0.9143 0.0000
vn -0.2863 0.9143 0.2863
vn 0.0000 -0.9098 0.4149
vn 0.0000 0.9143 0.4049
vn 0.9083 -0.4183 0.0000
vn 0.6423 -0.4183 -0.6423
vn 0.5852 0.5612 -0.5852
vn 0.8276 0.5612 0.0000
vn 0.0000 -0.4183 -0.9083
vn 0.0000 0.5612 -0.8276
vn -0.6423 -0.4183 -0.6423
vn -0.5852 0.5612 -0.5852
vn -0.9083 -0.4183 0.0000
vn -0.8276 0.5612 0.0000
vn -0.6423 -0.4183 0.6423
vn -0.5852 0.5612 0.5852
vn 0.0000 -0.4183 0.9083
vn 0.0000 0.5612 0.8276
vn 0.6423 -0.4183 0.6423
vn 0.5852 0.5612 0.5852
vn -0.2934 0.9098 0.2934
vn -0.4149 0.9098 0.0000
vn -0.4049 -0.9143 0.0000
vn -0.2863 -0.9143 0.2863
vn -0.2934 0.9098 -0.2934
vn -0.2863 -0.9143 -0.2863
vn 0.0000 0.9098 -0.4149
vn 0.0000 -0.9143 -0.4049
vn 0.2934 0.9098 -0.2934
vn 0.2863 -0.9143 -0.2863
vn 0.4149 0.9098 0.0000
vn 0.2934 0.9098 0.2934
vn 0.4049 -0.9143 0.0000
vn 0.2863 -0.9143 0.2863
vn 0.0000 0.9098 0.4149
vn 0.0000 -0.9143 0.4049
usemtl Material.001
s 1
f 154/1/1 11/2/2 9/3/3 153/4/4
f 9/5/3 162/6/5 161/7/6 10/8/7
f 153/9/4 9/5/3 10/8/7 155/10/8
f 11/2/2 163/11/9 162/12/5 9/3/3
f 155/13/8 10/8/7 16/14/10 160/15/11
f 12/16/12 164/17/13 163/18/9 11/19/2
f 156/20/14 157/21/15 13/22/16 12/16/12
f 12/16/12 13/22/16 165/23/17 164/24/13
f 157/25/15 158/26/18 14/27/19 13/22/16
f 13/22/16 14/27/19 166/28/20 165/29/17
f 158/30/18 159/31/21 15/32/22 14/33/19
f 14/33/19 15/32/22 167/34/23 166/35/20
f 167/36/23 15/32/22 16/37/10 168/38/24
f 15/32/22 159/39/21 160/40/11 16/37/10
f 156/41/14 12/16/12 11/19/2 154/42/1
f 170/43/25 169/44/25 17/45/25 18/46/25
f 171/47/25 170/48/25 18/49/25 19/50/25
f 172/51/25 171/52/25 19/53/25 20/54/25
f 173/55/25 172/56/25 20/57/25 21/58/25
f 174/59/25 173/60/25 21/61/25 22/62/25
f 175/63/25 174/64/25 22/65/25 23/66/25
f 176/67/25 175/68/25 23/69/25 24/70/25
f 169/71/25 176/72/25 24/73/25 17/74/25
f 29/75/7 30/76/3 182/77/3 181/78/7
f 31/79/2 32/80/12 184/81/12 39/82/2
f 26/83/19 27/84/22 179/85/22 34/86/19
f 28/87/10 29/88/7 181/89/7 180/90/10
f 10/8/7 161/91/6 168/92/24 16/14/10
f 178/93/25 35/94/25 36/95/25
f 40/96/25 177/97/25 37/98/25 38/99/25
f 183/100/25 40/101/25 38/102/25
f 177/103/25 178/104/25 36/105/25 37/106/25
f 27/107/22 28/108/10 180/109/10 179/110/22
f 25/111/16 26/112/19 34/113/19 33/114/16
f 32/115/12 25/116/16 33/117/16 184/118/12
f 30/119/3 31/120/2 39/121/2 182/122/3
f 186/123/26 185/124/26 2/125/26 8/126/26
f 187/127/26 186/128/26 8/129/26 7/130/26
f 188/131/26 187/132/26 7/133/26 6/134/26
f 189/135/26 188/136/26 6/137/26 5/138/26
f 190/139/26 189/140/26 5/141/26 4/142/26
f 191/143/26 190/144/26 4/145/26 3/146/26
f 192/147/26 191/148/26 3/149/26 1/150/26
f 185/151/26 192/152/26 1/153/26 2/154/26
f 45/155/7 46/156/10 198/157/10 197/158/7
f 47/159/22 48/160/19 200/161/19 55/162/22
f 42/163/12 43/164/2 195/165/2 50/166/12
f 44/167/3 45/168/7 197/169/7 196/170/3
f 194/171/26 51/172/26 52/173/26
f 56/174/26 193/175/26 53/176/26 54/177/26
f 199/178/26 56/179/26 54/180/26
f 193/181/26 194/182/26 52/183/26 53/184/26
f 43/185/2 44/186/3 196/187/3 195/188/2
f 41/189/16 42/190/12 50/191/12 49/192/16
f 48/193/19 41/194/16 49/195/16 200/196/19
f 46/197/10 47/198/22 55/199/22 198/200/10
f 65/201/27 72/202/28 64/203/29 57/204/30
f 72/202/28 71/205/31 63/206/32 64/203/29
f 71/205/31 70/207/33 62/208/34 63/206/32
f 70/207/33 69/209/35 61/210/36 62/208/34
f 69/209/35 68/211/37 60/212/38 61/210/36
f 68/211/37 67/213/39 59/214/40 60/212/38
f 67/213/39 66/215/41 58/216/42 59/214/40
f 66/215/41 65/217/27 57/218/30 58/216/42
f 60/212/38 76/219/43 77/220/44 61/210/36
f 69/209/35 85/221/45 84/222/46 68/211/37
f 61/210/36 77/220/44 78/223/47 62/208/34
f 70/207/33 86/224/48 85/221/45 69/209/35
f 62/208/34 78/223/47 79/225/49 63/206/32
f 71/205/31 87/226/50 86/224/48 70/207/33
f 63/206/32 79/225/49 80/227/51 64/203/29
f 72/202/28 88/228/52 87/226/50 71/205/31
f 64/203/29 80/227/51 73/229/53 57/204/30
f 57/218/30 73/230/53 74/231/54 58/216/42
f 65/201/27 81/232/55 88/228/52 72/202/28
f 66/215/41 82/233/56 81/234/55 65/217/27
f 58/216/42 74/231/54 75/235/57 59/214/40
f 67/213/39 83/236/58 82/233/56 66/215/41
f 59/214/40 75/235/57 76/219/43 60/212/38
f 68/211/37 84/222/46 83/236/58 67/213/39
f 97/237/59 104/238/60 96/239/61 89/240/62
f 104/238/60 103/241/63 95/242/64 96/239/61
f 103/241/63 102/243/65 94/244/66 95/242/64
f 102/243/65 101/245/67 93/246/68 94/244/66
f 101/245/67 100/247/69 92/248/70 93/246/68
f 100/247/69 99/249/71 91/250/72 92/248/70
f 99/249/71 98/251/73 90/252/74 91/250/72
f 98/251/73 97/253/59 89/254/62 90/252/74
f 92/248/70 108/255/75 109/256/76 93/246/68
f 101/245/67 117/257/77 116/258/78 100/247/69
f 93/246/68 109/256/76 110/259/79 94/244/66
f 102/243/65 118/260/80 117/257/77 101/245/67
f 94/244/66 110/259/79 111/261/81 95/242/64
f 103/241/63 119/262/82 118/260/80 102/243/65
f 95/242/64 111/261/81 112/263/83 96/239/61
f 104/238/60 120/264/84 119/262/82 103/241/63
f 96/239/61 112/263/83 105/265/85 89/240/62
f 89/254/62 105/266/85 106/267/86 90/252/74
f 97/237/59 113/268/87 120/264/84 104/238/60
f 98/251/73 114/269/88 113/270/87 97/253/59
f 90/252/74 106/267/86 107/271/89 91/250/72
f 99/249/71 115/272/90 114/269/88 98/251/73
f 91/250/72 107/271/89 108/255/75 92/248/70
f 100/247/69 116/258/78 115/272/90 99/249/71
f 129/273/91 136/274/92 128/275/93 121/276/94
f 136/274/92 135/277/95 127/278/96 128/275/93
f 135/277/95 134/279/97 126/280/98 127/278/96
f 134/279/97 133/281/99 125/282/100 126/280/98
f 133/281/99 132/283/101 124/284/102 125/282/100
f 132/283/101 131/285/103 123/286/104 124/284/102
f 131/285/103 130/287/105 122/288/106 123/286/104
f 130/287/105 129/289/91 121/290/94 122/288/106
f 124/284/102 140/291/107 141/292/108 125/282/100
f 133/281/99 149/293/109 148/294/110 132/283/101
f 125/282/100 141/292/108 142/295/111 126/280/98
f 134/279/97 150/296/112 149/293/109 133/281/99
f 126/280/98 142/295/111 143/297/113 127/278/96
f 135/277/95 151/298/114 150/296/112 134/279/97
f 127/278/96 143/297/113 144/299/115 128/275/93
f 136/274/92 152/300/116 151/298/114 135/277/95
f 128/275/93 144/299/115 137/301/117 121/276/94
f 121/290/94 137/302/117 138/303/118 122/288/106
f 129/273/91 145/304/119 152/300/116 136/274/92
f 130/287/105 146/305/120 145/306/119 129/289/91
f 122/288/106 138/303/118 139/307/121 123/286/104
f 131/285/103 147/308/122 146/305/120 130/287/105
f 123/286/104 139/307/121 140/291/107 124/284/102
f 132/283/101 148/294/110 147/308/122 131/285/103
