# Blender v2.90.0 OBJ File: 'arenamodkit.blend'
# www.blender.org
mtllib ArchWall_02.mtl
o Arch__32__Scene.003
v -4.500000 1.000000 -5.000000
v -2.097228 1.000000 -5.000000
v -1.745993 -1.151851 13.707222
v -2.017674 -2.354411 13.707222
v -4.500000 -5.000039 -5.000000
v -1.003747 -0.271516 13.707222
v 0.010181 1.000000 -5.000000
v 0.010180 0.531733 13.707222
v 1.024108 -0.271516 13.707222
v 2.117589 1.000000 -5.000000
v 1.766354 -1.151851 13.707222
v 4.248793 1.000000 -5.000000
v 2.038035 -2.354411 13.707222
v 2.038035 -5.000042 13.707222
v -2.091401 -0.964365 -5.000000
v -2.405365 -2.306725 -5.000000
v -1.241033 0.009838 -5.000000
v 1.261394 0.009838 -5.000000
v 2.111762 -0.964365 -5.000000
v 2.425725 -2.306725 -5.000000
v 2.038035 -5.000039 -5.000000
v -2.405365 -5.000039 -5.000000
v 2.425725 -5.000039 -5.000000
v 2.038035 -2.354408 -5.000000
v 1.766354 -1.151848 -5.000000
v 0.010180 0.531736 -5.000000
v 1.024108 -0.271513 -5.000000
v 0.263034 0.331418 13.707222
v 0.112982 0.450295 -5.000000
v 0.322209 0.762651 -5.000000
v -0.243111 0.331071 13.707222
v -0.296793 0.762435 -5.000000
v -1.745993 -1.151848 -4.629155
v -2.017674 -2.354408 -4.629155
v -1.003747 -0.271513 -4.629155
v 0.010180 0.531736 -4.695026
v 1.024108 -0.271513 -4.695026
v 1.766354 -1.151848 -4.695026
v 2.038035 -2.354408 -4.695026
v 2.038035 -5.000039 -4.695026
v 0.115355 0.448414 -4.695027
v -0.093525 0.449579 -4.695027
v 2.321403 -1.860693 -5.000000
v 1.968901 -2.048395 -5.000000
v 1.969776 -2.052267 -4.695026
v 1.577773 -0.928184 -5.000000
v 1.576184 -0.926298 -4.695026
v 1.826545 -0.637613 -5.000000
v -2.017675 -5.000039 -5.000000
v -2.017675 -2.354408 -5.000000
v -1.745994 -1.151848 -5.000000
v -1.003748 -0.271513 -5.000000
v -0.092621 0.450295 -5.000000
v -0.094995 0.448414 -4.695027
v -2.301043 -1.860693 -5.000000
v -1.948541 -2.048395 -5.000000
v -1.949416 -2.052267 -4.629155
v -1.557413 -0.928184 -5.000000
v -1.806185 -0.637613 -5.000000
v -1.555823 -0.926298 -4.629155
v -1.555821 -0.926299 13.707222
v 1.576181 -0.926298 13.707222
v 1.969776 -2.052270 13.707222
v -1.942329 -2.020904 13.707222
v -2.405365 -3.749377 -5.000000
v -4.500000 -3.700039 -5.000000
v 4.250000 -3.698039 -5.000000
v 2.425725 -3.745528 -5.000000
v -4.500000 -4.150039 -5.000000
v -2.405365 -4.182299 -5.000000
v 4.251207 -4.150039 -5.000000
v 2.427752 -4.182299 -5.000000
v 4.251207 -5.000039 -5.000000
v 2.425725 -3.749377 -5.000000
v 2.425725 -4.182299 -5.000000
v 2.038035 -3.745529 -5.000000
v 2.038035 -4.182299 -5.000000
v 2.038035 -3.745532 13.707222
v 2.038035 -3.745530 -4.695026
v 2.038035 -4.182299 13.707222
v 2.038035 -4.182299 -4.695026
v -2.017675 -3.749377 -5.000000
v -2.017675 -3.747454 -4.645623
v -2.017675 -4.182298 -5.000000
v -2.017675 -3.746492 13.707222
v -2.017675 -4.182299 -4.646888
v -2.017675 -4.182299 13.707222
v -2.017675 -5.000039 -4.646888
v -2.017675 -5.000042 13.707222
v -4.500000 2.000000 -5.000000
v -2.097228 2.000000 -5.000000
v 0.010181 2.000000 -5.000000
v 2.117589 2.000000 -5.000000
v 4.248793 2.000000 -5.000000
v 2.038035 -4.182299 13.707222
v 2.038035 -5.000039 -4.695026
v 0.322209 0.762651 -5.000000
v 0.322209 0.762651 -5.000000
v 0.010181 1.000000 -5.000000
v 0.010181 1.000000 -5.000000
v 0.010181 1.000000 -5.000000
v -4.500000 1.000000 -5.000000
v -4.500000 1.000000 -5.000000
v -2.097228 1.000000 -5.000000
v -2.097228 1.000000 -5.000000
v -2.097228 1.000000 -5.000000
v 2.117589 1.000000 -5.000000
v 2.117589 1.000000 -5.000000
v 2.117589 1.000000 -5.000000
v 4.248793 1.000000 -5.000000
v 4.248793 1.000000 -5.000000
v -4.500000 -4.150039 -5.000000
v 2.321403 -1.860693 -5.000000
v 2.321403 -1.860693 -5.000000
v 2.111762 -0.964365 -5.000000
v 2.111762 -0.964365 -5.000000
v 2.111762 -0.964365 -5.000000
v -2.091401 -0.964365 -5.000000
v -2.091401 -0.964365 -5.000000
v -2.091401 -0.964365 -5.000000
v -2.405365 -2.306725 -5.000000
v -2.405365 -2.306725 -5.000000
v -2.405365 -2.306725 -5.000000
v -1.241033 0.009838 -5.000000
v -1.241033 0.009838 -5.000000
v -1.241033 0.009838 -5.000000
v 1.826545 -0.637613 -5.000000
v 1.826545 -0.637613 -5.000000
v 1.261394 0.009838 -5.000000
v 1.261394 0.009838 -5.000000
v 1.261394 0.009838 -5.000000
v -2.405365 -5.000039 -5.000000
v 2.425725 -2.306725 -5.000000
v 2.425725 -2.306725 -5.000000
v 2.425725 -2.306725 -5.000000
v -0.296793 0.762435 -5.000000
v -0.296793 0.762435 -5.000000
v -2.405365 -4.182299 -5.000000
v -2.405365 -4.182299 -5.000000
v -2.405365 -4.182299 -5.000000
v 2.425725 -3.745528 -5.000000
v 0.010180 0.531736 -4.695026
v 1.024108 -0.271513 -4.695026
v 0.115355 0.448414 -4.695027
v 2.038035 -3.745530 -4.695026
v 2.038035 -3.745530 -4.695026
v 2.038035 -2.354408 -4.695026
v -1.555823 -0.926298 -4.629155
v -1.745993 -1.151848 -4.629155
v 1.576184 -0.926298 -4.695026
v -2.017675 -3.747454 -4.645623
v -2.017675 -3.747454 -4.645623
v -2.017674 -2.354408 -4.629155
v 1.969776 -2.052267 -4.695026
v 1.766354 -1.151848 -4.695026
v -1.003747 -0.271513 -4.629155
v -1.949416 -2.052267 -4.629155
v -2.301043 -1.860693 -5.000000
v -1.806185 -0.637613 -5.000000
v -2.405365 -3.749377 -5.000000
v -2.405365 -3.749377 -5.000000
v -2.405365 -3.749377 -5.000000
v -4.500000 -3.700039 -5.000000
v 4.250000 -3.698039 -5.000000
v 4.251207 -4.150039 -5.000000
v 2.427752 -4.182299 -5.000000
v 2.425725 -5.000039 -5.000000
v 2.425725 -3.749377 -5.000000
v 2.425725 -4.182299 -5.000000
v 2.038035 -3.745532 13.707222
v 2.038035 -4.182299 -4.695026
v 2.038035 -4.182299 -4.695026
v -2.017675 -3.746492 13.707222
v -2.017675 -4.182299 -4.646888
v -2.017675 -4.182299 -4.646888
v -2.017675 -4.182299 13.707222
v -2.017675 -5.000039 -4.646888
vt -0.795898 0.665527
vt 1.792480 0.665527
vt 1.792480 0.835449
vt -0.795898 0.835449
vt -0.795898 0.566406
vt 1.792480 0.566406
vt 1.792480 0.628906
vt -0.795898 0.628906
vt 0.934082 0.317871
vt 0.934082 0.058105
vt 1.311523 0.066895
vt 1.311523 0.913574
vt -0.795898 -0.075684
vt 1.792480 -0.075684
vt 1.792480 -0.025879
vt -0.795898 -0.025879
vt 0.877441 0.559570
vt 0.934082 0.317871
vt 1.311523 0.913574
vt 0.878906 0.913574
vt -0.795898 0.105957
vt 1.792480 0.105957
vt 1.792480 0.168457
vt -0.795898 0.168457
vt 1.792480 0.966309
vt -0.795898 0.966309
vt -0.795898 -0.324729
vt 1.792480 -0.324728
vt 0.878906 0.913574
vt 0.724609 0.735352
vt 0.877441 0.559570
vt 0.120605 0.559570
vt 0.172363 0.618652
vt 0.273926 0.735352
vt 0.119629 0.913574
vt 0.724609 0.735352
vt 0.878906 0.913574
vt 0.499023 0.913574
vt 0.554688 0.870605
vt -0.795898 1.016602
vt 1.792480 1.016602
vt 1.792480 1.147461
vt -0.795898 1.147461
vt -0.264160 0.913574
vt 0.063965 0.317871
vt 0.083008 0.397949
vt 0.120605 0.559570
vt 0.119629 0.913574
vt 0.119629 0.913574
vt 0.273926 0.735352
vt 0.442871 0.870605
vt 0.499023 0.913574
vt -0.795898 0.329102
vt 1.792480 0.329102
vt 1.792480 1.199219
vt 1.792480 1.448179
vt -0.795898 1.448180
vt -0.795898 1.199219
vt -0.264648 0.067383
vt 0.063965 0.058594
vt 0.063965 0.317871
vt -0.264160 0.913574
vt -0.264160 0.913574
vt 0.119629 0.913574
vt 0.119629 1.093750
vt -0.264160 1.093750
vt 0.499023 0.913574
vt 0.878906 0.913574
vt 0.878906 1.093750
vt 0.499023 1.093750
vt 1.311523 0.913574
vt 1.311523 1.093750
vt 0.000000 0.125000
vt 0.000000 0.062500
vt 0.193333 0.062500
vt 0.189076 0.125000
vt 1.000000 0.125000
vt 0.750000 0.125000
vt 0.750000 0.062500
vt 1.000000 0.062500
vt 0.250488 0.000000
vt 0.626465 0.000000
vt 0.626465 0.062500
vt 0.250488 0.062988
vt 0.500977 0.125000
vt 0.250488 0.125000
vt 0.250488 0.062500
vt 0.500977 0.062500
vt 0.062012 0.125000
vt 0.124512 0.125000
vt 0.124512 0.062500
vt 0.062012 0.062500
vt 0.626465 0.125000
vt 0.250488 0.125000
vt 0.250488 0.062500
vt 0.625488 0.062500
vt 0.296595 0.062500
vt 0.296595 0.000000
vt 0.625488 0.000000
vt 0.125000 0.062500
vt 0.125000 0.000000
vt 0.250488 0.000000
vt 0.625000 0.062500
vt 0.625000 0.000000
vt 0.750000 0.000000
vt 0.124512 0.000000
vt 0.062012 0.000000
vt 1.000000 0.000000
vt 0.749929 0.125000
vt 0.625000 0.125000
vt 0.250488 0.125000
vt 0.125000 0.125000
vt 0.500977 0.000000
vt 0.000000 0.125000
vt 0.189076 0.125000
vt 0.193333 0.062500
vt 0.000000 0.062500
vt 1.000000 0.125000
vt 1.000000 0.062500
vt 0.750000 0.062500
vt 0.750000 0.125000
vt 0.250488 0.000000
vt 0.250488 0.062988
vt 0.626465 0.062500
vt 0.626465 0.000000
vt 0.500977 0.125000
vt 0.500977 0.062500
vt 0.250488 0.062500
vt 0.250488 0.125000
vt 0.001953 0.062500
vt 0.001953 0.125000
vt 0.250488 0.062500
vt 0.250488 0.125000
vt 0.626465 0.125000
vt 0.625488 0.062500
vt 0.625488 0.000000
vt 0.295685 0.000000
vt 0.295685 0.062500
vt 0.125000 0.062500
vt 0.250488 0.000000
vt 0.125000 0.000000
vt 0.625000 0.062500
vt 0.750000 0.000000
vt 0.625000 0.000000
vt 0.001953 0.000000
vt 1.000000 0.000000
vt 0.625000 0.125000
vt 0.749929 0.125000
vt 0.125000 0.125000
vt 0.250488 0.125000
vt 0.500977 0.000000
vt 0.000000 0.125488
vt 0.373047 0.125488
vt 0.373047 0.249023
vt 0.000000 0.249023
vt 0.122070 0.000000
vt 0.748535 0.000000
vt 0.748535 0.125000
vt 0.122070 0.125000
vt 0.122070 0.000000
vt 0.748535 0.000000
vt 0.748535 0.125000
vt 0.122070 0.125000
vt 0.000000 0.125488
vt 0.373047 0.125488
vt 0.373047 0.249023
vt 0.000000 0.249023
vt 0.290886 0.125000
vt 0.625488 0.125000
vt 0.189076 0.125000
vt 0.290886 0.125000
vt 0.193333 0.000000
vt 4.905273 0.125000
vt 0.000000 0.125000
vt 0.000000 0.000000
vt 4.905273 0.000000
vt 0.000000 -0.000000
vt 2.588379 0.249023
vt -0.000000 0.249023
vt -0.000000 0.125488
vt 2.588379 0.125488
vt 0.193333 0.000000
vt 0.290886 0.125000
vt 0.625488 0.125000
vt 0.000000 -0.000000
vt 0.189076 0.125000
vt 0.290886 0.125000
vt 2.588379 0.249023
vt 2.588379 0.125488
vt -0.000000 0.125488
vt -0.000000 0.249023
vt 4.905273 0.125000
vt 4.905273 0.000000
vt 0.000000 0.000000
vt 0.000000 0.125000
vn 0.6210 -0.7838 0.0000
vn 0.6962 -0.7178 0.0000
vn 0.6949 -0.7190 0.0000
vn -0.6210 -0.7838 0.0000
vn 0.0000 -1.0000 0.0000
vn 0.0000 0.0000 -1.0000
vn -0.9938 -0.1108 0.0000
vn -0.9754 -0.2203 0.0000
vn -0.8954 -0.4451 0.0000
vn -0.7645 -0.6446 0.0000
vn 0.7645 -0.6446 0.0000
vn -1.0000 0.0000 0.0000
vn 0.8954 -0.4451 0.0000
vn 0.9754 -0.2203 0.0000
vn -0.6962 -0.7178 0.0000
vn 0.9938 -0.1108 0.0000
vn 1.0000 0.0000 0.0000
vn 0.9939 -0.1104 0.0000
vn -0.7071 0.0000 -0.7071
vn -0.6897 -0.1558 -0.7071
vn -0.5772 -0.2869 -0.7645
vn -0.4756 -0.4903 -0.7303
vn -0.4391 -0.5542 -0.7071
vn -0.5406 -0.4558 -0.7071
vn 0.0000 -0.4816 -0.8764
vn -0.6761 -0.0754 -0.7329
vn 0.7071 0.0000 -0.7071
vn 0.5772 -0.2869 -0.7645
vn 0.6897 -0.1558 -0.7071
vn 0.4391 -0.5542 -0.7071
vn 0.4756 -0.4903 -0.7303
vn 0.5406 -0.4558 -0.7071
vn 0.6975 -0.7165 0.0000
vn 0.6761 -0.0754 -0.7329
vn 0.9938 -0.1113 0.0000
usemtl Material.001
s 1
f 42/1/1 31/2/1 6/3/2 156/4/3
f 41/5/4 28/6/4 8/7/5 142/8/5
f 122/9/6 160/10/6 163/11/6 103/12/6
f 147/13/7 13/14/7 63/15/8 45/16/8
f 118/17/6 121/18/6 102/19/6 104/20/6
f 155/21/9 11/22/9 62/23/10 47/24/10
f 156/4/3 6/3/2 61/25/11 60/26/11
f 147/13/7 145/27/12 170/28/12 13/14/7
f 106/29/6 124/30/6 119/31/6
f 117/32/6 127/33/6 129/34/6 109/35/6
f 125/36/6 105/37/6 101/38/6 136/39/6
f 149/40/13 3/41/13 64/42/14 57/43/14
f 110/44/6 133/45/6 113/46/6 115/47/6 108/48/6
f 107/49/6 131/50/6 97/51/6 100/52/6
f 143/53/15 9/54/15 28/6/4 41/5/4
f 142/8/5 8/7/5 31/2/1 42/1/1
f 4/55/16 173/56/17 151/57/17 153/58/18
f 60/26/11 61/25/11 3/41/13 149/40/13
f 47/24/10 62/23/10 9/54/15 143/53/15
f 45/16/8 63/15/8 11/22/9 155/21/9
f 57/43/14 64/42/14 4/55/16 153/58/18
f 164/59/6 141/60/6 135/61/6 111/62/6
f 12/63/6 10/64/6 93/65/6 94/66/6
f 7/67/6 2/68/6 91/69/6 92/70/6
f 10/64/6 7/67/6 92/70/6 93/65/6
f 2/68/6 1/71/6 90/72/6 91/69/6
usemtl Arena_Trim_2
f 23/73/6 21/74/19 77/75/19 75/76/6
f 116/77/6 114/78/6 44/79/20 25/80/21
f 98/81/6 130/82/6 27/83/22 29/84/23
f 18/85/6 128/86/6 46/87/24 27/88/22
f 99/89/6 30/90/6 29/91/23 26/92/25
f 27/83/22 37/93/15 144/94/4 29/95/23
f 24/96/26 76/97/19 146/98/12 39/99/7
f 25/100/21 38/101/9 150/102/10 46/87/24
f 24/103/26 39/104/7 154/105/8 44/79/20
f 29/91/23 144/106/4 36/107/5 26/92/25
f 44/79/20 154/105/8 38/108/9 25/80/21
f 44/79/20 43/109/6 134/110/6 24/103/26
f 46/87/24 48/111/6 19/112/6 25/100/21
f 46/87/24 150/102/10 37/113/15 27/88/22
f 22/114/6 138/115/6 84/116/27 49/117/27
f 120/118/6 51/119/28 56/120/29 158/121/6
f 137/122/6 53/123/30 52/124/31 17/125/6
f 126/126/6 52/127/31 58/128/32 159/129/6
f 99/89/6 26/92/25 53/130/30 32/131/6
f 52/124/31 53/132/30 54/133/1 35/134/33
f 50/135/34 34/136/35 152/137/17 82/138/27
f 51/139/28 58/128/32 148/140/11 33/141/13
f 50/142/34 56/120/29 157/143/14 34/144/35
f 53/130/30 26/92/25 36/107/5 54/145/1
f 56/120/29 51/119/28 33/146/13 157/143/14
f 56/120/29 50/142/34 123/147/6 55/148/6
f 58/128/32 51/139/28 15/149/6 59/150/6
f 58/128/32 52/127/31 35/151/33 148/140/11
f 112/152/6 140/153/6 132/154/6 5/155/6
f 66/156/6 161/157/6 139/158/6 69/159/6
f 68/160/6 67/161/6 165/162/6 166/163/6
f 72/164/6 71/165/6 73/166/6 167/167/6
f 74/168/6 76/97/19 24/96/26 20/169/6
f 169/170/6 77/75/19 76/97/19 168/171/6
f 146/98/12 76/97/19 77/75/19 171/172/12
f 78/173/12 79/174/12 172/175/12 80/176/12
f 171/172/12 77/75/19 21/74/19 40/177/12
f 95/178/12 81/179/12 96/180/12 14/181/12
f 82/138/27 152/137/17 175/182/17 84/116/27
f 82/138/27 162/183/6 16/184/6 50/135/34
f 84/116/27 175/182/17 177/185/17 49/117/27
f 84/116/27 70/186/6 65/187/6 82/138/27
f 176/188/17 89/189/17 88/190/17 174/191/17
f 85/192/17 87/193/17 86/194/17 83/195/17
