# Blender v2.90.0 OBJ File: 'arenamodkit.blend'
# www.blender.org
mtllib DoorWall_01.mtl
o Wall_01__38_.001_Scene.002
v 0.000002 6.000000 4.000001
v -0.000000 -0.000000 4.000000
v 0.000000 0.400000 4.000000
v 0.000000 0.600000 4.000000
v 0.000000 0.800000 4.000000
v 0.000001 1.600000 4.000000
v 0.000001 1.000000 4.000000
v 0.000001 2.200000 4.000000
v 0.000000 1.800000 4.000000
v 0.000000 2.000000 4.000000
v 0.000001 2.615749 4.000000
v 0.000001 3.225691 4.000000
v 0.000002 4.385001 4.000000
v 0.000059 0.600001 1.412158
v 0.000061 2.615749 1.412158
v 0.000059 2.003997 1.412158
v 0.000060 1.000000 1.412158
v 0.000059 0.800000 1.412158
v 0.000059 0.400000 1.412158
v 0.000060 2.200000 1.412158
v 0.000066 3.225691 1.228832
v 0.000066 0.000001 1.140378
v 0.000060 1.600000 1.412158
v 0.000059 1.800000 1.412158
v 0.000077 3.798791 0.821340
v 0.000002 3.798791 4.000000
v 0.000059 0.000001 1.412158
v 0.000068 2.615749 1.140378
v 0.000066 0.400000 1.140378
v 0.000071 3.100000 0.978610
v 0.000066 1.600000 1.140378
v 0.000082 3.606195 0.618690
v 0.000067 2.200000 1.140378
v 0.000067 2.003997 1.140378
v 0.000066 1.800000 1.140378
v 0.000066 1.000000 1.140378
v 0.000066 0.800000 1.140378
v 0.000066 0.600001 1.140378
v -0.229844 3.100002 0.978604
v -0.229848 2.615752 1.140373
v -0.229834 3.606197 0.618685
v -0.229850 0.600003 1.140373
v -0.229850 0.400003 1.140373
v -0.229849 2.200002 1.140373
v -0.229850 1.000002 1.140373
v -0.229850 1.600002 1.140373
v -0.229850 0.000003 1.140373
v -0.229849 2.003999 1.140373
v -0.229850 1.800002 1.140373
v -0.229850 0.800002 1.140373
v 0.000189 6.000000 -4.000000
v 0.000187 0.000000 -4.000000
v 0.000187 0.400000 -4.000000
v 0.000187 0.600000 -4.000000
v 0.000187 0.800000 -4.000000
v 0.000188 1.600000 -4.000000
v 0.000187 1.000000 -4.000000
v 0.000188 2.200000 -4.000000
v 0.000187 1.800000 -4.000000
v 0.000187 2.000000 -4.000000
v 0.000188 2.615750 -4.000000
v 0.000188 3.225691 -4.000000
v 0.000189 4.385001 -4.000000
v 0.000125 0.600001 -1.412158
v 0.000127 2.615749 -1.412158
v 0.000125 2.003997 -1.412158
v 0.000126 1.000000 -1.412158
v 0.000125 0.800000 -1.412158
v 0.000125 0.400001 -1.412158
v 0.000126 2.200000 -1.412158
v 0.000123 3.225691 -1.228832
v 0.000119 0.000001 -1.140378
v 0.000126 1.600000 -1.412158
v 0.000125 1.800001 -1.412158
v 0.000116 3.798791 -0.821340
v 0.000188 3.798792 -4.000000
v 0.000125 0.000001 -1.412158
v 0.000121 2.615749 -1.140378
v 0.000119 0.400001 -1.140378
v 0.000117 3.100000 -0.978610
v 0.000120 1.600000 -1.140378
v 0.000111 3.606195 -0.618690
v 0.000120 2.200000 -1.140378
v 0.000120 2.003997 -1.140378
v 0.000120 1.800000 -1.140378
v 0.000119 1.000000 -1.140378
v 0.000119 0.800000 -1.140378
v 0.000119 0.600001 -1.140378
v 0.000002 6.000000 0.000000
v 0.000094 4.385000 0.000000
v 0.000094 4.048440 0.000000
v -0.229822 3.606197 -0.000005
v -0.229822 3.100002 -0.000005
v -0.229799 3.100002 -0.978615
v -0.229795 2.615752 -1.140383
v -0.229805 3.606197 -0.618695
v -0.229822 4.048442 -0.000005
v -0.229916 0.600003 -0.000005
v -0.229797 0.600003 -1.140383
v -0.229915 0.800002 -0.000005
v -0.229915 1.000002 -0.000005
v -0.229916 0.400003 -0.000005
v -0.229915 1.800003 -0.000005
v -0.229915 1.600002 -0.000005
v -0.229797 0.400003 -1.140383
v -0.229796 2.200002 -1.140383
v -0.229915 2.615752 -0.000005
v -0.229797 1.000002 -1.140383
v -0.229796 1.600002 -1.140383
v -0.229915 2.200002 -0.000005
v -0.229915 2.003999 -0.000005
v -0.229916 0.000002 -0.000005
v -0.229797 0.000003 -1.140383
v -0.229796 2.003999 -1.140383
v -0.229796 1.800002 -1.140383
v -0.229797 0.800002 -1.140383
vt -0.470703 0.416992
vt 0.528809 0.416992
vt 0.529297 0.820801
vt -0.470703 0.820801
vt -0.470703 0.270508
vt 0.323730 0.270508
vt 0.221680 0.127441
vt -0.470703 0.127441
vt -0.470703 -0.025391
vt 0.176270 -0.025391
vt 1.528809 0.416992
vt 1.528809 0.820801
vt 0.734375 0.270508
vt 1.528809 0.270508
vt 0.836426 0.127441
vt 0.881836 -0.025391
vt 1.528809 -0.025391
vt 1.528809 0.127441
vt 0.687500 0.050781
vt 0.562500 0.050781
vt 0.562500 0.000000
vt 0.687500 0.000000
vt 0.646973 0.000000
vt 0.000000 0.000000
vt 0.000000 0.099121
vt 0.634277 0.099121
vt 0.765610 0.452499
vt -0.499512 0.451172
vt -0.499512 0.399902
vt 0.765610 0.400520
vt 0.234390 0.451481
vt 1.499512 0.451172
vt 1.499512 0.399902
vt 0.234390 0.400520
vt 0.367285 0.449219
vt 1.000000 0.449219
vt 1.000000 0.499023
vt 0.367285 0.499023
vt 0.309570 0.399902
vt 0.942383 0.399414
vt 0.942383 0.249512
vt 0.309570 0.250000
vt 0.309570 0.099609
vt 0.942383 0.099609
vt 0.942383 0.000000
vt 0.309570 0.000000
vt 0.634275 0.505610
vt 0.000000 0.500000
vt 0.000000 0.450195
vt 0.632715 0.451506
vt 0.367285 0.500618
vt 1.000000 0.500000
vt 1.000000 0.450195
vt 0.367285 0.450504
vt 0.632716 0.449341
vt 0.000000 0.449341
vt 0.000000 0.499023
vt 0.632716 0.499023
vt 0.471191 0.050781
vt 0.471191 0.000000
vt 0.562988 0.000000
vt 0.562988 0.050781
vt 0.687988 0.000000
vt 0.687988 0.050781
vt 0.247559 0.050781
vt 0.247559 0.000000
vt 0.359375 0.000000
vt 0.359375 0.050781
vt 0.812988 0.050781
vt 0.812988 0.000000
vt 0.937988 0.000000
vt 0.937988 0.050781
vt 0.061523 0.050781
vt 0.061523 0.000000
vt 0.136230 0.000000
vt 0.136230 0.050781
vt 0.434082 0.050781
vt 0.395996 0.050781
vt 0.395996 0.000000
vt 0.434082 0.000000
vt 0.359375 0.050781
vt 0.247070 0.050781
vt 0.247070 0.000000
vt 0.359375 0.000000
vt 0.136230 0.050781
vt 0.061523 0.050781
vt 0.061523 0.000000
vt 0.136230 0.000000
vt 0.173340 0.000000
vt 0.173340 0.050781
vt 0.434082 0.050781
vt 0.434082 0.000000
vt 0.396484 0.050781
vt 0.396484 0.000000
vt 0.210449 0.050781
vt 0.210449 0.000000
vt 0.209961 0.050781
vt 0.209961 0.000000
vt 0.173340 0.050781
vt 0.173340 0.000000
vt 0.470703 0.050781
vt 0.470703 0.000000
vt 0.812500 0.050781
vt 0.812500 0.000000
vt 0.937988 0.050781
vt 0.937988 0.000000
vt 0.687500 0.050781
vt 0.687500 0.000000
vt 0.562500 0.000000
vt 0.562500 0.050781
vt 0.646973 0.000000
vt 0.634277 0.099121
vt 0.000000 0.099121
vt 0.000000 0.000000
vt 0.765610 0.452499
vt 0.765610 0.400520
vt -0.499512 0.399902
vt -0.499512 0.451172
vt 0.234390 0.451481
vt 0.234390 0.400520
vt 1.499512 0.399902
vt 1.499512 0.451172
vt 0.367285 0.449219
vt 0.367285 0.499023
vt 1.000000 0.499023
vt 1.000000 0.449219
vt 0.309570 0.399902
vt 0.309570 0.250000
vt 0.942383 0.249512
vt 0.942383 0.399414
vt 0.309570 0.099609
vt 0.309570 0.000000
vt 0.942383 0.000000
vt 0.942383 0.099609
vt 0.634275 0.505610
vt 0.632715 0.451506
vt 0.000000 0.450195
vt 0.000000 0.500000
vt 0.367285 0.500618
vt 0.367285 0.450504
vt 1.000000 0.450195
vt 1.000000 0.500000
vt 0.632716 0.449341
vt 0.632716 0.499023
vt 0.000000 0.499023
vt 0.000000 0.449341
vt 0.471191 0.050781
vt 0.562988 0.050781
vt 0.562988 0.000000
vt 0.471191 0.000000
vt 0.687988 0.050781
vt 0.687988 0.000000
vt 0.247559 0.050781
vt 0.359375 0.050781
vt 0.359375 0.000000
vt 0.247559 0.000000
vt 0.812988 0.050781
vt 0.812988 0.000000
vt 0.061523 0.050781
vt 0.136230 0.050781
vt 0.136230 0.000000
vt 0.061523 0.000000
vt 0.434082 0.050781
vt 0.434082 0.000000
vt 0.395996 0.000000
vt 0.395996 0.050781
vt 0.359375 0.050781
vt 0.359375 0.000000
vt 0.247070 0.000000
vt 0.247070 0.050781
vt 0.136230 0.050781
vt 0.136230 0.000000
vt 0.061523 0.000000
vt 0.061523 0.050781
vt 0.173340 0.050781
vt 0.173340 0.000000
vt 0.434082 0.050781
vt 0.434082 0.000000
vt 0.396484 0.000000
vt 0.396484 0.050781
vt 0.210449 0.000000
vt 0.210449 0.050781
vt 0.209961 0.000000
vt 0.209961 0.050781
vt 0.173340 0.000000
vt 0.173340 0.050781
vt 0.470703 0.050781
vt 0.470703 0.000000
vt 0.812500 0.050781
vt 0.812500 0.000000
vt 0.087891 0.874023
vt -0.482422 0.874023
vt -0.482422 0.773926
vt 0.087891 0.773926
vt 0.087891 1.523926
vt -0.401367 1.523926
vt -0.482422 1.282227
vt 0.087891 1.282227
vt 0.087891 0.374023
vt -0.482422 0.374023
vt -0.482422 0.273926
vt 0.087891 0.273926
vt 0.087891 0.174316
vt -0.482422 0.174316
vt -0.482422 -0.025879
vt 0.087891 -0.025879
vt 0.087891 1.777344
vt -0.221680 1.777344
vt 0.087891 1.998535
vt 0.087891 1.074219
vt -0.482422 1.074219
vt -0.482422 0.976074
vt 0.087891 0.976074
vt -0.482422 0.474121
vt 0.087891 0.474121
vt 0.658203 0.773926
vt 0.658203 0.874023
vt 0.658203 1.282227
vt 0.577148 1.523926
vt 0.658203 0.273926
vt 0.658203 0.374023
vt 0.658203 -0.025879
vt 0.658203 0.174316
vt 0.396973 1.777344
vt 0.658203 0.976074
vt 0.658203 1.074219
vt 0.658203 0.474121
vn 1.0000 0.0000 0.0000
vn 0.0000 -0.3168 -0.9485
vn 0.0000 -0.0000 -1.0000
vn 0.0000 -0.5795 -0.8150
vn 0.0000 -0.8135 -0.5815
vn -0.0000 -0.3168 0.9485
vn -0.0000 0.0000 1.0000
vn -0.0000 -0.5795 0.8150
vn -0.0000 -0.8135 0.5815
vn 1.0000 -0.0000 -0.0001
vn 1.0000 -0.0001 -0.0000
vn 1.0000 -0.0000 0.0001
vn 1.0000 -0.0001 0.0001
usemtl Arena_Brick_1.001
s off
f 13/1/1 90/2/1 89/3/1 1/4/1
f 13/1/1 26/5/1 25/6/1 90/2/1
f 21/7/1 12/8/1 11/9/1 15/10/1
f 26/5/1 12/8/1 21/7/1 25/6/1
f 63/11/1 51/12/1 89/3/1 90/2/1
f 63/11/1 90/2/1 75/13/1 76/14/1
f 71/15/1 65/16/1 61/17/1 62/18/1
f 76/14/1 75/13/1 71/15/1 62/18/1
usemtl Arena_Trim_2.001
f 30/19/2 28/20/2 40/21/2 39/22/2
f 15/23/1 11/24/1 8/25/1 20/26/1
f 16/27/1 10/28/1 9/29/1 24/30/1
f 18/31/1 5/32/1 4/33/1 14/34/1
f 24/35/1 9/36/1 6/37/1 23/38/1
f 23/39/1 6/40/1 7/41/1 17/42/1
f 19/43/1 3/44/1 2/45/1 27/46/1
f 20/47/1 8/48/1 10/49/1 16/50/1
f 17/51/1 7/52/1 5/53/1 18/54/1
f 14/55/1 4/56/1 3/57/1 19/58/1
f 20/59/1 33/60/1 28/61/1 15/62/1
f 15/62/1 28/61/1 30/63/1 21/64/1
f 17/65/1 36/66/1 31/67/1 23/68/1
f 25/69/1 32/70/1 91/71/1 90/72/1
f 27/73/1 22/74/1 29/75/1 19/76/1
f 34/77/3 35/78/3 49/79/3 48/80/3
f 21/64/1 30/63/1 32/70/1 25/69/1
f 31/81/3 36/82/3 45/83/3 46/84/3
f 29/85/3 22/86/3 47/87/3 43/88/3
f 19/76/1 29/75/1 38/89/1 14/90/1
f 16/91/1 34/92/1 33/60/1 20/59/1
f 16/91/1 24/93/1 35/94/1 34/92/1
f 24/93/1 23/68/1 31/67/1 35/94/1
f 17/65/1 18/95/1 37/96/1 36/66/1
f 18/95/1 14/90/1 38/89/1 37/96/1
f 36/82/3 37/97/3 50/98/3 45/83/3
f 37/97/3 38/99/3 42/100/3 50/98/3
f 38/99/3 29/85/3 43/88/3 42/100/3
f 33/101/3 34/77/3 48/80/3 44/102/3
f 28/20/3 33/101/3 44/102/3 40/21/3
f 35/78/3 31/81/3 46/84/3 49/79/3
f 32/103/4 30/19/4 39/22/4 41/104/4
f 91/105/5 32/103/5 41/104/5 97/106/5
f 80/107/6 94/108/6 95/109/6 78/110/6
f 65/111/1 70/112/1 58/113/1 61/114/1
f 66/115/1 74/116/1 59/117/1 60/118/1
f 68/119/1 64/120/1 54/121/1 55/122/1
f 74/123/1 73/124/1 56/125/1 59/126/1
f 73/127/1 67/128/1 57/129/1 56/130/1
f 69/131/1 77/132/1 52/133/1 53/134/1
f 70/135/1 66/136/1 60/137/1 58/138/1
f 67/139/1 68/140/1 55/141/1 57/142/1
f 64/143/1 69/144/1 53/145/1 54/146/1
f 70/147/1 65/148/1 78/149/1 83/150/1
f 65/148/1 71/151/1 80/152/1 78/149/1
f 67/153/1 73/154/1 81/155/1 86/156/1
f 75/157/1 90/72/1 91/71/1 82/158/1
f 77/159/1 69/160/1 79/161/1 72/162/1
f 84/163/7 114/164/7 115/165/7 85/166/7
f 71/151/1 75/157/1 82/158/1 80/152/1
f 81/167/7 109/168/7 108/169/7 86/170/7
f 79/171/7 105/172/7 113/173/7 72/174/7
f 69/160/1 64/175/1 88/176/1 79/161/1
f 66/177/1 70/147/1 83/150/1 84/178/1
f 66/177/1 84/178/1 85/179/1 74/180/1
f 74/180/1 85/179/1 81/155/1 73/154/1
f 67/153/1 86/156/1 87/181/1 68/182/1
f 68/182/1 87/181/1 88/176/1 64/175/1
f 86/170/7 108/169/7 116/183/7 87/184/7
f 87/184/7 116/183/7 99/185/7 88/186/7
f 88/186/7 99/185/7 105/172/7 79/171/7
f 83/187/7 106/188/7 114/164/7 84/163/7
f 78/110/7 95/109/7 106/188/7 83/187/7
f 85/166/7 115/165/7 109/168/7 81/167/7
f 82/189/8 96/190/8 94/108/8 80/107/8
f 91/105/9 97/106/9 96/190/9 82/189/9
usemtl Material
f 103/191/10 49/192/10 46/193/10 104/194/10
f 93/195/11 39/196/11 40/197/11 107/198/11
f 100/199/10 50/200/10 42/201/10 98/202/10
f 102/203/10 43/204/10 47/205/10 112/206/10
f 39/196/1 93/195/1 92/207/1 41/208/1
f 92/207/1 97/209/1 41/208/1
f 98/202/10 42/201/10 43/204/10 102/203/10
f 110/210/10 44/211/10 48/212/10 111/213/10
f 111/213/10 48/212/10 49/192/10 103/191/10
f 104/194/10 46/193/10 45/214/10 101/215/10
f 101/215/10 45/214/10 50/200/10 100/199/10
f 107/198/10 40/197/10 44/211/10 110/210/10
f 103/191/12 104/194/12 109/216/12 115/217/12
f 93/195/13 107/198/13 95/218/13 94/219/13
f 100/199/12 98/202/12 99/220/12 116/221/12
f 102/203/12 112/206/12 113/222/12 105/223/12
f 94/219/1 96/224/1 92/207/1 93/195/1
f 92/207/1 96/224/1 97/209/1
f 98/202/12 102/203/12 105/223/12 99/220/12
f 110/210/12 111/213/12 114/225/12 106/226/12
f 111/213/12 103/191/12 115/217/12 114/225/12
f 104/194/12 101/215/12 108/227/12 109/216/12
f 101/215/12 100/199/12 116/221/12 108/227/12
f 107/198/12 110/210/12 106/226/12 95/218/12
