# Blender v2.90.0 OBJ File: 'arenamodkit.blend'
# www.blender.org
mtllib Wall_02.mtl
o Plane.002_Plane.030
v 0.000000 -0.000000 0.000000
v 0.000002 6.000000 0.000000
v -0.000000 -0.000000 -8.000000
v 0.000001 6.000000 -8.000000
v 0.000000 0.800000 0.000000
v -0.000000 0.800000 -8.000000
v 0.000001 5.600000 0.000000
v 0.000001 5.600000 -8.000000
v 0.000000 1.254191 -8.000000
v 0.000000 1.254191 0.000000
vt 0.914551 2.265486
vt -1.086914 2.265485
vt -1.086914 1.266602
vt 0.914551 1.266602
vt -0.123047 0.125000
vt 0.754883 0.125000
vt 0.754883 0.249023
vt -0.123047 0.249023
vt 2.053711 0.249023
vt -0.015137 0.249023
vt -0.015137 0.124512
vt 2.053711 0.124512
vt 1.843750 0.248535
vt -0.232910 0.248535
vt -0.232910 0.125977
vt 1.843750 0.125977
vn -1.0000 0.0000 0.0000
usemtl Material.001
s off
f 7/1/1 8/2/1 9/3/1 10/4/1
usemtl Material.005
f 5/5/1 6/6/1 3/7/1 1/8/1
f 10/9/1 9/10/1 6/11/1 5/12/1
f 2/13/1 4/14/1 8/15/1 7/16/1
