# Blender v2.90.0 OBJ File: 'untitled.blend'
# www.blender.org
mtllib beam_01.mtl
o Cube.006_Cube.032
v -10.186040 -1.845524 10.140642
v -10.186040 -1.368464 10.140642
v -10.186040 -1.845524 -9.850352
v -10.186040 -1.368464 -9.850352
v -9.708980 -1.845524 10.140642
v -9.708980 -1.368464 10.140642
v -9.708980 -1.845524 -9.850352
v -9.708980 -1.368464 -9.850352
vt 4.489741 0.261777
vt 4.489741 0.492861
vt -3.489741 0.492860
vt -3.489741 0.261772
vt 4.489741 0.261772
vt 4.489741 0.492856
vt -3.489741 0.492861
vt -3.489741 0.261772
vt 4.489741 0.261776
vt 4.489741 0.492861
vt -3.489741 0.492861
vt -3.489741 0.261772
vt 4.489741 0.261772
vt 4.489741 0.492856
vt -3.489741 0.492861
vt -3.489741 0.261772
vt 0.185936 0.001832
vt 0.185936 0.097471
vt 0.065257 0.097471
vt 0.065257 0.001832
vt 0.185936 0.002206
vt 0.185936 0.097845
vt 0.065257 0.097845
vt 0.065257 0.002206
vn -1.0000 0.0000 0.0000
vn 1.0000 0.0000 0.0000
vn 0.0000 -1.0000 0.0000
vn 0.0000 1.0000 0.0000
vn 0.0000 0.0000 -1.0000
vn 0.0000 0.0000 1.0000
usemtl wood
s off
f 1/1/1 2/2/1 4/3/1 3/4/1
f 7/5/2 8/6/2 6/7/2 5/8/2
f 3/9/3 7/10/3 5/11/3 1/12/3
f 8/13/4 4/14/4 2/15/4 6/16/4
f 3/17/5 4/18/5 8/19/5 7/20/5
f 1/21/6 5/22/6 6/23/6 2/24/6
