# Blender v2.90.0 OBJ File: 'untitled.blend'
# www.blender.org
mtllib beam_02.mtl
o Cube.008_Cube.033
v -9.721151 -1.828017 9.679263
v -9.721151 -1.350957 9.679263
v 9.430861 -1.828017 9.679264
v 9.430861 -1.350957 9.679264
v -9.721151 -1.828017 10.156322
v -9.721151 -1.350957 10.156322
v 9.430861 -1.828017 10.156323
v 9.430861 -1.350957 10.156323
vt 4.489741 0.261777
vt 4.489741 0.492861
vt -3.489741 0.492860
vt -3.489741 0.261772
vt 4.489741 0.261772
vt 4.489741 0.492856
vt -3.489741 0.492861
vt -3.489741 0.261772
vt 4.489741 0.261776
vt 4.489741 0.492861
vt -3.489741 0.492861
vt -3.489741 0.261772
vt 4.489741 0.261772
vt 4.489741 0.492856
vt -3.489741 0.492861
vt -3.489741 0.261772
vt 0.179235 0.002671
vt 0.179235 0.097981
vt 0.076905 0.097981
vt 0.076905 0.002671
vt 0.179235 0.002671
vt 0.179235 0.097981
vt 0.076905 0.097981
vt 0.076905 0.002671
vn 0.0000 0.0000 -1.0000
vn -0.0000 0.0000 1.0000
vn 0.0000 -1.0000 0.0000
vn 0.0000 1.0000 0.0000
vn 1.0000 0.0000 0.0000
vn -1.0000 0.0000 0.0000
usemtl wood
s off
f 1/1/1 2/2/1 4/3/1 3/4/1
f 7/5/2 8/6/2 6/7/2 5/8/2
f 3/9/3 7/10/3 5/11/3 1/12/3
f 8/13/4 4/14/4 2/15/4 6/16/4
f 3/17/5 4/18/5 8/19/5 7/20/5
f 1/21/6 5/22/6 6/23/6 2/24/6
