# Blender v2.90.0 OBJ File: 'untitled.blend'
# www.blender.org
mtllib Platform.mtl
o Cube.017_Cube.031
v -1.558534 -5.664006 -0.863096
v 1.560781 -5.664006 -0.863097
v -1.558534 -5.573001 -0.863096
v -1.536664 -5.664006 -0.533372
v 1.560781 -5.664006 -0.530816
v -1.536664 -5.573001 -0.533372
v 1.560781 -5.573001 -0.530816
v 1.560781 -5.573001 -0.863097
v -1.226798 -5.571084 -1.559657
v -1.226798 -5.480079 -1.559657
v -1.229660 -5.571084 1.549433
v -1.229660 -5.480079 1.549433
v -1.556523 -5.571084 -1.546023
v -1.556523 -5.480079 -1.546023
v -1.559078 -5.571084 1.545342
v -1.559078 -5.480079 1.545342
v -0.878312 -5.571084 -1.530209
v -0.877902 -5.571084 1.559658
v -0.878312 -5.480079 -1.530209
v -1.210184 -5.571084 -1.559657
v -1.210183 -5.571084 1.559658
v -1.210184 -5.480079 -1.559657
v -1.210183 -5.480079 1.559658
v -0.877902 -5.480079 1.559658
v -0.529008 -5.571084 -1.559657
v -0.535960 -5.571084 1.534299
v -0.529008 -5.480079 -1.559657
v -0.861289 -5.571084 -1.559657
v -0.861288 -5.571084 1.559658
v -0.861289 -5.480079 -1.559657
v -0.861288 -5.480079 1.559658
v -0.535960 -5.480079 1.534299
v -0.180112 -5.571084 -1.559657
v -0.183384 -5.571084 1.536344
v -0.180112 -5.480079 -1.559657
v -0.506258 -5.571084 -1.541661
v -0.515665 -5.571084 1.536344
v -0.506258 -5.480079 -1.541661
v -0.515665 -5.480079 1.536344
v -0.183384 -5.480079 1.536344
v 0.169067 -5.571084 -1.542047
v 0.168783 -5.571084 1.559658
v 0.169067 -5.480079 -1.542047
v -0.163498 -5.571084 -1.559657
v -0.163498 -5.571084 1.559658
v -0.163498 -5.480079 -1.559657
v -0.163498 -5.480079 1.559658
v 0.168783 -5.480079 1.559658
v 0.517678 -5.571084 -1.559658
v 0.517679 -5.571084 1.559657
v 0.517678 -5.480079 -1.559658
v 0.185397 -5.571084 -1.559657
v 0.192351 -5.571084 1.540434
v 0.185397 -5.480079 -1.559657
v 0.192351 -5.480079 1.540434
v 0.517679 -5.480079 1.559657
v 0.866573 -5.571084 -1.559658
v 0.866574 -5.571084 1.559657
v 0.866573 -5.480079 -1.559658
v 0.536849 -5.571084 -1.537787
v 0.534293 -5.571084 1.559657
v 0.536849 -5.480079 -1.537787
v 0.534293 -5.480079 1.559657
v 0.866574 -5.480079 1.559657
v 1.215469 -5.571084 -1.559658
v 1.213016 -5.571084 1.538798
v 1.215469 -5.480079 -1.559658
v 0.886051 -5.571084 -1.542888
v 0.880734 -5.571084 1.538798
v 0.886051 -5.480079 -1.542888
v 0.880734 -5.480079 1.538798
v 1.213016 -5.480079 1.538798
v 1.564364 -5.571084 -1.528539
v 1.550049 -5.571084 1.511803
v 1.564364 -5.480079 -1.528539
v 1.232083 -5.571084 -1.538355
v 1.232084 -5.571084 1.559657
v 1.232083 -5.480079 -1.538355
v 1.232084 -5.480079 1.559657
v 1.550049 -5.480079 1.511803
v -1.558534 -5.664006 0.532484
v 1.535422 -5.664006 0.539437
v -1.558534 -5.573001 0.532484
v -1.558534 -5.664006 0.864765
v 1.560781 -5.664006 0.864765
v -1.558534 -5.573001 0.864765
v 1.560781 -5.573001 0.864765
v 1.535422 -5.573001 0.539437
v -1.540924 -5.664006 -0.165590
v 1.560781 -5.664006 -0.165307
v -1.540924 -5.573001 -0.165590
v -1.558534 -5.664006 0.166975
v 1.560781 -5.664006 0.166974
v -1.558534 -5.573001 0.166975
v 1.560781 -5.573001 0.166974
v 1.560781 -5.573001 -0.165307
vt -0.628548 0.252885
vt -0.628548 0.499470
vt -4.127320 0.499470
vt -4.127320 0.252885
vt -1.253273 0.247860
vt -1.253273 0.181018
vt 2.146211 0.181018
vt 2.146211 0.247860
vt 0.243590 0.006316
vt 0.243590 0.093573
vt 0.000026 0.093573
vt 0.000026 0.006316
vt -0.737649 0.247860
vt -0.737649 0.181018
vt 2.661836 0.181018
vt 2.661836 0.247860
vt 4.326698 0.252885
vt 4.326698 0.499470
vt 0.827927 0.499470
vt 0.827927 0.252885
vt 0.242162 0.006647
vt 0.242162 0.093904
vt -0.001403 0.093904
vt -0.001403 0.006647
vt -1.253273 0.247860
vt -1.253273 0.181018
vt 2.146211 0.181018
vt 2.146211 0.247860
vt -0.737649 0.247860
vt -0.737649 0.181018
vt 2.661836 0.181018
vt 2.661836 0.247860
vt 1.312298 0.252885
vt 1.312298 0.499470
vt -2.186474 0.499470
vt -2.186474 0.252885
vt 1.852585 0.252885
vt 1.852585 0.499470
vt -1.646187 0.499470
vt -1.646187 0.252885
vt 0.242162 0.006647
vt 0.242162 0.093904
vt -0.001403 0.093904
vt -0.001403 0.006647
vt 0.243590 0.006316
vt 0.243590 0.093573
vt 0.000026 0.093573
vt 0.000026 0.006316
vt 1.312298 0.252885
vt 1.312298 0.499470
vt -2.186474 0.499470
vt -2.186474 0.252885
vt -1.253273 0.247860
vt -1.253273 0.181018
vt 2.146211 0.181018
vt 2.146211 0.247860
vt 0.243590 0.006316
vt 0.243590 0.093573
vt 0.000026 0.093573
vt 0.000026 0.006316
vt -0.737649 0.247860
vt -0.737649 0.181018
vt 2.661836 0.181018
vt 2.661836 0.247860
vt 5.306422 0.252885
vt 5.306422 0.499470
vt 1.807650 0.499470
vt 1.807650 0.252885
vt 0.242162 0.006647
vt 0.242162 0.093904
vt -0.001403 0.093904
vt -0.001403 0.006647
vt 1.312298 0.252885
vt 1.312298 0.499470
vt -2.186474 0.499470
vt -2.186474 0.252885
vt -1.253273 0.247860
vt -1.253273 0.181018
vt 2.146211 0.181018
vt 2.146211 0.247860
vt 0.243590 0.006316
vt 0.243590 0.093573
vt 0.000026 0.093573
vt 0.000026 0.006316
vt -0.737649 0.247860
vt -0.737649 0.181018
vt 2.661836 0.181018
vt 2.661836 0.247860
vt 12.232698 0.252885
vt 12.232698 0.499470
vt 8.733927 0.499470
vt 8.733927 0.252885
vt 0.242162 0.006647
vt 0.242162 0.093904
vt -0.001403 0.093904
vt -0.001403 0.006647
vt 1.312298 0.252885
vt 1.312298 0.499470
vt -2.186474 0.499470
vt -2.186474 0.252885
vt -1.253273 0.247860
vt -1.253273 0.181018
vt 2.146211 0.181018
vt 2.146211 0.247860
vt 0.243590 0.006316
vt 0.243590 0.093573
vt 0.000026 0.093573
vt 0.000026 0.006316
vt -0.737649 0.247860
vt -0.737649 0.181018
vt 2.661836 0.181018
vt 2.661836 0.247860
vt 1.858786 0.252885
vt 1.858786 0.499470
vt -1.639986 0.499470
vt -1.639986 0.252885
vt 0.242162 0.006647
vt 0.242162 0.093904
vt -0.001403 0.093904
vt -0.001403 0.006647
vt 1.312298 0.252885
vt 1.312298 0.499470
vt -2.186474 0.499470
vt -2.186474 0.252885
vt -1.253273 0.247860
vt -1.253273 0.181018
vt 2.146211 0.181018
vt 2.146211 0.247860
vt 0.243590 0.006316
vt 0.243590 0.093573
vt 0.000026 0.093573
vt 0.000026 0.006316
vt -0.737649 0.247860
vt -0.737649 0.181018
vt 2.661836 0.181018
vt 2.661836 0.247860
vt 4.326698 0.252885
vt 4.326698 0.499470
vt 0.827927 0.499470
vt 0.827927 0.252885
vt 0.242162 0.006647
vt 0.242162 0.093904
vt -0.001403 0.093904
vt -0.001403 0.006647
vt 1.312298 0.252885
vt 1.312298 0.499470
vt -2.186474 0.499470
vt -2.186474 0.252885
vt -1.253273 0.247860
vt -1.253273 0.181018
vt 2.146211 0.181018
vt 2.146211 0.247860
vt 0.243590 0.006316
vt 0.243590 0.093573
vt 0.000026 0.093573
vt 0.000026 0.006316
vt -0.737649 0.247860
vt -0.737649 0.181018
vt 2.661836 0.181018
vt 2.661836 0.247860
vt 1.921517 0.749963
vt 1.921517 0.996548
vt -0.036337 0.996548
vt -0.036337 0.749963
vt 0.242162 0.006647
vt 0.242162 0.093904
vt -0.001403 0.093904
vt -0.001403 0.006647
vt 1.312298 0.252885
vt 1.312298 0.499470
vt -2.186474 0.499470
vt -2.186474 0.252885
vt -1.253273 0.247860
vt -1.253273 0.181018
vt 2.146211 0.181018
vt 2.146211 0.247860
vt 0.243590 0.006316
vt 0.243590 0.093573
vt 0.000026 0.093573
vt 0.000026 0.006316
vt -0.737649 0.247860
vt -0.737649 0.181018
vt 2.661836 0.181018
vt 2.661836 0.247860
vt 2.119219 0.252885
vt 2.119219 0.499470
vt -1.379553 0.499470
vt -1.379553 0.252885
vt 0.242162 0.006647
vt 0.242162 0.093904
vt -0.001403 0.093904
vt -0.001403 0.006647
vt 1.312298 0.252885
vt 1.312298 0.499470
vt -2.186474 0.499470
vt -2.186474 0.252885
vt -1.253273 0.247860
vt -1.253273 0.181018
vt 2.146211 0.181018
vt 2.146211 0.247860
vt 0.243590 0.006316
vt 0.243590 0.093573
vt 0.000026 0.093573
vt 0.000026 0.006316
vt -0.737649 0.247860
vt -0.737649 0.181018
vt 2.661836 0.181018
vt 2.661836 0.247860
vt 14.620001 0.252885
vt 14.620001 0.499470
vt 11.121229 0.499470
vt 11.121229 0.252885
vt 0.242162 0.006647
vt 0.242162 0.093904
vt -0.001403 0.093904
vt -0.001403 0.006647
vt 1.312298 0.252885
vt 1.312298 0.499470
vt -2.186474 0.499470
vt -2.186474 0.252885
vt -1.253273 0.247860
vt -1.253273 0.181018
vt 2.146211 0.181018
vt 2.146211 0.247860
vt 0.243590 0.006316
vt 0.243590 0.093573
vt 0.000026 0.093573
vt 0.000026 0.006316
vt -0.737649 0.247860
vt -0.737649 0.181018
vt 2.661836 0.181018
vt 2.661836 0.247860
vt 2.925321 0.252885
vt 2.925321 0.499470
vt -0.573451 0.499470
vt -0.573451 0.252885
vt 0.242162 0.006647
vt 0.242162 0.093904
vt -0.001403 0.093904
vt -0.001403 0.006647
vt 1.312298 0.252885
vt 1.312298 0.499470
vt -2.186474 0.499470
vt -2.186474 0.252885
vt -1.253273 0.247860
vt -1.253273 0.181018
vt 2.146211 0.181018
vt 2.146211 0.247860
vt 0.243590 0.006316
vt 0.243590 0.093573
vt 0.000026 0.093573
vt 0.000026 0.006316
vt -0.737649 0.247860
vt -0.737649 0.181018
vt 2.661836 0.181018
vt 2.661836 0.247860
vt 4.326698 0.252885
vt 4.326698 0.499470
vt 0.827927 0.499470
vt 0.827927 0.252885
vt 0.242162 0.006647
vt 0.242162 0.093904
vt -0.001403 0.093904
vt -0.001403 0.006647
vt 1.312298 0.252885
vt 1.312298 0.499470
vt -2.186474 0.499470
vt -2.186474 0.252885
vt -1.253273 0.247860
vt -1.253273 0.181018
vt 2.146211 0.181018
vt 2.146211 0.247860
vt 0.243590 0.006316
vt 0.243590 0.093573
vt 0.000026 0.093573
vt 0.000026 0.006316
vt -0.737649 0.247860
vt -0.737649 0.181018
vt 2.661836 0.181018
vt 2.661836 0.247860
vt 4.326698 0.252885
vt 4.326698 0.499470
vt 0.827927 0.499470
vt 0.827927 0.252885
vt 0.242162 0.006647
vt 0.242162 0.093904
vt -0.001403 0.093904
vt -0.001403 0.006647
vn 0.0000 -1.0000 0.0000
vn -0.0000 0.0000 -1.0000
vn -0.9978 0.0000 0.0662
vn -0.0008 0.0000 1.0000
vn 0.0000 1.0000 -0.0000
vn 1.0000 0.0000 0.0000
vn 1.0000 0.0000 0.0009
vn -1.0000 0.0000 -0.0008
vn -0.0124 0.0000 0.9999
vn -0.0413 0.0000 -0.9991
vn 1.0000 0.0000 -0.0001
vn 0.0884 0.0000 -0.9961
vn -1.0000 0.0000 0.0000
vn 0.0000 0.0000 1.0000
vn 1.0000 0.0000 0.0022
vn 0.0777 0.0000 0.9970
vn 1.0000 0.0000 0.0011
vn -0.0551 0.0000 -0.9985
vn -1.0000 0.0000 -0.0031
vn 1.0000 0.0000 0.0001
vn 0.0529 0.0000 -0.9986
vn -1.0000 0.0000 0.0022
vn -0.0590 0.0000 0.9983
vn -0.0662 0.0000 -0.9978
vn 1.0000 0.0000 0.0008
vn -0.0508 0.0000 -0.9987
vn -1.0000 0.0000 -0.0017
vn 1.0000 0.0000 0.0047
vn 0.0295 0.0000 -0.9996
vn 0.1488 0.0000 0.9889
vn 0.0022 0.0000 -1.0000
vn 0.9970 0.0000 -0.0777
vn 0.0001 0.0000 -1.0000
vn -0.9986 0.0000 -0.0529
usemtl wood
s off
f 2/1/1 5/2/1 4/3/1 1/4/1
f 1/5/2 3/6/2 8/7/2 2/8/2
f 3/9/3 1/10/3 4/11/3 6/12/3
f 5/13/4 7/14/4 6/15/4 4/16/4
f 7/17/5 8/18/5 3/19/5 6/20/5
f 2/21/6 8/22/6 7/23/6 5/24/6
f 9/25/7 10/26/7 12/27/7 11/28/7
f 15/29/8 16/30/8 14/31/8 13/32/8
f 11/33/1 15/34/1 13/35/1 9/36/1
f 16/37/5 12/38/5 10/39/5 14/40/5
f 11/41/9 12/42/9 16/43/9 15/44/9
f 10/45/10 9/46/10 13/47/10 14/48/10
f 18/49/1 21/50/1 20/51/1 17/52/1
f 17/53/11 19/54/11 24/55/11 18/56/11
f 19/57/12 17/58/12 20/59/12 22/60/12
f 21/61/13 23/62/13 22/63/13 20/64/13
f 23/65/5 24/66/5 19/67/5 22/68/5
f 18/69/14 24/70/14 23/71/14 21/72/14
f 26/73/1 29/74/1 28/75/1 25/76/1
f 25/77/15 27/78/15 32/79/15 26/80/15
f 27/81/2 25/82/2 28/83/2 30/84/2
f 29/85/13 31/86/13 30/87/13 28/88/13
f 31/89/5 32/90/5 27/91/5 30/92/5
f 26/93/16 32/94/16 31/95/16 29/96/16
f 34/97/1 37/98/1 36/99/1 33/100/1
f 33/101/17 35/102/17 40/103/17 34/104/17
f 35/105/18 33/106/18 36/107/18 38/108/18
f 37/109/19 39/110/19 38/111/19 36/112/19
f 39/113/5 40/114/5 35/115/5 38/116/5
f 34/117/14 40/118/14 39/119/14 37/120/14
f 42/121/1 45/122/1 44/123/1 41/124/1
f 41/125/20 43/126/20 48/127/20 42/128/20
f 43/129/21 41/130/21 44/131/21 46/132/21
f 45/133/13 47/134/13 46/135/13 44/136/13
f 47/137/5 48/138/5 43/139/5 46/140/5
f 42/141/14 48/142/14 47/143/14 45/144/14
f 50/145/1 53/146/1 52/147/1 49/148/1
f 49/149/6 51/150/6 56/151/6 50/152/6
f 51/153/2 49/154/2 52/155/2 54/156/2
f 53/157/22 55/158/22 54/159/22 52/160/22
f 55/161/5 56/162/5 51/163/5 54/164/5
f 50/165/23 56/166/23 55/167/23 53/168/23
f 58/169/1 61/170/1 60/171/1 57/172/1
f 57/173/6 59/174/6 64/175/6 58/176/6
f 59/177/24 57/178/24 60/179/24 62/180/24
f 61/181/8 63/182/8 62/183/8 60/184/8
f 63/185/5 64/186/5 59/187/5 62/188/5
f 58/189/14 64/190/14 63/191/14 61/192/14
f 66/193/1 69/194/1 68/195/1 65/196/1
f 65/197/25 67/198/25 72/199/25 66/200/25
f 67/201/26 65/202/26 68/203/26 70/204/26
f 69/205/27 71/206/27 70/207/27 68/208/27
f 71/209/5 72/210/5 67/211/5 70/212/5
f 66/213/14 72/214/14 71/215/14 69/216/14
f 74/217/1 77/218/1 76/219/1 73/220/1
f 73/221/28 75/222/28 80/223/28 74/224/28
f 75/225/29 73/226/29 76/227/29 78/228/29
f 77/229/13 79/230/13 78/231/13 76/232/13
f 79/233/5 80/234/5 75/235/5 78/236/5
f 74/237/30 80/238/30 79/239/30 77/240/30
f 82/241/1 85/242/1 84/243/1 81/244/1
f 81/245/31 83/246/31 88/247/31 82/248/31
f 83/249/13 81/250/13 84/251/13 86/252/13
f 85/253/14 87/254/14 86/255/14 84/256/14
f 87/257/5 88/258/5 83/259/5 86/260/5
f 82/261/32 88/262/32 87/263/32 85/264/32
f 90/265/1 93/266/1 92/267/1 89/268/1
f 89/269/33 91/270/33 96/271/33 90/272/33
f 91/273/34 89/274/34 92/275/34 94/276/34
f 93/277/14 95/278/14 94/279/14 92/280/14
f 95/281/5 96/282/5 91/283/5 94/284/5
f 90/285/6 96/286/6 95/287/6 93/288/6
