# Blender v2.90.0 OBJ File: 'untitled.blend'
# www.blender.org
mtllib grate.mtl
o Cube.003_Cube.002
v 1.513103 0.069367 0.901775
v 1.513103 -0.069367 0.901775
v 1.513103 0.069367 1.040510
v 1.513103 -0.069367 1.040510
v -1.513103 0.069367 0.901775
v -1.513103 -0.069367 0.901775
v -1.513103 0.069367 1.040510
v -1.513103 -0.069367 1.040510
v 1.513103 0.069367 0.513318
v 1.513103 -0.069367 0.513318
v 1.513103 0.069367 0.652053
v 1.513103 -0.069367 0.652053
v -1.513103 0.069367 0.513318
v -1.513103 -0.069367 0.513318
v -1.513103 0.069367 0.652053
v -1.513103 -0.069367 0.652053
v 1.513103 0.069367 0.124861
v 1.513103 -0.069367 0.124861
v 1.513103 0.069367 0.263596
v 1.513103 -0.069367 0.263596
v -1.513103 0.069367 0.124861
v -1.513103 -0.069367 0.124861
v -1.513103 0.069367 0.263596
v -1.513103 -0.069367 0.263596
v 1.513103 0.069367 -0.263596
v 1.513103 -0.069367 -0.263596
v 1.513103 0.069367 -0.124861
v 1.513103 -0.069367 -0.124861
v -1.513103 0.069367 -0.263596
v -1.513103 -0.069367 -0.263596
v -1.513103 0.069367 -0.124861
v -1.513103 -0.069367 -0.124861
v 1.513103 0.069367 -0.652053
v 1.513103 -0.069367 -0.652053
v 1.513103 0.069367 -0.513318
v 1.513103 -0.069367 -0.513318
v -1.513103 0.069367 -0.652053
v -1.513103 -0.069367 -0.652053
v -1.513103 0.069367 -0.513318
v -1.513103 -0.069367 -0.513318
v 1.513103 0.069367 -1.040510
v 1.513103 -0.069367 -1.040510
v 1.513103 0.069367 -0.901776
v 1.513103 -0.069367 -0.901776
v -1.513103 0.069367 -1.040510
v -1.513103 -0.069367 -1.040510
v -1.513103 0.069367 -0.901776
v -1.513103 -0.069367 -0.901776
v -0.901776 0.107071 1.513103
v -0.901776 -0.031663 1.513103
v -1.040510 0.107071 1.513103
v -1.040510 -0.031663 1.513103
v -0.901775 0.107071 -1.513103
v -0.901775 -0.031663 -1.513103
v -1.040510 0.107071 -1.513103
v -1.040510 -0.031663 -1.513103
v -0.513318 0.107071 1.513103
v -0.513318 -0.031663 1.513103
v -0.652053 0.107071 1.513103
v -0.652053 -0.031663 1.513103
v -0.513318 0.107071 -1.513103
v -0.513318 -0.031663 -1.513103
v -0.652053 0.107071 -1.513103
v -0.652053 -0.031663 -1.513103
v -0.124861 0.107071 1.513103
v -0.124861 -0.031663 1.513103
v -0.263596 0.107071 1.513103
v -0.263596 -0.031663 1.513103
v -0.124861 0.107071 -1.513103
v -0.124861 -0.031663 -1.513103
v -0.263596 0.107071 -1.513103
v -0.263596 -0.031663 -1.513103
v 0.263596 0.107071 1.513103
v 0.263596 -0.031663 1.513103
v 0.124861 0.107071 1.513103
v 0.124861 -0.031663 1.513103
v 0.263596 0.107071 -1.513103
v 0.263596 -0.031663 -1.513103
v 0.124861 0.107071 -1.513103
v 0.124861 -0.031663 -1.513103
v 0.652053 0.107071 1.513103
v 0.652053 -0.031663 1.513103
v 0.513318 0.107071 1.513103
v 0.513318 -0.031663 1.513103
v 0.652053 0.107071 -1.513103
v 0.652053 -0.031663 -1.513103
v 0.513318 0.107071 -1.513103
v 0.513318 -0.031663 -1.513103
v 1.040510 0.107071 1.513103
v 1.040510 -0.031663 1.513103
v 0.901776 0.107071 1.513103
v 0.901776 -0.031663 1.513103
v 1.040510 0.107071 -1.513103
v 1.040510 -0.031663 -1.513103
v 0.901776 0.107071 -1.513103
v 0.901776 -0.031663 -1.513103
vt 1.293945 0.104492
vt -0.114258 0.104492
vt -0.114258 0.170898
vt 1.293945 0.170898
vt -0.114258 0.170898
vt 1.293945 0.170898
vt 1.293945 0.104492
vt -0.114258 0.104492
vt -0.114258 0.104492
vt -0.114258 0.170898
vt 1.293945 0.170898
vt 1.293945 0.104492
vt 1.293945 0.170898
vt 1.293945 0.104492
vt -0.114258 0.104492
vt -0.114258 0.170898
vt 1.293945 0.104492
vt -0.114258 0.104492
vt -0.114258 0.170898
vt 1.293945 0.170898
vt -0.114258 0.170898
vt 1.293945 0.170898
vt 1.293945 0.104492
vt -0.114258 0.104492
vt -0.114258 0.104492
vt -0.114258 0.170898
vt 1.293945 0.170898
vt 1.293945 0.104492
vt 1.293945 0.170898
vt 1.293945 0.104492
vt -0.114258 0.104492
vt -0.114258 0.170898
vt 1.293945 0.104492
vt -0.114258 0.104492
vt -0.114258 0.170898
vt 1.293945 0.170898
vt -0.114258 0.170898
vt 1.293945 0.170898
vt 1.293945 0.104492
vt -0.114258 0.104492
vt -0.114258 0.104492
vt -0.114258 0.170898
vt 1.293945 0.170898
vt 1.293945 0.104492
vt 1.293945 0.170898
vt 1.293945 0.104492
vt -0.114258 0.104492
vt -0.114258 0.170898
vt 1.293945 0.104492
vt -0.114258 0.104492
vt -0.114258 0.170898
vt 1.293945 0.170898
vt -0.114258 0.170898
vt 1.293945 0.170898
vt 1.293945 0.104492
vt -0.114258 0.104492
vt -0.114258 0.104492
vt -0.114258 0.170898
vt 1.293945 0.170898
vt 1.293945 0.104492
vt 1.293945 0.170898
vt 1.293945 0.104492
vt -0.114258 0.104492
vt -0.114258 0.170898
vt 1.293945 0.104492
vt -0.114258 0.104492
vt -0.114258 0.170898
vt 1.293945 0.170898
vt -0.114258 0.170898
vt 1.293945 0.170898
vt 1.293945 0.104492
vt -0.114258 0.104492
vt -0.114258 0.104492
vt -0.114258 0.170898
vt 1.293945 0.170898
vt 1.293945 0.104492
vt 1.293945 0.170898
vt 1.293945 0.104492
vt -0.114258 0.104492
vt -0.114258 0.170898
vt 1.293945 0.104492
vt -0.114258 0.104492
vt -0.114258 0.170898
vt 1.293945 0.170898
vt -0.114258 0.170898
vt 1.293945 0.170898
vt 1.293945 0.104492
vt -0.114258 0.104492
vt -0.114258 0.104492
vt -0.114258 0.170898
vt 1.293945 0.170898
vt 1.293945 0.104492
vt 1.293945 0.170898
vt 1.293945 0.104492
vt -0.114258 0.104492
vt -0.114258 0.170898
vt 1.293945 0.104492
vt -0.114258 0.104492
vt -0.114258 0.170898
vt 1.293945 0.170898
vt -0.114258 0.170898
vt 1.293945 0.170898
vt 1.293945 0.104492
vt -0.114258 0.104492
vt -0.114258 0.104492
vt -0.114258 0.170898
vt 1.293945 0.170898
vt 1.293945 0.104492
vt 1.293945 0.170898
vt 1.293945 0.104492
vt -0.114258 0.104492
vt -0.114258 0.170898
vt 1.293945 0.104492
vt -0.114258 0.104492
vt -0.114258 0.170898
vt 1.293945 0.170898
vt -0.114258 0.170898
vt 1.293945 0.170898
vt 1.293945 0.104492
vt -0.114258 0.104492
vt -0.114258 0.104492
vt -0.114258 0.170898
vt 1.293945 0.170898
vt 1.293945 0.104492
vt 1.293945 0.170898
vt 1.293945 0.104492
vt -0.114258 0.104492
vt -0.114258 0.170898
vt 1.293945 0.104492
vt -0.114258 0.104492
vt -0.114258 0.170898
vt 1.293945 0.170898
vt -0.114258 0.170898
vt 1.293945 0.170898
vt 1.293945 0.104492
vt -0.114258 0.104492
vt -0.114258 0.104492
vt -0.114258 0.170898
vt 1.293945 0.170898
vt 1.293945 0.104492
vt 1.293945 0.170898
vt 1.293945 0.104492
vt -0.114258 0.104492
vt -0.114258 0.170898
vt 1.293945 0.104492
vt -0.114258 0.104492
vt -0.114258 0.170898
vt 1.293945 0.170898
vt -0.114258 0.170898
vt 1.293945 0.170898
vt 1.293945 0.104492
vt -0.114258 0.104492
vt -0.114258 0.104492
vt -0.114258 0.170898
vt 1.293945 0.170898
vt 1.293945 0.104492
vt 1.293945 0.170898
vt 1.293945 0.104492
vt -0.114258 0.104492
vt -0.114258 0.170898
vt 1.293945 0.104492
vt -0.114258 0.104492
vt -0.114258 0.170898
vt 1.293945 0.170898
vt -0.114258 0.170898
vt 1.293945 0.170898
vt 1.293945 0.104492
vt -0.114258 0.104492
vt -0.114258 0.104492
vt -0.114258 0.170898
vt 1.293945 0.170898
vt 1.293945 0.104492
vt 1.293945 0.170898
vt 1.293945 0.104492
vt -0.114258 0.104492
vt -0.114258 0.170898
vt 1.293945 0.104492
vt -0.114258 0.104492
vt -0.114258 0.170898
vt 1.293945 0.170898
vt -0.114258 0.170898
vt 1.293945 0.170898
vt 1.293945 0.104492
vt -0.114258 0.104492
vt -0.114258 0.104492
vt -0.114258 0.170898
vt 1.293945 0.170898
vt 1.293945 0.104492
vt 1.293945 0.170898
vt 1.293945 0.104492
vt -0.114258 0.104492
vt -0.114258 0.170898
vn 0.0000 0.0000 1.0000
vn 0.0000 0.0000 -1.0000
vn 0.0000 1.0000 0.0000
vn 0.0000 -1.0000 0.0000
vn -1.0000 0.0000 -0.0000
vn 1.0000 0.0000 0.0000
usemtl wood
s off
f 3/1/1 7/2/1 8/3/1 4/4/1
f 5/5/2 1/6/2 2/7/2 6/8/2
f 3/9/3 1/10/3 5/11/3 7/12/3
f 8/13/4 6/14/4 2/15/4 4/16/4
f 11/17/1 15/18/1 16/19/1 12/20/1
f 13/21/2 9/22/2 10/23/2 14/24/2
f 11/25/3 9/26/3 13/27/3 15/28/3
f 16/29/4 14/30/4 10/31/4 12/32/4
f 19/33/1 23/34/1 24/35/1 20/36/1
f 21/37/2 17/38/2 18/39/2 22/40/2
f 19/41/3 17/42/3 21/43/3 23/44/3
f 24/45/4 22/46/4 18/47/4 20/48/4
f 27/49/1 31/50/1 32/51/1 28/52/1
f 29/53/2 25/54/2 26/55/2 30/56/2
f 27/57/3 25/58/3 29/59/3 31/60/3
f 32/61/4 30/62/4 26/63/4 28/64/4
f 35/65/1 39/66/1 40/67/1 36/68/1
f 37/69/2 33/70/2 34/71/2 38/72/2
f 35/73/3 33/74/3 37/75/3 39/76/3
f 40/77/4 38/78/4 34/79/4 36/80/4
f 43/81/1 47/82/1 48/83/1 44/84/1
f 45/85/2 41/86/2 42/87/2 46/88/2
f 43/89/3 41/90/3 45/91/3 47/92/3
f 48/93/4 46/94/4 42/95/4 44/96/4
f 51/97/5 55/98/5 56/99/5 52/100/5
f 53/101/6 49/102/6 50/103/6 54/104/6
f 51/105/3 49/106/3 53/107/3 55/108/3
f 56/109/4 54/110/4 50/111/4 52/112/4
f 59/113/5 63/114/5 64/115/5 60/116/5
f 61/117/6 57/118/6 58/119/6 62/120/6
f 59/121/3 57/122/3 61/123/3 63/124/3
f 64/125/4 62/126/4 58/127/4 60/128/4
f 67/129/5 71/130/5 72/131/5 68/132/5
f 69/133/6 65/134/6 66/135/6 70/136/6
f 67/137/3 65/138/3 69/139/3 71/140/3
f 72/141/4 70/142/4 66/143/4 68/144/4
f 75/145/5 79/146/5 80/147/5 76/148/5
f 77/149/6 73/150/6 74/151/6 78/152/6
f 75/153/3 73/154/3 77/155/3 79/156/3
f 80/157/4 78/158/4 74/159/4 76/160/4
f 83/161/5 87/162/5 88/163/5 84/164/5
f 85/165/6 81/166/6 82/167/6 86/168/6
f 83/169/3 81/170/3 85/171/3 87/172/3
f 88/173/4 86/174/4 82/175/4 84/176/4
f 91/177/5 95/178/5 96/179/5 92/180/5
f 93/181/6 89/182/6 90/183/6 94/184/6
f 91/185/3 89/186/3 93/187/3 95/188/3
f 96/189/4 94/190/4 90/191/4 92/192/4
