# Blender v2.90.0 OBJ File: 'untitled.blend'
# www.blender.org
mtllib ChainHanging_02.mtl
o Plane.004_Plane.011
v 0.063660 -0.656638 0.328525
v 0.063660 -0.310158 -1.644313
v 0.063660 -0.484355 -1.363351
v 0.063660 -0.673629 -0.082203
v 0.063660 -0.632573 0.707356
v 0.063660 -0.573594 1.071806
v 0.063660 -0.474052 1.374394
v 0.063660 -0.308456 1.641117
v 0.063660 -0.538092 -1.162376
v 0.063660 -0.592299 -0.819476
v -0.057904 -0.655010 0.328560
v -0.057904 -0.310231 -1.644307
v -0.057904 -0.505775 -1.280532
v -0.057904 -0.672776 -0.082191
v -0.057904 -0.632748 0.707396
v -0.057904 -0.573853 1.071678
v -0.057904 -0.474233 1.374080
v -0.057904 -0.308696 1.640981
v -0.057904 -0.551305 -1.071463
v -0.057904 -0.591463 -0.819463
v -0.002878 -0.365291 1.725157
v -0.002878 -0.365073 -1.732478
v -0.002878 -0.564660 -1.351004
v -0.002878 -0.611963 -1.134840
v -0.002878 -0.653721 -0.854655
v -0.002878 -0.735354 -0.089692
v -0.002878 -0.712243 0.344380
v -0.002878 -0.689820 0.742889
v -0.002878 -0.634281 1.126519
v -0.002878 -0.532774 1.442289
v -0.002878 -0.251772 1.555715
v -0.002878 -0.254573 -1.556178
v -0.002878 -0.445748 -1.213260
v -0.002878 -0.492189 -1.018887
v -0.002878 -0.534491 -0.766848
v -0.002878 -0.610565 -0.078350
v -0.002878 -0.597148 0.312738
v -0.002878 -0.575185 0.671850
v -0.002878 -0.518205 1.017751
v -0.002878 -0.415195 1.300304
v -0.002878 -0.707045 -0.473387
v -0.002878 -0.585368 -0.423861
v 0.063660 -0.649260 -0.449246
v -0.057904 -0.647397 -0.449226
vt 0.854980 2.593750
vt 0.854980 2.096191
vt 0.995117 2.096191
vt 0.995117 2.593750
vt 0.854980 -1.070801
vt 0.854980 -1.614746
vt 0.995117 -1.614746
vt 0.995117 -0.963867
vt 0.854980 -0.811035
vt 0.995117 -0.705566
vt 0.854980 -0.410645
vt 0.995117 -0.410645
vt 0.854980 0.019043
vt 0.995117 0.019043
vt 0.854980 0.867188
vt 0.854980 0.421387
vt 0.995117 0.421387
vt 0.995117 0.867188
vt 0.854980 1.693848
vt 0.854980 1.278320
vt 0.995117 1.278320
vt 0.995117 1.693848
vt 0.847656 1.692383
vt 0.847656 1.382324
vt 1.002441 1.382324
vt 1.002441 1.692383
vt 0.847656 -1.118164
vt 0.847656 -1.615234
vt 1.002441 -1.615234
vt 1.002441 -1.118164
vt 0.847656 -0.298340
vt 0.847656 -0.712402
vt 1.002441 -0.712402
vt 1.002441 -0.298340
vt 0.847656 0.963867
vt 0.847656 0.560059
vt 1.002441 0.560059
vt 1.002441 0.963867
vt 0.847656 2.597656
vt 0.847656 1.949219
vt 1.002441 1.949219
vt 1.002441 2.597656
vt 0.847656 0.114258
vt 1.002441 0.114258
vn -0.0005 0.8497 -0.5273
vn -0.0008 0.9060 -0.4231
vn -0.0008 0.9062 -0.4227
vn 0.0737 0.9050 0.4190
vn 0.0924 0.8638 0.4953
vn 0.0495 0.9466 0.3185
vn 0.0234 0.9769 0.2122
vn 0.0146 0.9836 0.1799
vn 0.0096 0.9881 0.1537
vn 0.0111 0.9939 0.1092
vn 0.0111 0.9939 0.1093
vn 0.0081 0.9986 -0.0516
vn 0.0107 0.9998 0.0127
vn -0.0014 0.9715 -0.2370
vn 0.0021 0.9939 -0.1105
vn -0.0014 0.9715 -0.2368
vn -1.0000 0.0000 0.0000
usemtl Material.001
s 1
f 8/1/1 7/2/2 17/3/3 18/4/1
f 3/5/4 2/6/5 12/7/5 13/8/6
f 9/9/7 3/5/4 13/8/6 19/10/8
f 10/11/9 9/9/7 19/10/8 20/12/9
f 43/13/10 10/11/9 20/12/9 44/14/11
f 1/15/12 4/16/13 14/17/13 11/18/12
f 6/19/14 5/20/15 15/21/15 16/22/16
f 7/2/2 6/19/14 16/22/16 17/3/3
f 5/20/15 1/15/12 11/18/12 15/21/15
f 24/23/17 25/24/17 35/25/17 34/26/17
f 30/27/17 21/28/17 31/29/17 40/30/17
f 28/31/17 29/32/17 39/33/17 38/34/17
f 41/35/17 26/36/17 36/37/17 42/38/17
f 22/39/17 23/40/17 33/41/17 32/42/17
f 29/32/17 30/27/17 40/30/17 39/33/17
f 26/36/17 27/43/17 37/44/17 36/37/17
f 23/40/17 24/23/17 34/26/17 33/41/17
f 27/43/17 28/31/17 38/34/17 37/44/17
f 25/24/17 41/35/17 42/38/17 35/25/17
f 4/16/13 43/13/10 44/14/11 14/17/13
