# Blender v2.90.0 OBJ File: 'untitled.blend'
# www.blender.org
mtllib ChainHigh.mtl
o Plane.003_Plane.009
v -0.067338 -0.027094 -0.000000
v 0.067338 -0.027094 -0.000000
v -0.067338 18.045181 0.000000
v 0.067338 18.045181 0.000000
v -0.000000 -0.027094 0.067338
v -0.000000 -0.027094 -0.067338
v 0.000000 18.045179 0.067338
v 0.000000 18.045179 -0.067338
vt 0.841797 -9.004883
vt 0.998047 -9.004883
vt 0.998047 10.362305
vt 0.841797 10.362305
vt 0.841797 -9.004883
vt 0.998047 -9.004883
vt 0.998047 10.362305
vt 0.841797 10.362305
vn 0.0000 -0.0000 1.0000
vn 1.0000 -0.0000 -0.0000
usemtl Material.001
s off
f 1/1/1 2/2/1 4/3/1 3/4/1
f 5/5/2 6/6/2 8/7/2 7/8/2
