# Blender v2.90.0 OBJ File: 'table.blend'
# www.blender.org
mtllib torch.mtl
o Cube__6__Scene
v -0.000000 -0.152834 -0.445637
v -0.000000 0.027592 -0.511571
v 0.087091 -0.144172 -0.410618
v 0.101717 0.037709 -0.470671
v 0.123003 -0.123355 -0.326456
v 0.143686 0.062037 -0.372312
v 0.087091 -0.102538 -0.242295
v 0.101717 0.086366 -0.273953
v -0.000000 -0.093876 -0.207276
v -0.000000 0.096482 -0.233054
v -0.087091 -0.102538 -0.242295
v -0.101717 0.086366 -0.273953
v -0.123003 -0.123355 -0.326456
v -0.143686 0.062037 -0.372312
v -0.087091 -0.144172 -0.410618
v -0.101717 0.037709 -0.470671
v -0.000000 -0.640531 -0.289444
v -0.000000 0.280840 -0.579631
v 0.061580 -0.634406 -0.264683
v 0.104337 0.291217 -0.537678
v 0.087088 -0.619620 -0.204904
v 0.147555 0.316270 -0.436392
v 0.061580 -0.604834 -0.145125
v 0.104337 0.341322 -0.335107
v -0.000000 -0.598709 -0.120364
v -0.000000 0.351699 -0.293154
v -0.061580 -0.604834 -0.145125
v -0.104337 0.341322 -0.335107
v -0.087088 -0.619620 -0.204904
v -0.147556 0.316270 -0.436392
v -0.061580 -0.634406 -0.264683
v -0.104337 0.291217 -0.537678
v -0.000000 -0.137529 -0.474257
v 0.103039 -0.127281 -0.432826
v 0.145719 -0.102541 -0.332801
v 0.103039 -0.077800 -0.232777
v -0.000000 -0.067552 -0.191345
v -0.103039 -0.077800 -0.232777
v -0.145719 -0.102541 -0.332801
v -0.103039 -0.127281 -0.432826
v -0.000000 -0.119973 -0.520742
v 0.132788 -0.106766 -0.467349
v 0.140386 -0.012275 -0.498548
v -0.000000 -0.026237 -0.554996
v 0.187790 -0.074883 -0.338446
v 0.198535 0.021433 -0.362269
v 0.132788 -0.042999 -0.209543
v 0.140386 0.055141 -0.225990
v -0.000000 -0.029792 -0.156149
v -0.000000 0.069104 -0.169542
v -0.132788 -0.042999 -0.209543
v -0.140386 0.055141 -0.225990
v -0.187790 -0.074883 -0.338446
v -0.198535 0.021433 -0.362269
v -0.132788 -0.106766 -0.467349
v -0.140386 -0.012275 -0.498548
v -0.062939 -0.062939 0.202573
v -0.062939 0.062939 0.202573
v -0.062939 -0.062939 -0.233004
v -0.062939 0.062939 -0.233004
v 0.062939 -0.062939 0.202573
v 0.062939 0.062939 0.202573
v 0.062939 -0.062939 -0.233004
v 0.062939 0.062939 -0.233004
v -0.000000 -0.625939 -0.317023
v 0.078034 -0.618178 -0.285646
v 0.110357 -0.599441 -0.209895
v 0.078034 -0.580704 -0.134144
v -0.000000 -0.572943 -0.102766
v -0.078034 -0.580704 -0.134144
v -0.110357 -0.599441 -0.209895
v -0.078034 -0.618178 -0.285646
v 0.122967 0.263964 -0.550128
v -0.000000 0.251734 -0.599573
v 0.173902 0.293490 -0.430758
v 0.122967 0.323016 -0.311388
v -0.000000 0.335246 -0.261943
v -0.122967 0.323016 -0.311388
v -0.173902 0.293490 -0.430758
v -0.122967 0.263964 -0.550128
v -0.000000 0.205771 -0.604362
v 0.132788 0.218978 -0.550969
v 0.159028 0.378428 -0.619287
v -0.000000 0.362611 -0.683231
v 0.187790 0.250862 -0.422066
v 0.224900 0.416612 -0.464911
v 0.132788 0.282745 -0.293163
v 0.159028 0.454796 -0.310535
v -0.000000 0.295952 -0.239770
v -0.000000 0.470613 -0.246590
v -0.132788 0.282745 -0.293163
v -0.159028 0.454796 -0.310535
v -0.187790 0.250862 -0.422066
v -0.224900 0.416612 -0.464911
v -0.132788 0.218978 -0.550969
v -0.159028 0.378428 -0.619287
v -0.000000 0.222978 -0.572923
v 0.108286 0.233747 -0.529382
v 0.129684 0.375407 -0.588311
v -0.000000 0.362509 -0.640457
v 0.153139 0.259748 -0.424264
v 0.183401 0.406546 -0.462421
v 0.108286 0.285748 -0.319146
v 0.129684 0.437684 -0.336531
v -0.000000 0.296518 -0.275605
v -0.000000 0.450582 -0.284385
v -0.108286 0.285748 -0.319146
v -0.129684 0.437684 -0.336531
v -0.153139 0.259748 -0.424264
v -0.183401 0.406546 -0.462421
v -0.108286 0.233747 -0.529382
v -0.129684 0.375407 -0.588311
vt 0.500000 0.158203
vt 0.500000 0.115234
vt 0.625977 0.115234
vt 0.625977 0.158203
vt 0.749023 0.115234
vt 0.749023 0.158203
vt 0.875000 0.115234
vt 0.875000 0.158203
vt 1.000000 0.115234
vt 1.000000 0.158203
vt 0.000000 0.158203
vt 0.000000 0.115234
vt 0.125977 0.115234
vt 0.125977 0.158203
vt 0.249023 0.115234
vt 0.249023 0.158203
vt 0.375000 0.115234
vt 0.375000 0.158203
vt 0.563477 0.619141
vt 0.342773 0.619141
vt 0.342773 0.589844
vt 0.563477 0.589844
vt 0.342773 0.562500
vt 0.563477 0.562500
vt 0.342773 0.533203
vt 0.563477 0.533203
vt 0.342773 0.506836
vt 0.563477 0.506836
vt 0.563477 0.732422
vt 0.342773 0.732422
vt 0.342773 0.704102
vt 0.563477 0.704102
vt 0.342773 0.675781
vt 0.563477 0.675781
vt 0.092316 0.061804
vt 0.092316 0.033899
vt 0.112024 0.014191
vt 0.139929 0.014191
vt 0.159637 0.033899
vt 0.159637 0.061804
vt 0.139929 0.081512
vt 0.112024 0.081512
vt 0.342773 0.648438
vt 0.563477 0.648438
vt 0.332548 0.034651
vt 0.352034 0.015166
vt 0.379412 0.015166
vt 0.398897 0.034651
vt 0.398897 0.062029
vt 0.379412 0.081514
vt 0.352034 0.081514
vt 0.332548 0.062029
vt 0.847828 0.648438
vt 0.847828 0.619141
vt 0.847828 0.675781
vt 0.847828 0.704102
vt 0.847828 0.732422
vt 0.847828 0.533203
vt 0.847828 0.506836
vt 0.847828 0.562500
vt 0.847828 0.589844
vt 0.625977 0.172852
vt 0.500000 0.172852
vt 0.500000 0.101562
vt 0.625977 0.101562
vt 0.749023 0.172852
vt 0.749023 0.101562
vt 0.875000 0.172852
vt 0.875000 0.101562
vt 1.000000 0.172852
vt 1.000000 0.101562
vt 0.125977 0.172852
vt 0.000000 0.172852
vt 0.000000 0.101562
vt 0.125977 0.101562
vt 0.249023 0.172852
vt 0.249023 0.101562
vt 0.375000 0.172852
vt 0.375000 0.101562
vt 0.625000 0.108398
vt 0.625000 0.168945
vt 0.310547 0.168945
vt 0.310547 0.108398
vt 0.310547 0.168945
vt 0.310547 0.108398
vt 0.625000 0.108398
vt 0.625000 0.168945
vt 0.625000 0.108398
vt 0.625000 0.168945
vt 0.310547 0.168945
vt 0.310547 0.108398
vt 0.625000 0.108398
vt 0.625000 0.168945
vt 0.310547 0.168945
vt 0.310547 0.108398
vt 0.323671 0.031026
vt 0.348408 0.006288
vt 0.383037 0.006288
vt 0.407774 0.031026
vt 0.407774 0.065654
vt 0.383037 0.090391
vt 0.348408 0.090391
vt 0.323671 0.065654
vt 0.086307 0.064300
vt 0.086307 0.031404
vt 0.109529 0.087521
vt 0.142425 0.087521
vt 0.165646 0.064300
vt 0.165646 0.031404
vt 0.142425 0.008182
vt 0.109529 0.008182
vt 0.500000 0.158203
vt 0.500000 0.115234
vt 0.625977 0.115234
vt 0.625977 0.158203
vt 0.749023 0.115234
vt 0.749023 0.158203
vt 0.875000 0.115234
vt 0.875000 0.158203
vt 1.000000 0.115234
vt 1.000000 0.158203
vt 0.000000 0.158203
vt 0.000000 0.115234
vt 0.125977 0.115234
vt 0.125977 0.158203
vt 0.249023 0.115234
vt 0.249023 0.158203
vt 0.375000 0.115234
vt 0.375000 0.158203
vt 0.500000 0.158203
vt 0.625977 0.158203
vt 0.625977 0.115234
vt 0.500000 0.115234
vt 0.749023 0.158203
vt 0.749023 0.115234
vt 0.875000 0.158203
vt 0.875000 0.115234
vt 1.000000 0.158203
vt 1.000000 0.115234
vt 0.000000 0.158203
vt 0.125977 0.158203
vt 0.125977 0.115234
vt 0.000000 0.115234
vt 0.249023 0.158203
vt 0.249023 0.115234
vt 0.375000 0.158203
vt 0.375000 0.115234
vt 0.749023 0.159180
vt 0.749023 0.113281
vt 0.625000 0.113281
vt 0.625000 0.159180
vt 0.375977 0.159180
vt 0.375977 0.113281
vt 0.249023 0.113281
vt 0.249023 0.159180
vt 0.375977 0.159180
vt 0.375977 0.113281
vt 0.250000 0.113281
vt 0.250000 0.159180
vt 0.750977 0.159180
vt 0.750977 0.113281
vt 0.625000 0.113281
vt 0.625000 0.159180
vt 0.124023 0.159180
vt 0.124023 0.113281
vt 0.000000 0.113281
vt 0.000000 0.159180
vt 1.000000 0.159180
vt 1.000000 0.113281
vt 0.874023 0.113281
vt 0.874023 0.159180
vt 0.874023 0.159180
vt 0.874023 0.113281
vt 0.500000 0.159180
vt 0.500000 0.113281
vt 0.124023 0.113281
vt 0.124023 0.159180
vt 0.500977 0.113281
vt 0.500977 0.159180
vt 1.000000 0.159180
vt 1.000000 0.113281
vt 0.000000 0.113281
vt 0.000000 0.159180
vn -0.0000 -0.6537 -0.7568
vn -0.0000 0.1230 -0.9924
vn 0.6603 0.1882 -0.7271
vn 0.6304 -0.5907 -0.5036
vn 0.9341 0.3464 -0.0857
vn 0.8919 -0.4390 0.1086
vn 0.6603 0.5055 0.5555
vn 0.6304 -0.2878 0.7209
vn -0.0000 0.5714 0.8206
vn -0.0000 -0.2255 0.9742
vn -0.6603 0.5055 0.5555
vn -0.6304 -0.2878 0.7209
vn -0.9341 0.3464 -0.0857
vn -0.8919 -0.4390 0.1086
vn -0.6603 0.1882 -0.7271
vn -0.6304 -0.5907 -0.5036
vn -0.0000 -0.3064 -0.9519
vn -0.0000 0.1090 -0.9940
vn 0.6638 0.1750 -0.7271
vn 0.7054 -0.2363 -0.6682
vn 0.9388 0.3344 -0.0827
vn 0.9976 -0.0669 0.0165
vn 0.6638 0.4938 0.5617
vn 0.7054 0.1025 0.7013
vn -0.0000 0.5598 0.8286
vn -0.0000 0.1726 0.9850
vn -0.6638 0.4938 0.5617
vn -0.7054 0.1025 0.7013
vn -0.9388 0.3344 -0.0827
vn -0.9976 -0.0669 0.0165
vn 0.3028 0.8045 -0.5109
vn -0.0000 0.7744 -0.6327
vn -0.3028 0.8045 -0.5109
vn -0.4282 0.8772 -0.2170
vn -0.3028 0.9499 0.0770
vn -0.0000 0.9801 0.1987
vn 0.3028 0.9499 0.0770
vn 0.4282 0.8772 -0.2170
vn -0.6638 0.1750 -0.7271
vn -0.7054 -0.2363 -0.6682
vn -0.0000 -0.9799 -0.1996
vn 0.3034 -0.9497 -0.0776
vn 0.4290 -0.8769 0.2169
vn 0.3034 -0.8040 0.5114
vn -0.0000 -0.7739 0.6333
vn -0.3034 -0.8040 0.5114
vn -0.4290 -0.8769 0.2169
vn -0.3034 -0.9497 -0.0776
vn -0.6459 -0.5502 -0.5293
vn 0.0000 -0.6144 -0.7890
vn -0.9134 -0.3951 0.0977
vn -0.6459 -0.2400 0.7247
vn -0.0000 -0.1758 0.9844
vn 0.6459 -0.2400 0.7247
vn 0.9134 -0.3951 0.0977
vn 0.6459 -0.5502 -0.5293
vn 0.4317 -0.8728 -0.2278
vn -0.0000 -0.9161 -0.4008
vn -0.0000 0.6279 -0.7783
vn 0.4288 0.6698 -0.6062
vn 0.6105 -0.7689 0.1902
vn 0.6064 0.7719 -0.1909
vn 0.4317 -0.6660 0.6084
vn 0.4288 0.8752 0.2240
vn -0.0000 -0.6236 0.7817
vn -0.0000 0.9183 0.3959
vn -0.4317 -0.6660 0.6084
vn -0.4288 0.8752 0.2240
vn -0.6105 -0.7689 0.1902
vn -0.6064 0.7719 -0.1909
vn -0.4317 -0.8728 -0.2278
vn -0.4288 0.6698 -0.6062
vn -0.7071 -0.7071 0.0000
vn -0.7071 0.7071 0.0000
vn 0.7071 -0.7071 0.0000
vn 0.7071 0.7071 0.0000
vn -0.0000 -0.9071 -0.4210
vn -0.0000 0.4183 -0.9083
vn 0.5507 0.4741 -0.6870
vn 0.4448 -0.8621 -0.2428
vn 0.7784 0.6088 -0.1529
vn 0.6303 -0.7531 0.1885
vn 0.5501 0.7434 0.3805
vn 0.4466 -0.6437 0.6215
vn -0.0000 0.7991 0.6013
vn -0.0000 -0.5983 0.8013
vn -0.5501 0.7434 0.3805
vn -0.4466 -0.6437 0.6215
vn -0.7784 0.6088 -0.1529
vn -0.6303 -0.7531 0.1885
vn -0.5507 0.4741 -0.6870
vn -0.4448 -0.8621 -0.2428
vn 0.0000 -0.4092 0.9125
vn -0.5570 -0.4662 0.6873
vn -0.4551 0.8518 0.2594
vn 0.0000 0.8976 0.4407
vn -0.7839 -0.6031 0.1473
vn -0.6473 0.7403 -0.1818
vn -0.5517 -0.7386 -0.3874
vn -0.4603 0.6274 -0.6280
vn 0.0000 -0.7944 -0.6074
vn 0.0000 0.5803 -0.8144
vn 0.5517 -0.7386 -0.3874
vn 0.4603 0.6274 -0.6280
vn 0.7839 -0.6031 0.1473
vn 0.6473 0.7403 -0.1818
vn 0.5570 -0.4662 0.6873
vn 0.4551 0.8518 0.2594
usemtl Material.001
s 1
f 41/1/1 44/2/2 43/3/3 42/4/4
f 42/4/4 43/3/3 46/5/5 45/6/6
f 45/6/6 46/5/5 48/7/7 47/8/8
f 47/8/8 48/7/7 50/9/9 49/10/10
f 49/11/10 50/12/9 52/13/11 51/14/12
f 51/14/12 52/13/11 54/15/13 53/16/14
f 53/16/14 54/15/13 56/17/15 55/18/16
f 55/18/16 56/17/15 44/2/2 41/1/1
f 33/19/17 74/20/18 73/21/19 34/22/20
f 34/22/20 73/21/19 75/23/21 35/24/22
f 35/24/22 75/23/21 76/25/23 36/26/24
f 36/26/24 76/25/23 77/27/25 37/28/26
f 37/29/26 77/30/25 78/31/27 38/32/28
f 38/32/28 78/31/27 79/33/29 39/34/30
f 20/35/31 18/36/32 32/37/33 30/38/34 28/39/35 26/40/36 24/41/37 22/42/38
f 39/34/30 79/33/29 80/43/39 40/44/40
f 40/44/40 80/43/39 74/20/18 33/19/17
f 17/45/41 19/46/42 21/47/43 23/48/44 25/49/45 27/50/46 29/51/47 31/52/48
f 72/53/49 40/44/40 33/19/17 65/54/50
f 71/55/51 39/34/30 40/44/40 72/53/49
f 70/56/52 38/32/28 39/34/30 71/55/51
f 69/57/53 37/29/26 38/32/28 70/56/52
f 68/58/54 36/26/24 37/28/26 69/59/53
f 67/60/55 35/24/22 36/26/24 68/58/54
f 66/61/56 34/22/20 35/24/22 67/60/55
f 65/54/50 33/19/17 34/22/20 66/61/56
f 3/62/57 1/63/58 41/1/1 42/4/4
f 2/64/59 4/65/60 43/3/3 44/2/2
f 5/66/61 3/62/57 42/4/4 45/6/6
f 4/65/60 6/67/62 46/5/5 43/3/3
f 7/68/63 5/66/61 45/6/6 47/8/8
f 6/67/62 8/69/64 48/7/7 46/5/5
f 9/70/65 7/68/63 47/8/8 49/10/10
f 8/69/64 10/71/66 50/9/9 48/7/7
f 11/72/67 9/73/65 49/11/10 51/14/12
f 10/74/66 12/75/68 52/13/11 50/12/9
f 13/76/69 11/72/67 51/14/12 53/16/14
f 12/75/68 14/77/70 54/15/13 52/13/11
f 15/78/71 13/76/69 53/16/14 55/18/16
f 14/77/70 16/79/72 56/17/15 54/15/13
f 1/63/58 15/78/71 55/18/16 41/1/1
f 16/79/72 2/64/59 44/2/2 56/17/15
f 57/80/73 58/81/74 60/82/74 59/83/73
f 63/84/75 64/85/76 62/86/76 61/87/75
f 59/88/73 63/89/75 61/90/75 57/91/73
f 64/92/76 60/93/74 58/94/74 62/95/76
f 19/46/42 17/45/41 65/96/50 66/97/56
f 21/47/43 19/46/42 66/97/56 67/98/55
f 23/48/44 21/47/43 67/98/55 68/99/54
f 25/49/45 23/48/44 68/99/54 69/100/53
f 27/50/46 25/49/45 69/100/53 70/101/52
f 29/51/47 27/50/46 70/101/52 71/102/51
f 31/52/48 29/51/47 71/102/51 72/103/49
f 17/45/41 31/52/48 72/103/49 65/96/50
f 18/36/32 20/35/31 73/104/19 74/105/18
f 20/35/31 22/42/38 75/106/21 73/104/19
f 22/42/38 24/41/37 76/107/23 75/106/21
f 24/41/37 26/40/36 77/108/25 76/107/23
f 26/40/36 28/39/35 78/109/27 77/108/25
f 28/39/35 30/38/34 79/110/29 78/109/27
f 30/38/34 32/37/33 80/111/39 79/110/29
f 32/37/33 18/36/32 74/105/18 80/111/39
f 81/112/77 84/113/78 83/114/79 82/115/80
f 82/115/80 83/114/79 86/116/81 85/117/82
f 85/117/82 86/116/81 88/118/83 87/119/84
f 87/119/84 88/118/83 90/120/85 89/121/86
f 89/122/86 90/123/85 92/124/87 91/125/88
f 91/125/88 92/124/87 94/126/89 93/127/90
f 93/127/90 94/126/89 96/128/91 95/129/92
f 95/129/92 96/128/91 84/113/78 81/112/77
f 97/130/93 98/131/94 99/132/95 100/133/96
f 98/131/94 101/134/97 102/135/98 99/132/95
f 101/134/97 103/136/99 104/137/100 102/135/98
f 103/136/99 105/138/101 106/139/102 104/137/100
f 105/140/101 107/141/103 108/142/104 106/143/102
f 107/141/103 109/144/105 110/145/106 108/142/104
f 109/144/105 111/146/107 112/147/108 110/145/106
f 111/146/107 97/130/93 100/133/96 112/147/108
f 85/148/82 101/149/97 98/150/94 82/151/80
f 95/152/92 111/153/107 109/154/105 93/155/90
f 83/156/79 99/157/95 102/158/98 86/159/81
f 94/160/89 110/161/106 112/162/108 96/163/91
f 91/164/88 107/165/103 105/166/101 89/167/86
f 90/168/85 106/169/102 108/170/104 92/171/87
f 87/172/84 103/173/99 101/149/97 85/148/82
f 81/174/77 97/175/93 111/153/107 95/152/92
f 82/151/80 98/150/94 97/175/93 81/174/77
f 86/159/81 102/158/98 104/176/100 88/177/83
f 96/163/91 112/162/108 100/178/96 84/179/78
f 84/179/78 100/178/96 99/157/95 83/156/79
f 93/155/90 109/154/105 107/165/103 91/164/88
f 92/171/87 108/170/104 110/161/106 94/160/89
f 89/180/86 105/181/101 103/173/99 87/172/84
f 88/177/83 104/176/100 106/182/102 90/183/85
